<?xml version="1.0" standalone="no"?>
<!DOCTYPE svg PUBLIC "-//W3C//DTD SVG 1.1//EN" "http://www.w3.org/Graphics/SVG/1.1/DTD/svg11.dtd" >
<svg>
<metadata>
Created by FontForge 20090914 at Fri Oct  5 22:55:43 2018
 By www-data
Copyright 1997,1998 Autodesk Inc. All rights reserved.
</metadata>
<defs>
<font id="ISOCPEUR" horiz-adv-x="924" >
  <font-face 
    font-family="ISOCPEUR"
    font-weight="400"
    font-stretch="normal"
    units-per-em="2048"
    panose-1="2 11 6 4 2 2 2 2 2 4"
    ascent="1638"
    descent="-410"
    x-height="923.998"
    cap-height="1320"
    bbox="-198 -528 1518 1980"
    underline-thickness="132"
    underline-position="-198"
    unicode-range="U+0020-U+25C1"
  />
<missing-glyph horiz-adv-x="1024" 
d="M128 0v1320h768v-1320h-768zM256 128h512v1064h-512v-1064z" />
    <glyph glyph-name=".notdef" horiz-adv-x="1024" 
d="M128 0v1320h768v-1320h-768zM256 128h512v1064h-512v-1064z" />
    <glyph glyph-name="space" unicode=" " horiz-adv-x="792" 
 />
    <glyph glyph-name="exclam" unicode="!" horiz-adv-x="396" 
d="M132 462v792c0 44 22 66 66 66s66 -22 66 -66v-792c0 -44 -22 -66 -66 -66s-66 22 -66 66zM132 132c0 44 22 66 66 66s66 -22 66 -66v-66c0 -44 -22 -66 -66 -66s-66 22 -66 66v66z" />
    <glyph glyph-name="quotedbl" unicode="&#x22;" horiz-adv-x="792" 
d="M264 1320c44 0 66 -21.666 66 -64.999c0 -6 -0.666992 -11.667 -2 -17l-66 -264c-8 -33.333 -29.333 -50 -64 -50c-44 0 -66 22 -66 66c0 5.33301 22.667 98.666 68 279.999c8 33.333 29.333 50 64 50zM594 1320c44 0 66 -21.666 66 -64.999
c0 -6 -0.666992 -11.667 -2 -17l-66 -264c-8 -33.333 -29.333 -50 -64 -50c-44 0 -66 22 -66 66c0 5.33301 22.667 98.666 68 279.999c8 33.333 29.333 50 64 50z" />
    <glyph glyph-name="numbersign" unicode="#" horiz-adv-x="1188" 
d="M858 396v-330c0 -44 -22 -66 -66 -66s-66 22 -66 66v330h-264v-330c0 -44 -22 -66 -66 -66s-66 22 -66 66v330h-132c-44 0 -66 22 -66 66s22 66 66 66h132v264h-132c-44 0 -66 22 -66 66s22 66 66 66h132v330c0 44 22 66 66 66s66 -22 66 -66v-330h264v330
c0 44 22 66 66 66s66 -22 66 -66v-330h132c44 0 66 -22 66 -66s-22 -66 -66 -66h-132v-264h132c44 0 66 -22 66 -66s-22 -66 -66 -66h-132zM726 528v264h-264v-264h264z" />
    <glyph glyph-name="dollar" unicode="$" 
d="M528 132l-0.000976562 -65.999c0 -44 -22 -66 -66 -66s-66 22 -66 66v69c-86 9.33301 -163 34.333 -231 75c-22 13.333 -33 32.666 -33 57.999c0 44.667 22.333 67 67 67c10.667 0 21.334 -2.66699 32.001 -8c60.667 -30.667 115.667 -49.667 165 -57v351l-129 73
c-90 50.667 -135 127.334 -135 230.001c0 67.333 22 125.666 66 174.999c52.667 59.333 118.667 89 198 89v66c0 44 22 66 66 66s66 -22 66 -66v-70c82.667 -10 160 -35.667 232 -77c21.333 -12 32 -30.667 32 -56c0 -18 -6.5 -33.5 -19.5 -46.5s-28.5 -19.5 -46.5 -19.5
c-11.333 0 -22.333 3 -33 9c-51.333 30 -106.333 49 -165 57v-352l129 -72c90 -50 135 -127 135 -231c0 -66 -21.667 -124 -65 -174c-52.667 -60 -119 -90 -199 -90zM527.999 264.001c36.667 0 68 12.832 94 38.499s39 56.834 39 93.501c0 51.333 -21.667 89 -65 113l-68 38
v-283zM395.999 773l0.000976562 283.001c-36.667 0 -67.834 -12.833 -93.501 -38.5s-38.5 -56.834 -38.5 -93.501c0 -52 21.667 -90 65 -114z" />
    <glyph glyph-name="percent" unicode="%" horiz-adv-x="1452" 
d="M1056 397c-36.667 0 -67.835 -12.832 -93.502 -38.499s-38.5 -56.834 -38.5 -93.501c0 -36 13 -67 39 -93s57 -39 93 -39c36.667 0 67.834 12.833 93.501 38.5s38.5 56.834 38.5 93.501c0 37.333 -12.667 68.666 -38 93.999s-56.666 38 -93.999 38zM1056 529.001
c73.333 0 135.666 -25.667 186.999 -77s77 -113.666 77 -186.999s-25.667 -135.666 -77 -186.999s-113.666 -77 -186.999 -77s-135.666 25.667 -186.999 77s-77 113.666 -77 186.999s25.667 135.666 77 186.999s113.666 77 186.999 77zM395.999 1189
c-36.667 0 -67.835 -12.832 -93.502 -38.499s-38.5 -56.834 -38.5 -93.501c0 -36 13 -67 39 -93s57 -39 93 -39c36.667 0 67.834 12.833 93.501 38.5s38.5 56.834 38.5 93.501c0 37.333 -12.667 68.666 -38 93.999s-56.666 38 -93.999 38zM395.998 1321
c73.333 0 135.666 -25.667 186.999 -77s77 -113.666 77 -186.999s-25.667 -135.666 -77 -186.999s-113.666 -77 -186.999 -77s-135.666 25.667 -186.999 77s-77 113.666 -77 186.999s25.667 135.666 77 186.999s113.666 77 186.999 77zM131.998 66.002
c0 16.667 5.66699 31.335 17 44.002l1055 1187c13.333 15.333 30 23 50 23c18 0 33.5 -6.5 46.5 -19.5s19.5 -28.5 19.5 -46.5c0 -16.667 -5.66699 -31.334 -17 -44.001l-1055 -1187c-13.333 -15.333 -30 -23 -50 -23c-18 0 -33.5 6.66699 -46.5 20
s-19.5 28.666 -19.5 45.999z" />
    <glyph glyph-name="ampersand" unicode="&#x26;" horiz-adv-x="1188" 
d="M642 283l-189 297l-167 -242c-14.667 -21.333 -22 -46 -22 -74c0 -36 13 -67 39 -93s57 -39 93 -39c30 0 56 8.33301 78 25zM819 251l95.001 -149.998c6.66699 -10.667 10 -22.334 10 -35.001c0 -18 -6.5 -33.5 -19.5 -46.5s-28.5 -19.5 -46.5 -19.5
c-24 0 -42.667 10.333 -56 31l-89 141l-160 -121c-44.667 -34 -97 -51 -157 -51c-73.333 0 -135.666 25.667 -186.999 77s-77 113.666 -77 186.999c0 54.667 15.333 104.334 46 149.001l198 287l-136 213c-28 44 -42 91.667 -42 143c0 73.333 25.667 135.666 77 186.999
s113.666 77 186.999 77s135.666 -25.667 186.999 -77s77 -113.666 77 -186.999c0 -54.667 -15.333 -104.334 -46 -149.001l-145 -210l213 -335l202 152c12.667 9.33301 26 14 40 14c44 0 66 -22 66 -66c0 -22 -8.33301 -39.333 -25 -52zM458.001 818.002l113 164.002
c15.333 22 23 46.667 23 74c0 37.333 -12.667 68.666 -38 93.999s-56.666 38 -93.999 38c-36.667 0 -67.834 -12.833 -93.501 -38.5s-38.5 -56.834 -38.5 -93.501c0 -25.333 6.33301 -48 19 -68z" />
    <glyph glyph-name="quotesingle" unicode="'" horiz-adv-x="462" 
d="M264 1320c44 0 66 -21.666 66 -64.999c0 -6 -0.666992 -11.667 -2 -17l-66 -264c-8 -33.333 -29.333 -50 -64 -50c-44 0 -66 22 -66 66c0 5.33301 22.667 98.666 68 279.999c8 33.333 29.333 50 64 50z" />
    <glyph glyph-name="parenleft" unicode="(" horiz-adv-x="528" 
d="M264 660c0 -133.333 13 -265.666 39 -396.999c15.333 -78.667 44.666 -180.334 87.999 -305.001c3.33301 -9.33301 5 -17.333 5 -24c0 -18 -6.66699 -33.5 -20 -46.5s-29 -19.5 -47 -19.5c-28 0 -46.667 10.333 -56 31c-36.667 78.667 -69.334 188.667 -98.001 330
s-43 285 -43 431s14.333 289.667 43 431s61.334 251.333 98.001 330c9.33301 20.667 28 31 56 31c44.667 0 67 -22 67 -66c0 -6.66699 -1.66699 -14.667 -5 -24c-43.333 -124.667 -72.666 -226.334 -87.999 -305.001c-26 -131.333 -39 -263.666 -39 -396.999z" />
    <glyph glyph-name="parenright" unicode=")" horiz-adv-x="528" 
d="M264 660c0 133.333 -13 265.669 -39 397.002c-14.667 74 -44.334 175.667 -89.001 305c-2.66699 8 -4 16 -4 24c0 18 6.66699 33.5 20 46.5s29 19.5 47 19.5c28 0 46.667 -10.333 56 -31c36.667 -78.667 69.334 -188.667 98.001 -330s43 -285 43 -431
s-14.333 -289.667 -43 -431s-61.334 -251.333 -98.001 -330c-9.33301 -20.667 -28 -31 -56 -31c-17.333 0 -32.833 6.66699 -46.5 20s-20.5 28.666 -20.5 45.999c0 8 1.33301 16 4 24c44.667 129.333 74.334 231 89.001 305c26 131.333 39 263.666 39 396.999z" />
    <glyph glyph-name="asterisk" unicode="*" horiz-adv-x="1056" 
d="M421 560l-226.999 73.001c-30.667 10 -46 31.667 -46 65c0 43.333 21.333 65 64 65c7.33301 0 15 -1.33301 23 -4l227 -74v239c0 44 22 66 66 66s66 -22 66 -66v-239l226 74c6 2 12.333 3 19 3c46 0 69 -23 69 -69c0 -28.667 -15.667 -48.334 -47 -59.001l-226 -75
l141 -193c8.66699 -12 13 -25 13 -39c0 -44 -22 -66 -66 -66c-22.667 0 -40.667 9.33301 -54 28l-141 193l-140 -194c-12.667 -18 -31.334 -27 -56.001 -27c-18 0 -33.333 6.5 -46 19.5s-19 28.5 -19 46.5c0 13.333 4.66699 26.333 14 39z" />
    <glyph glyph-name="plus" unicode="+" 
d="M396 396h-198c-44 0 -66 22 -66 66s22 66 66 66h198v198c0 44 22 66 66 66s66 -22 66 -66v-198h198c44 0 66 -22 66 -66s-22 -66 -66 -66h-198v-198c0 -44 -22 -66 -66 -66s-66 22 -66 66v198z" />
    <glyph glyph-name="comma" unicode="," horiz-adv-x="462" 
d="M264 132c44 0 66.001 -21.667 66.001 -65c0 -6 -22.667 -99.667 -68 -281c-8 -33.333 -29.333 -50 -64 -50c-44 0 -66 22 -66 66c0 30 22.667 123.333 68 280c9.33301 33.333 30.666 50 63.999 50z" />
    <glyph glyph-name="hyphen" unicode="-" 
d="M726 330h-528c-44 0 -66 22 -66 66s22 66 66 66h528c44 0 66 -22 66 -66s-22 -66 -66 -66z" />
    <glyph glyph-name="hyphen" unicode="&#x2010;" 
d="M726 330h-528c-44 0 -66 22 -66 66s22 66 66 66h528c44 0 66 -22 66 -66s-22 -66 -66 -66z" />
    <glyph glyph-name="period" unicode="." horiz-adv-x="396" 
d="M132 132c0 44 22 66 66 66s66 -22 66 -66v-66c0 -44 -22 -66 -66 -66s-66 22 -66 66v66z" />
    <glyph glyph-name="slash" unicode="/" 
d="M132 66c0 9.33301 2 18.332 6 26.999l528 1188c11.333 26 31 39 59 39c18 0 33.667 -6.33301 47 -19s20 -28 20 -46c0 -9.33301 -2 -18.666 -6 -27.999l-528 -1188c-11.333 -26 -31 -39 -59 -39c-18 0 -33.667 6.5 -47 19.5s-20 28.5 -20 46.5z" />
    <glyph glyph-name="zero" unicode="0" 
d="M660 660c0 109.333 -11.666 212.334 -34.999 309.001c-35.333 146 -89.666 219 -162.999 219c-72.667 0 -126.667 -73.333 -162 -220c-24 -98.667 -36 -201.334 -36 -308.001c0 -108.667 11.667 -211.667 35 -309c35.333 -146 89.666 -219 162.999 -219
s127.666 73 162.999 219c23.333 97.333 35 200.333 35 309zM792.001 660.001c0 -157.333 -19.333 -293.333 -58 -408c-56.667 -168 -147.334 -252 -272.001 -252s-215.334 83.667 -272.001 251c-38.667 114.667 -58 251 -58 409s19.333 294.333 58 409
c56.667 167.333 147.334 251 272.001 251s215.334 -84 272.001 -252c38.667 -114.667 58 -250.667 58 -408z" />
    <glyph glyph-name="one" unicode="1" horiz-adv-x="660" 
d="M396 1095l-152 -152c-12.667 -12.667 -28 -19 -46 -19c-44 0 -66 22 -66 66c0 18 6.33301 33.333 19 46l258 258c17.333 17.333 35 26 53 26c44 0 66 -22 66 -66v-1188c0 -44 -22 -66 -66 -66s-66 22 -66 66v1029z" />
    <glyph glyph-name="two" unicode="2" 
d="M462 1320c91.333 0 169.168 -32.168 233.501 -96.501s96.5 -142.166 96.5 -233.499c0 -62.667 -20 -126 -60 -190l-416 -668h410c44 0 66 -22 66 -66s-22 -66 -66 -66h-528c-44 0 -66 22 -66 66c0 13.333 3.66699 26 11 38l484 777c22 35.333 33 71.666 33 108.999
c0 54.667 -19.333 101.334 -58 140.001s-85.334 58 -140.001 58c-74.667 0 -143.667 -55.333 -207 -166c-12 -21.333 -31 -32 -57 -32c-44 0 -66 22 -66 66c0 10 2 19 6 27c82 158 190 237 324 237z" />
    <glyph glyph-name="three" unicode="3" 
d="M462 660h-131.994c-44 0 -66 22 -66 66s22 66 66 66h132c55.333 0 102.166 19.167 140.499 57.5s57.5 85.166 57.5 140.499c0 54.667 -19.333 101.334 -58 140.001s-85.334 58 -140.001 58h-264c-44 0 -66 22 -66 66s22 66 66 66h264
c91.333 0 169.166 -32.333 233.499 -97s96.5 -142.334 96.5 -233.001c0 -109.333 -44 -197.333 -132 -264c88 -66.667 132 -154.667 132 -264v-132c0 -91.333 -32.333 -169.166 -97 -233.499s-142.334 -96.5 -233.001 -96.5h-264c-44 0 -66 22 -66 66s22 66 66 66h264
c55.333 0 102.166 19.167 140.499 57.5s57.5 85.166 57.5 140.499v132c0 54.667 -19.333 101.334 -58 140.001s-85.334 58 -140.001 58z" />
    <glyph glyph-name="four" unicode="4" horiz-adv-x="1056" 
d="M132 330c0 7.33301 0.667969 13.333 2.00098 18l264 924c9.33301 32 30.666 48 63.999 48c44 0 66 -22 66 -66c0 -6 -1 -12.333 -3 -19l-240 -839h309v198c0 44 22 66 66 66s66 -22 66 -66v-198h132c44 0 66 -22 66 -66s-22 -66 -66 -66h-132v-198c0 -44 -22 -66 -66 -66
s-66 22 -66 66v198h-396c-44 0 -66 22 -66 66z" />
    <glyph glyph-name="five" unicode="5" 
d="M132 726l0.00390625 528c0 44 22 66 66 66h462c44 0 66 -22 66 -66s-22 -66 -66 -66h-396v-396h198c91.333 0 169.166 -32.333 233.499 -97s96.5 -142.334 96.5 -233.001v-132c0 -91.333 -32.333 -169.166 -97 -233.499s-142.334 -96.5 -233.001 -96.5h-264
c-44 0 -66 22 -66 66s22 66 66 66h264c55.333 0 102.166 19.167 140.499 57.5s57.5 85.166 57.5 140.499v132c0 54.667 -19.333 101.334 -58 140.001s-85.334 58 -140.001 58h-264c-44 0 -66 22 -66 66z" />
    <glyph glyph-name="six" unicode="6" 
d="M264 660l0.00292969 -330.001c0 -55.333 19.167 -102.166 57.5 -140.499s85.166 -57.5 140.499 -57.5s102.166 19.333 140.499 58s57.5 85.334 57.5 140.001v132c0 55.333 -19.333 102.166 -58 140.499s-85.334 57.5 -140.001 57.5h-198zM594.003 1320
c44 0 66.001 -22 66.001 -66c0 -32.667 -11 -51.667 -33 -57c-98 -24.667 -183.667 -83.334 -257 -176.001c-58 -73.333 -91.667 -149.666 -101 -228.999h193c93.333 0 171.666 -32 234.999 -96s95 -142 95 -234v-132c0 -92 -32.167 -170 -96.5 -234
s-142.166 -96 -233.499 -96c-92 0 -170 31.833 -234 95.5s-96 141.167 -96 232.5v398c0 149.333 49.667 280.333 149 393c77.333 87.333 161.666 149.333 252.999 186c26 10 46 15 60 15z" />
    <glyph glyph-name="seven" unicode="7" 
d="M511 594h-49c-44 0 -66 22 -66 66s22 66 66 66h78l103 462h-445c-44 0 -66 22 -66 66s22 66 66 66h528c43.333 0 65.333 -21.333 66 -64c0 -4 -0.666992 -9.33301 -2 -16l-114 -514h50c44 0 66 -22 66 -66s-22 -66 -66 -66h-80l-120 -542c-8 -34.667 -29 -52 -63 -52
c-44.667 0 -67 22 -67 66c0 6.66699 0.333008 11.667 1 15z" />
    <glyph glyph-name="eight" unicode="8" 
d="M462 132c55.333 0 102.168 19.165 140.501 57.498s57.5 85.166 57.5 140.499v132c0 54.667 -19.333 101.334 -58 140.001s-85.334 58 -140.001 58c-55.333 0 -102.166 -19.167 -140.499 -57.5s-57.5 -85.166 -57.5 -140.499v-132
c0 -55.333 19.167 -102.166 57.5 -140.499s85.166 -57.5 140.499 -57.5zM462.002 -0.00195312c-91.333 0 -169.166 32.167 -233.499 96.5s-96.5 142.166 -96.5 233.499v132c0 109.333 44 197.333 132 264c-88 66.667 -132 154.667 -132 264
c0 91.333 32.167 169.166 96.5 233.499s142.166 96.5 233.499 96.5s169.166 -32.167 233.499 -96.5s96.5 -142.166 96.5 -233.499c0 -109.333 -44 -197.333 -132 -264c63.333 -48 103.333 -107 120 -177c8 -35.333 12 -108.333 12 -219
c0 -91.333 -32.167 -169.166 -96.5 -233.499s-142.166 -96.5 -233.499 -96.5zM462.002 791.998c55.333 0 102.168 19.165 140.501 57.498s57.5 85.166 57.5 140.499c0 54.667 -19.333 101.334 -58 140.001s-85.334 58 -140.001 58
c-55.333 0 -102.166 -19.167 -140.499 -57.5s-57.5 -85.166 -57.5 -140.499s19.167 -102.166 57.5 -140.499s85.166 -57.5 140.499 -57.5z" />
    <glyph glyph-name="nine" unicode="9" 
d="M660 660l0.00292969 329.999c0 54.667 -19.333 101.334 -58 140.001s-85.334 58 -140.001 58s-101.334 -19.333 -140.001 -58s-58 -85.334 -58 -140.001v-132c0 -55.333 19.167 -102.166 57.5 -140.499s85.166 -57.5 140.499 -57.5h198zM330.003 -0.000976562
c-17.333 0 -32.667 6.66992 -46 20.0029s-20 28.666 -20 45.999c0 30.667 11 49.667 33 57c48 16 88 34.333 120 55c142 92 221.333 208.667 238 350h-193c-91.333 0 -169.166 32.167 -233.499 96.5s-96.5 142.166 -96.5 233.499v132c0 91.333 32.167 169.166 96.5 233.499
s142.166 96.5 233.499 96.5c92 0 170 -31.833 234 -95.5s96 -141.167 96 -232.5v-398c0 -224 -104.333 -401 -313 -531c-67.333 -42 -117 -63 -149 -63z" />
    <glyph glyph-name="colon" unicode=":" horiz-adv-x="396" 
d="M132 198c0 44 22 66 66 66s66 -22 66 -66v-66c0 -44 -22 -66 -66 -66s-66 22 -66 66v66zM132 726c0 44 22 66 66 66s66 -22 66 -66v-66c0 -44 -22 -66 -66 -66s-66 22 -66 66v66z" />
    <glyph glyph-name="semicolon" unicode=";" horiz-adv-x="462" 
d="M198 594c0 44 22 66 66 66s66 -22 66 -66v-66c0 -44 -22 -66 -66 -66s-66 22 -66 66v66zM264 132c44 0 66 -21.666 66 -64.999c0 -6 -0.666992 -11.667 -2 -17l-66 -264c-8 -33.333 -29.333 -50 -64 -50c-44 0 -66 22 -66 66c0 5.33301 22.667 98.666 68 279.999
c8 33.333 29.333 50 64 50z" />
    <glyph glyph-name="less" unicode="&#x3c;" 
d="M386 462l363 -136c28.667 -10.667 43 -31.334 43 -62.001c0 -44 -22 -66 -66 -66c-8 0 -15.667 1.33301 -23 4l-528 198c-28.667 10.667 -43 31.334 -43 62.001s14.333 51.334 43 62.001l528 198c7.33301 2.66699 15 4 23 4c44 0 66 -22 66 -66
c0 -30.667 -14.333 -51.334 -43 -62.001z" />
    <glyph glyph-name="equal" unicode="=" 
d="M726 594h-528c-44 0 -66 22 -66 66s22 66 66 66h528c44 0 66 -22 66 -66s-22 -66 -66 -66zM726 198h-528c-44 0 -66 22 -66 66s22 66 66 66h528c44 0 66 -22 66 -66s-22 -66 -66 -66z" />
    <glyph glyph-name="greater" unicode="&#x3e;" 
d="M538 462l-363 136c-28.667 10.667 -43 31.334 -43 62.001c0 44 22 66 66 66c8 0 15.667 -1.33301 23 -4l528 -198c28.667 -10.667 43 -31.334 43 -62.001s-14.333 -51.334 -43 -62.001l-528 -198c-7.33301 -2.66699 -15 -4 -23 -4c-18 0 -33.5 6.5 -46.5 19.5
s-19.5 28.5 -19.5 46.5c0 30.667 14.333 51.334 43 62.001z" />
    <glyph glyph-name="question" unicode="?" 
d="M396 132c0 44 22 66 66 66s66 -22 66 -66v-66c0 -44 -22 -66 -66 -66s-66 22 -66 66v66zM528 1320c74 0 136.497 -25.498 187.497 -76.498s76.5 -113.5 76.5 -187.5s-26 -136.333 -78 -187l-165 -161c-14 -13.333 -21 -29.333 -21 -48v-198c0 -44 -22 -66 -66 -66
s-66 22 -66 66v198c0 55.333 21 103.333 63 144l164 160c24.667 24 37 54.667 37 92s-12.667 68.666 -38 93.999s-56.666 38 -93.999 38c-44 0 -88.667 -3.66699 -134 -11c-34.667 -5.33301 -91.667 -22 -171 -50c-9.33301 -3.33301 -17.666 -5 -24.999 -5
c-17.333 0 -32.666 6.66699 -45.999 20s-20 28.666 -20 45.999c0 28 13.333 48 40 60c107.333 48 226 72 356 72z" />
    <glyph glyph-name="at" unicode="@" horiz-adv-x="1452" 
d="M726 -396c-163.333 0 -303.169 58.1689 -419.502 174.502s-174.5 256.166 -174.5 419.499v528c0 164 58 304 174 420s256 174 420 174c164.667 0 304.834 -57.833 420.501 -173.5s173.5 -255.834 173.5 -420.501v-462c0 -71.333 -20 -132.333 -60 -183
c-42.667 -54 -99 -81 -169 -81c-84 0 -139.667 33 -167 99c-40 -66 -106 -99 -198 -99c-74 0 -136.5 25.5 -187.5 76.5s-76.5 113.5 -76.5 187.5v396c0 74 25.5 136.5 76.5 187.5s113.5 76.5 187.5 76.5h198c44 0 66 -22 66 -66v-594c0 -88 33 -132 99 -132
c32.667 0 58 14.333 76 43c15.333 24.667 23 54.334 23 89.001v462c0 128 -45 237 -135 327s-199 135 -327 135s-237 -45 -327 -135s-135 -199 -135 -327v-528c0 -126.667 45.333 -235.334 136 -326.001s199.334 -136 326.001 -136c44 0 66 -22 66 -66
c0 -18 -6.5 -33.5 -19.5 -46.5s-28.5 -19.5 -46.5 -19.5zM857.997 792.002h-132c-36.667 0 -67.834 -12.833 -93.501 -38.5s-38.5 -56.834 -38.5 -93.501v-396c0 -36 13 -67 39 -93s57 -39 93 -39c36.667 0 67.834 12.833 93.501 38.5s38.5 56.834 38.5 93.501v528z" />
    <glyph glyph-name="A" unicode="A" horiz-adv-x="1188" 
d="M594 1044l-194 -582h388zM1056 66c0 -44 -22 -66 -66 -66c-32 0 -53 15 -63 45l-95 285h-476l-95 -285c-10 -30 -31 -45 -63 -45c-44 0 -66 22 -66 66c0 8 1 15 3 21l393 1180c12 35.333 34 53 66 53s53.667 -17 65 -51l394 -1182c2 -6 3 -13 3 -21z" />
    <glyph glyph-name="B" unicode="B" horiz-adv-x="1056" 
d="M736 733c125.333 -74.667 187.998 -187 187.998 -337c0 -109.333 -38.667 -202.666 -116 -279.999s-170.666 -116 -279.999 -116h-330c-44 0 -66 22 -66 66v1188c0 44 22 66 66 66h330c92.667 0 170.834 -31.833 234.501 -95.5s95.5 -141.834 95.5 -234.501
c0 -105.333 -40.667 -191 -122 -257zM263.998 1188v-396.002h264c54.667 0 101.334 19.333 140.001 58s58 85.334 58 140.001s-19.333 101.334 -58 140.001s-85.334 58 -140.001 58h-264zM263.998 659.998v-528h264c74 0 136.5 25.5 187.5 76.5s76.5 113.5 76.5 187.5
s-25.5 136.5 -76.5 187.5s-113.5 76.5 -187.5 76.5h-264z" />
    <glyph glyph-name="C" unicode="C" 
d="M726 1320c44 0 65.998 -21.9961 65.998 -65.9961s-22 -66 -66 -66h-264c-55.333 0 -102.166 -19.333 -140.499 -58s-57.5 -85.334 -57.5 -140.001v-660c0 -54.667 19.333 -101.334 58 -140.001s85.334 -58 140.001 -58h264c44 0 66 -22 66 -66s-22 -66 -66 -66h-264
c-91.333 0 -169.166 32.167 -233.499 96.5s-96.5 142.166 -96.5 233.499v660c0 91.333 32.167 169.166 96.5 233.499s142.166 96.5 233.499 96.5h264z" />
    <glyph glyph-name="D" unicode="D" horiz-adv-x="1056" 
d="M132 1254c0 44 21.998 66 65.998 66h396c92.667 0 170.834 -31.833 234.501 -95.5s95.5 -141.834 95.5 -234.501v-660c0 -91.333 -32.167 -169.166 -96.5 -233.499s-142.166 -96.5 -233.499 -96.5h-396c-44 0 -66 22 -66 66v1188zM263.998 1188v-1056h330
c54.667 0 101.334 19.333 140.001 58s58 85.334 58 140.001v660c0 54.667 -19.333 101.334 -58 140.001s-85.334 58 -140.001 58h-330z" />
    <glyph glyph-name="E" unicode="E" 
d="M132 66v1188c0 44 22 66 66 66h528c44 0 66 -22 66 -66s-22 -66 -66 -66h-462v-396h330c44 0 66 -22 66 -66s-22 -66 -66 -66h-330v-528h462c44 0 66 -22 66 -66s-22 -66 -66 -66h-528c-44 0 -66 22 -66 66z" />
    <glyph glyph-name="F" unicode="F" 
d="M132 66v1188c0 44 22 66 66 66h528c44 0 66 -22 66 -66s-22 -66 -66 -66h-462v-396h462c44 0 66 -22 66 -66s-22 -66 -66 -66h-462v-594c0 -44 -22 -66 -66 -66s-66 22 -66 66z" />
    <glyph glyph-name="G" unicode="G" horiz-adv-x="1056" 
d="M462 132l330 0.00195312v528h-132c-44 0 -66 22 -66 66s22 66 66 66h198c44 0 66 -22 66 -66v-660c0 -44 -22 -66 -66 -66h-396c-91.333 0 -169.166 32.167 -233.499 96.5s-96.5 142.166 -96.5 233.499v660c0 91.333 32.167 169.166 96.5 233.499
s142.166 96.5 233.499 96.5h396c44 0 66 -22 66 -66s-22 -66 -66 -66h-396c-55.333 0 -102.166 -19.333 -140.499 -58s-57.5 -85.334 -57.5 -140.001v-660c0 -55.333 19.167 -102.166 57.5 -140.499s85.166 -57.5 140.499 -57.5z" />
    <glyph glyph-name="H" unicode="H" horiz-adv-x="1056" 
d="M132 66v1188c0 44 22 66 66 66s66 -22 66 -66v-462h528v462c0 44 22 66 66 66s66 -22 66 -66v-1188c0 -44 -22 -66 -66 -66s-66 22 -66 66v594h-528v-594c0 -44 -22 -66 -66 -66s-66 22 -66 66z" />
    <glyph glyph-name="I" unicode="I" horiz-adv-x="396" 
d="M198 0c-44 0 -66 22 -66 66v1188c0 44 22 66 66 66s66 -22 66 -66v-1188c0 -44 -22 -66 -66 -66z" />
    <glyph glyph-name="J" unicode="J" horiz-adv-x="792" 
d="M660 1254v-924.001c0 -92 -32.167 -170 -96.5 -234s-142.166 -96 -233.499 -96h-132c-44 0 -66 22 -66 66s22 66 66 66h132c55.333 0 102.166 19.333 140.499 58s57.5 85.334 57.5 140.001v924c0 44 22 66 66 66s66 -22 66 -66z" />
    <glyph glyph-name="K" unicode="K" horiz-adv-x="1056" 
d="M435 690l-170.998 -187.999v-436c0 -44 -22 -66 -66 -66s-66 22 -66 66v1188c0 44 22 66 66 66s66 -22 66 -66v-555l544 599c13.333 14.667 30 22 50 22c44 0 66 -22 66 -66c0 -16.667 -6 -31.667 -18 -45l-377 -415l386 -695c6 -10.667 9 -21.667 9 -33
c0 -16.667 -6.83301 -31.834 -20.5 -45.501s-28.834 -20.5 -45.501 -20.5c-26.667 0 -46.334 11.667 -59.001 35z" />
    <glyph glyph-name="L" unicode="L" 
d="M132 1254c0 44 22 66 66 66s66 -22 66 -66v-1122h462c44 0 66 -22 66 -66s-22 -66 -66 -66h-528c-44 0 -66 22 -66 66v1188z" />
    <glyph glyph-name="M" unicode="M" horiz-adv-x="1188" 
d="M990 1320c44 0 65.999 -22 65.999 -66v-1188c0 -44 -22 -66 -66 -66s-66 22 -66 66v971l-269 -403c-18 -26.667 -38.333 -40 -61 -40c-23.333 0 -44 13.333 -62 40l-268 403v-971c0 -44 -22 -66 -66 -66s-66 22 -66 66v1188c0 44 22 66 66 66c24 0 43.333 -11 58 -33
l338 -507l340 511c12.667 19.333 31.334 29 56.001 29z" />
    <glyph glyph-name="N" unicode="N" horiz-adv-x="1056" 
d="M792 321v933c0 44 22 66 66 66s66 -22 66 -66v-1188c0 -44 -22 -66 -66 -66c-26.667 0 -46 11 -58 33l-536 967v-934c0 -44 -22 -66 -66 -66s-66 22 -66 66v1188c0 44 22 66 66 66c26 0 46.333 -13 61 -39z" />
    <glyph glyph-name="O" unicode="O" horiz-adv-x="1056" 
d="M792 396v528c0 74 -25.5 136.5 -76.5 187.5s-113.5 76.5 -187.5 76.5s-136.5 -25.5 -187.5 -76.5s-76.5 -113.5 -76.5 -187.5v-528c0 -74 25.5 -136.5 76.5 -187.5s113.5 -76.5 187.5 -76.5s136.5 25.5 187.5 76.5s76.5 113.5 76.5 187.5zM924 396
c0 -109.333 -38.668 -202.665 -116.001 -279.998s-170.666 -116 -279.999 -116s-202.666 38.667 -279.999 116s-116 170.666 -116 279.999v528c0 109.333 38.667 202.666 116 279.999s170.666 116 279.999 116c110 0 203.5 -38.5 280.5 -115.5s115.5 -170.5 115.5 -280.5
v-528z" />
    <glyph glyph-name="P" unicode="P" horiz-adv-x="1056" 
d="M198 1320l329.999 -0.000976562c110 0 203.5 -38.5 280.5 -115.5s115.5 -170.5 115.5 -280.5c0 -117.333 -36.667 -212.666 -110 -285.999s-168.666 -110 -285.999 -110h-264v-462c0 -44 -22 -66 -66 -66s-66 22 -66 66v1188c0 44 22 66 66 66zM263.999 1188v-528h264
c74 0 136.5 25.5 187.5 76.5s76.5 113.5 76.5 187.5s-25.5 136.5 -76.5 187.5s-113.5 76.5 -187.5 76.5h-264z" />
    <glyph glyph-name="Q" unicode="Q" horiz-adv-x="1056" 
d="M733 228l-47 43.999c-16.667 18.667 -25 37.334 -25 56.001c0 44 22 66 66 66c18.667 0 39.334 -11.667 62.001 -35c2 12 3 24.333 3 37v528c0 74 -25.5 136.5 -76.5 187.5s-113.5 76.5 -187.5 76.5s-136.5 -25.5 -187.5 -76.5s-76.5 -113.5 -76.5 -187.5v-528
c0 -74 25.5 -136.5 76.5 -187.5s113.5 -76.5 187.5 -76.5c83.333 0 151.666 32 204.999 96zM825 134.999c-77.333 -90 -176.333 -134.998 -297 -134.998c-109.333 0 -202.666 38.667 -279.999 116s-116 170.666 -116 279.999v528c0 109.333 38.667 202.666 116 279.999
s170.666 116 279.999 116c110 0 203.5 -38.5 280.5 -115.5s115.5 -170.5 115.5 -280.5v-528c0 -48 -9 -96.333 -27 -145l137 -137c14.667 -14.667 22 -31 22 -49c0 -43.333 -22 -65 -66 -65c-20 0 -36.667 6.66699 -50 20z" />
    <glyph glyph-name="R" unicode="R" horiz-adv-x="1056" 
d="M686 556l229.999 -460.001c5.33301 -10.667 8 -20.667 8 -30c0 -17.333 -6.66699 -32.666 -20 -45.999s-28.666 -20 -45.999 -20c-28 -0 -48 12.333 -60 37l-246 492c-6 -0.666992 -14 -1 -24 -1h-264v-462c0 -44 -22 -66 -66 -66s-66 22 -66 66v1188c0 44 22 66 66 66
h330c110 0 203.5 -38.5 280.5 -115.5s115.5 -170.5 115.5 -280.5c0 -182 -79.333 -304.667 -238 -368zM263.999 1188v-528h264c74 0 136.5 25.5 187.5 76.5s76.5 113.5 76.5 187.5s-25.5 136.5 -76.5 187.5s-113.5 76.5 -187.5 76.5h-264z" />
    <glyph glyph-name="S" unicode="S" horiz-adv-x="1056" 
d="M924 330c0 -90.667 -32.335 -168.333 -97.002 -233s-142.334 -97 -233.001 -97c-162.667 0 -307 48 -433 144c-19.333 14.667 -29 32.667 -29 54c0 18 6.5 33.5 19.5 46.5s28.5 19.5 46.5 19.5c10.667 0 23.334 -4 38.001 -12c38.667 -23.333 99.334 -54 182.001 -92
c54 -18.667 112.667 -28 176 -28c54.667 0 101.334 19.333 140.001 58s58 85.334 58 140.001c0 80.667 -36.667 139.667 -110 177l-371 190c-119.333 61.333 -179 159 -179 293c0 90.667 32.333 168.334 97 233.001s142.334 97 233.001 97c156 0 275 -24 357 -72
c26 -15.333 39 -35.333 39 -60c0 -18 -6.5 -33.5 -19.5 -46.5s-28.5 -19.5 -46.5 -19.5c-6.66699 0 -16 2.33301 -28 7c-101.333 39.333 -202 59 -302 59c-54.667 0 -101.334 -19.333 -140.001 -58s-58 -85.334 -58 -140.001c0 -80.667 36 -139.334 108 -176.001l371 -190
c120.667 -62 181 -160 181 -294z" />
    <glyph glyph-name="T" unicode="T" horiz-adv-x="1056" 
d="M132 1254c0 44 22 66 66 66h660c44 0 66 -22 66 -66s-22 -66 -66 -66h-264v-1122c0 -44 -22 -66 -66 -66s-66 22 -66 66v1122h-264c-44 0 -66 22 -66 66z" />
    <glyph glyph-name="U" unicode="U" horiz-adv-x="1056" 
d="M924 1254l-0.00195312 -858c0 -109.333 -38.667 -202.666 -116 -279.999s-170.666 -116 -279.999 -116s-202.666 38.667 -279.999 116s-116 170.666 -116 279.999v858c0 44 22 66 66 66s66 -22 66 -66v-858c0 -74 25.5 -136.5 76.5 -187.5s113.5 -76.5 187.5 -76.5
s136.5 25.5 187.5 76.5s76.5 113.5 76.5 187.5v858c0 44 22 66 66 66s66 -22 66 -66z" />
    <glyph glyph-name="V" unicode="V" horiz-adv-x="1188" 
d="M594 0c-32 0 -53.667 17 -65 51l-394 1182c-2 6 -3 13 -3 21c0 44 22 66 66 66c32 0 53 -15 63 -45l333 -999l333 999c10 30 31 45 63 45c44 0 66 -22 66 -66c0 -8 -1 -15 -3 -21l-394 -1182c-11.333 -34 -33 -51 -65 -51z" />
    <glyph glyph-name="W" unicode="W" horiz-adv-x="1452" 
d="M977 314l212.001 954c8 34.667 29.667 52 65 52c44 0 66 -22 66 -66c0 -4 -0.666992 -9 -2 -15l-263 -1184c-8 -36.667 -29.667 -55 -65 -55c-31.333 0 -53.333 19 -66 57l-198 593l-197 -593c-12.667 -38 -35 -57 -67 -57c-34.667 0 -56.334 19 -65.001 57l-263 1182
c-1.33301 6 -2 11 -2 15c0 44 22 66 66 66c35.333 0 57 -17.333 65 -52l212 -956l186 557c12 36.667 33.667 55 65 55c32 0 54 -18.333 66 -55z" />
    <glyph glyph-name="X" unicode="X" horiz-adv-x="1188" 
d="M674 660l371 -557c7.33301 -11.333 11 -23.666 11 -36.999c0 -44 -22 -66 -66 -66c-24 0 -42.333 9.66699 -55 29l-341 512l-341 -512c-12.667 -19.333 -31 -29 -55 -29c-44 0 -66 22 -66 66c0 13.333 3.66699 25.666 11 36.999l371 557l-371 557
c-7.33301 11.333 -11 23.666 -11 36.999c0 44 22 66 66 66c24 0 42.333 -9.66699 55 -29l341 -511l341 511c12.667 19.333 31 29 55 29c44 0 66 -22 66 -66c0 -13.333 -3.66699 -25.666 -11 -36.999z" />
    <glyph glyph-name="Y" unicode="Y" horiz-adv-x="1188" 
d="M660 660v-594c0 -44 -22 -66 -66 -66s-66 22 -66 66v594l-384 556c-8 11.333 -12 24 -12 38c0 44 22 66 66 66c24 0 42.333 -9.33301 55 -28l341 -496l341 496c12.667 18.667 31 28 55 28c44 0 66 -22 66 -66c0 -14 -4 -26.667 -12 -38z" />
    <glyph glyph-name="Z" unicode="Z" horiz-adv-x="1056" 
d="M311 132l547 0.000976562c44 0 66 -22 66 -66s-22 -66 -66 -66h-660c-44 0 -66 22 -66 66c0 11.333 4.33301 24.666 13 39.999l601 1082h-548c-44 0 -66 22 -66 66s22 66 66 66h660c44 0 66 -21.667 66 -65c0 -12 -4.33301 -25.667 -13 -41z" />
    <glyph glyph-name="bracketleft" unicode="[" horiz-adv-x="528" 
d="M264 0h66c44 0 66 -22 66 -66s-22 -66 -66 -66h-132c-44 0 -66 22 -66 66v1452c0 44 22 66 66 66h132c44 0 66 -22 66 -66s-22 -66 -66 -66h-66v-1320z" />
    <glyph glyph-name="backslash" unicode="\" 
d="M726 0c-28.667 0 -48.667 13 -60 39l-528 1188c-4 9.33301 -6 18.666 -6 27.999c0 43.333 22.333 65 67 65c28 0 47.667 -13 59 -39l528 -1188c4 -9.33301 6 -18.666 6 -27.999c0 -18 -6.5 -33.333 -19.5 -46s-28.5 -19 -46.5 -19z" />
    <glyph glyph-name="bracketright" unicode="]" horiz-adv-x="528" 
d="M264 0v1320h-66c-44 0 -66 22 -66 66s22 66 66 66h132c44 0 66 -22 66 -66v-1452c0 -44 -22 -66 -66 -66h-132c-44 0 -66 22 -66 66s22 66 66 66h66z" />
    <glyph glyph-name="asciicircum" unicode="^" horiz-adv-x="792" 
d="M396 1621l-150 -150c-12.667 -12.667 -28.667 -19 -48 -19c-44 0 -66 22 -66 66c0 18 6.66699 33.667 20 47l186 186c20.667 20.667 40 31 58 31s37.333 -10.333 58 -31l186 -186c13.333 -13.333 20 -29 20 -47c0 -44 -22 -66 -66 -66c-19.333 0 -35.333 6.33301 -48 19z
" />
    <glyph glyph-name="underscore" unicode="_" horiz-adv-x="1188" 
d="M1386 -330c0 -44 -22 -66 -66 -66h-1452c-44 0 -66 22 -66 66s22 66 66 66h1452c44 0 66 -22 66 -66z" />
    <glyph glyph-name="grave" unicode="`" horiz-adv-x="660" 
d="M132 1716c0 44 22 66 66 66c15.333 0 28.666 -4.33301 39.999 -13l264 -198c17.333 -12.667 26 -30.334 26 -53.001c0 -44 -22 -66 -66 -66c-15.333 0 -28.666 4.33301 -39.999 13l-264 198c-17.333 12.667 -26 30.334 -26 53.001z" />
    <glyph glyph-name="a" unicode="a" 
d="M396 0c-74 0 -136.501 25.501 -187.501 76.501s-76.5 113.5 -76.5 187.5c0 48 11.667 92.333 35 133c50 87.333 126.333 131 229 131h264v132c0 37.333 -12.667 68.666 -38 93.999s-56.666 38 -93.999 38h-264c-44 0 -66 22 -66 66s22 66 66 66h264
c74 0 136.5 -25.5 187.5 -76.5s76.5 -113.5 76.5 -187.5v-594c0 -44 -22 -66 -66 -66h-330zM659.999 396.001l-263.999 0.000976562c-36.667 0 -67.834 -12.833 -93.501 -38.5s-38.5 -56.834 -38.5 -93.501c0 -36 13 -67 39 -93s57 -39 93 -39h264v264z" />
    <glyph glyph-name="b" unicode="b" 
d="M792 660v-396c0 -74 -25.5 -136.5 -76.5 -187.5s-113.5 -76.5 -187.5 -76.5h-330c-44 0 -66 22 -66 66v1188c0 44 22 66 66 66s66 -22 66 -66v-330h264c102.667 0 179 -43.667 229 -131c23.333 -40.667 35 -85 35 -133zM528 792h-264.002v-660h264
c36.667 0 67.834 12.833 93.501 38.5s38.5 56.834 38.5 93.501v396c0 37.333 -12.667 68.666 -38 93.999s-56.666 38 -93.999 38z" />
    <glyph glyph-name="c" unicode="c" horiz-adv-x="792" 
d="M264 660l0.000976562 -395.999c0 -36 13 -67 39 -93s57 -39 93 -39h198c44 0 66 -22 66 -66s-22 -66 -66 -66h-198c-74 0 -136.5 25.5 -187.5 76.5s-76.5 113.5 -76.5 187.5v396c0 74 25.5 136.5 76.5 187.5s113.5 76.5 187.5 76.5h198c44 0 66 -22 66 -66
s-22 -66 -66 -66h-198c-36.667 0 -67.834 -12.833 -93.501 -38.5s-38.5 -56.834 -38.5 -93.501z" />
    <glyph glyph-name="d" unicode="d" 
d="M132 660c0 48 11.667 92.333 35 133c50 87.333 126.333 131 229 131h264v330c0 44 22 66 66 66s66 -22 66 -66v-1188c0 -44 -22 -66 -66 -66h-330c-74 0 -136.5 25.5 -187.5 76.5s-76.5 113.5 -76.5 187.5v396zM396 792c-36.667 0 -67.833 -12.832 -93.5 -38.499
s-38.5 -56.834 -38.5 -93.501v-396c0 -36 13 -67 39 -93s57 -39 93 -39h264v660h-264z" />
    <glyph glyph-name="e" unicode="e" 
d="M462 792c-54.667 0 -101.332 -19.333 -139.999 -58s-58 -85.334 -58 -140.001v-66h396v66c0 54.667 -19.333 101.334 -58 140.001s-85.334 58 -140.001 58zM264.002 396v-131.998c0 -36 13 -67 39 -93s57 -39 93 -39h330c44 0 66 -22 66 -66s-22 -66 -66 -66h-330
c-74 0 -136.5 25.5 -187.5 76.5s-76.5 113.5 -76.5 187.5v330c0 91.333 32.167 169.166 96.5 233.499s142.166 96.5 233.499 96.5c92.667 0 170.834 -31.833 234.501 -95.5s95.5 -141.834 95.5 -234.501v-198h-528z" />
    <glyph glyph-name="f" unicode="f" horiz-adv-x="792" 
d="M198 924l66.002 0.000976562v132c0 74 25.667 136.5 77 187.5s113.666 76.5 186.999 76.5h66c44 0 66 -22 66 -66s-22 -66 -66 -66h-66c-36.667 0 -67.834 -12.833 -93.501 -38.5s-38.5 -56.834 -38.5 -93.501v-132h198c44 0 66 -22 66 -66s-22 -66 -66 -66h-198v-726
c0 -44 -22 -66 -66 -66s-66 22 -66 66v726h-66c-44 0 -66 22 -66 66s22 66 66 66z" />
    <glyph glyph-name="g" unicode="g" 
d="M726 924c44 0 65.999 -22.001 65.999 -66.001v-990c0 -74 -25.5 -136.5 -76.5 -187.5s-113.5 -76.5 -187.5 -76.5h-264c-44 0 -66 22 -66 66s22 66 66 66h264c36.667 0 67.834 12.833 93.501 38.5s38.5 56.834 38.5 93.501v132h-264c-102.667 0 -179 43.667 -229 131
c-23.333 40.667 -35 85 -35 133v396c0 74 25.5 136.5 76.5 187.5s113.5 76.5 187.5 76.5h330zM659.999 791.999l-263.999 0.000976562c-36.667 0 -67.834 -12.833 -93.501 -38.5s-38.5 -56.834 -38.5 -93.501v-396c0 -36 13 -67 39 -93s57 -39 93 -39h264v660z" />
    <glyph glyph-name="h" unicode="h" 
d="M132 1254c0 44 21.998 66.001 65.998 66.001s66 -22 66 -66v-330h264c72.667 0 134.834 -25.333 186.501 -76s77.5 -111.667 77.5 -183v-599c0 -44 -22 -66 -66 -66s-66 22 -66 66v594c0 37.333 -12.667 68.666 -38 93.999s-56.666 38 -93.999 38h-264v-726
c0 -44 -22 -66 -66 -66s-66 22 -66 66v1188z" />
    <glyph glyph-name="i" unicode="i" horiz-adv-x="396" 
d="M132 858c0 44 22 66 66 66s66 -22 66 -66v-792c0 -44 -22 -66 -66 -66s-66 22 -66 66v792zM132 1188v66c0 44 22 66 66 66s66 -22 66 -66v-66c0 -44 -22 -66 -66 -66s-66 22 -66 66z" />
    <glyph glyph-name="j" unicode="j" horiz-adv-x="396" 
d="M198 1320c44 0 66 -22 66 -66v-66c0 -44 -22 -66 -66 -66s-66 22 -66 66v66c0 44 22 66 66 66zM264 -132c0 -74 -25.499 -136.5 -76.499 -187.5s-113.5 -76.5 -187.5 -76.5h-66c-44 0 -66 22 -66 66s22 66 66 66h66c37.333 0 68.666 13 93.999 39s38 57 38 93v990
c0 44 22 66 66 66s66 -22 66 -66v-990zM528.001 1320z" />
    <glyph glyph-name="k" unicode="k" 
d="M264 429l0.000976562 -362.999c0 -44 -22 -66 -66 -66s-66 22 -66 66v1188c0 44 22 66 66 66s66 -22 66 -66v-659l422 316c11.333 8.66699 24.666 13 39.999 13c44 0 66 -22 66 -66c0 -22.667 -8.66699 -40.334 -26 -53.001l-256 -192l275 -516
c4.66699 -8.66699 7 -19 7 -31c0 -18 -6.5 -33.5 -19.5 -46.5s-28.5 -19.5 -46.5 -19.5c-26 0 -45.333 11.667 -58 35l-265 497z" />
    <glyph glyph-name="l" unicode="l" horiz-adv-x="528" 
d="M132 1254c0 44 21.999 66 65.999 66s66 -22 66 -66v-1056c0 -34 22 -56 66 -66s66 -32 66 -66c0 -44 -22 -66 -66 -66c-59.333 0 -107.166 17.5 -143.499 52.5s-54.5 83.5 -54.5 145.5v1056z" />
    <glyph glyph-name="m" unicode="m" horiz-adv-x="1188" 
d="M198 924l593.999 0.000976562c74 0 136.5 -25.5 187.5 -76.5s76.5 -113.5 76.5 -187.5v-594c0 -44 -22 -66 -66 -66s-66 22 -66 66v594c0 37.333 -12.667 68.666 -38 93.999s-56.666 38 -93.999 38h-132v-726c0 -44 -22 -66 -66 -66s-66 22 -66 66v726h-264v-726
c0 -44 -22 -66 -66 -66s-66 22 -66 66v792c0 44 22 66 66 66z" />
    <glyph glyph-name="n" unicode="n" 
d="M132 66l-0.000976562 792.001c0 44 22 66 66 66h330c74 0 136.5 -25.5 187.5 -76.5s76.5 -113.5 76.5 -187.5v-594c0 -44 -22 -66 -66 -66s-66 22 -66 66v594c0 37.333 -12.667 68.666 -38 93.999s-56.666 38 -93.999 38h-264v-726c0 -44 -22 -66 -66 -66s-66 22 -66 66z
" />
    <glyph glyph-name="o" unicode="o" 
d="M132 330l-0.00195312 264.002c0 91.333 32.167 169.166 96.5 233.499s142.166 96.5 233.499 96.5c92.667 0 170.834 -31.833 234.501 -95.5s95.5 -141.834 95.5 -234.501v-264c0 -91.333 -32.167 -169.166 -96.5 -233.499s-142.166 -96.5 -233.499 -96.5
s-169.166 32.167 -233.499 96.5s-96.5 142.166 -96.5 233.499zM659.998 330.002l0.00195312 263.998c0 54.667 -19.333 101.334 -58 140.001s-85.334 58 -140.001 58s-101.334 -19.333 -140.001 -58s-58 -85.334 -58 -140.001v-264c0 -55.333 19.167 -102.166 57.5 -140.499
s85.166 -57.5 140.499 -57.5c54.667 0 101.334 19.333 140.001 58s58 85.334 58 140.001z" />
    <glyph glyph-name="p" unicode="p" 
d="M132 858c0 44 22 65.999 66 65.999h330c74 0 136.5 -25.5 187.5 -76.5s76.5 -113.5 76.5 -187.5v-396c0 -73.333 -25.5 -135.666 -76.5 -186.999s-113.5 -77 -187.5 -77h-264v-330c0 -44 -22 -66 -66 -66s-66 22 -66 66v1188zM264 791.999l-0.00195312 -660h264
c36.667 0 67.834 12.833 93.501 38.5s38.5 56.834 38.5 93.501v396c0 37.333 -12.667 68.666 -38 93.999s-56.666 38 -93.999 38h-264z" />
    <glyph glyph-name="q" unicode="q" 
d="M792 858v-1188c0 -44 -22 -66 -66 -66s-66 22 -66 66v330h-264c-74 0 -136.5 25.667 -187.5 77s-76.5 113.666 -76.5 186.999v396c0 74 25.5 136.5 76.5 187.5s113.5 76.5 187.5 76.5h330c44 0 66 -22 66 -66zM660 792.001l-263.999 0.000976562
c-36.667 0 -67.834 -12.833 -93.501 -38.5s-38.5 -56.834 -38.5 -93.501v-396c0 -36 13 -67 39 -93s57 -39 93 -39h264v660z" />
    <glyph glyph-name="r" unicode="r" horiz-adv-x="792" 
d="M132 858c0 44 22 66 66 66h396c44 0 66 -22 66 -66v-132c0 -44 -22 -66 -66 -66s-66 22 -66 66v66h-264v-726c0 -44 -22 -66 -66 -66s-66 22 -66 66v792z" />
    <glyph glyph-name="s" unicode="s" 
d="M660 231c0 42 -18.666 71.998 -55.999 89.998l-339 163c-88.667 42.667 -133 112.334 -133 209.001c0 76 31.333 134.667 94 176c54 36 121.333 54 202 54c98 0 185.667 -24.333 263 -73c23.333 -14.667 35 -34 35 -58c0 -18 -6.5 -33.5 -19.5 -46.5
s-28.5 -19.5 -46.5 -19.5c-12 0 -22.333 2.66699 -31 8c-63.333 38 -130.333 57 -201 57c-109.333 0 -164 -32.667 -164 -98c0 -41.333 18 -70.666 54 -87.999l342 -165c88 -42.667 132 -112.334 132 -209.001c0 -80 -31.667 -140 -95 -180c-54 -34 -123.667 -51 -209 -51
c-126.667 0 -233 24.333 -319 73c-24.667 14 -37 33.667 -37 59c0 18 6.5 33.5 19.5 46.5s28.5 19.5 46.5 19.5c8.66699 0 17 -1.66699 25 -5c21.333 -9.33301 52.666 -21.666 93.999 -36.999c60 -16 118.333 -24 175 -24c112 0 168 33 168 99z" />
    <glyph glyph-name="t" unicode="t" horiz-adv-x="792" 
d="M264 792h-66c-44 0 -66 22 -66 66s22 66 66 66h66v330c0 44 22 66 66 66s66 -22 66 -66v-330h198c44 0 66 -22 66 -66s-22 -66 -66 -66h-198v-726c0 -44 -22 -66 -66 -66s-66 22 -66 66v726z" />
    <glyph glyph-name="u" unicode="u" 
d="M792 858v-792c0 -44 -22 -66 -66 -66h-330c-74 0 -136.5 25.5 -187.5 76.5s-76.5 113.5 -76.5 187.5v594c0 44 22 66 66 66s66 -22 66 -66v-594c0 -36 13 -67 39 -93s57 -39 93 -39h264v726c0 44 22 66 66 66s66 -22 66 -66z" />
    <glyph glyph-name="v" unicode="v" 
d="M462 276l200 603c10 30 31 45 63 45c44.667 0 67 -21.667 67 -65c0 -6.66699 -1.33301 -14 -4 -22l-260 -782c-12 -36.667 -34 -55 -66 -55s-54 18 -66 54l-260 783c-2.66699 8 -4 15.333 -4 22c0 18 6.5 33.333 19.5 46s28.5 19 46.5 19c32 0 53 -15 63 -45z" />
    <glyph glyph-name="w" unicode="w" horiz-adv-x="1188" 
d="M792 0c-30.667 0 -52 15.999 -64 47.999l-134 359l-134 -357c-12.667 -33.333 -34 -50 -64 -50c-34.667 0 -57 20.667 -67 62l-195 780c-1.33301 5.33301 -2 11.666 -2 18.999c0 42 22 63 66 63c34.667 0 56 -16.667 64 -50l146 -585l123 328
c10.667 28.667 31.667 43 63 43c30.667 0 51.334 -14.333 62.001 -43l123 -329l147 586c8.66699 33.333 30 50 64 50c17.333 0 32.666 -6.16699 45.999 -18.5s20 -27.166 20 -44.499c0 -7.33301 -0.666992 -13.666 -2 -18.999l-196 -784
c-9.33301 -38.667 -31.333 -58 -66 -58z" />
    <glyph glyph-name="x" unicode="x" 
d="M542 462l239 -358.999c7.33301 -11.333 11 -23.666 11 -36.999c0 -44 -22 -66 -66 -66c-24 0 -42.333 9.66699 -55 29l-209 314l-209 -314c-12.667 -19.333 -31 -29 -55 -29c-18 0 -33.5 6.5 -46.5 19.5s-19.5 28.5 -19.5 46.5c0 13.333 3.66699 25.666 11 36.999
l239 359l-239 359c-7.33301 11.333 -11 23.666 -11 36.999c0 44 22 66 66 66c24 0 42.333 -9.66699 55 -29l209 -313l209 313c12.667 19.333 31 29 55 29c44 0 66 -21.667 66 -65c0 -14 -3.66699 -26.667 -11 -38z" />
    <glyph glyph-name="y" unicode="y" 
d="M282 -264l110 330.001l-256 771c-2.66699 8 -4 15 -4 21c0 44 22 66 66 66c32 0 53 -15 63 -45l201 -603l201 603c10 30 31 45 63 45c44 0 66 -22 66 -66c0 -6 -1.33301 -13 -4 -21l-395 -1188c-10 -30 -31 -45 -63 -45h-133c-44 0 -66 22 -66 66
c0 35.333 18.333 56.666 55 63.999c6 1.33301 38 2 96 2z" />
    <glyph glyph-name="z" unicode="z" 
d="M602 792h-404c-44 0 -66 22 -66 66s22 66 66 66h528c44 0 66 -22.333 66 -67c0 -12.667 -4.33301 -25.667 -13 -39l-457 -686h404c44 0 66 -22 66 -66s-22 -66 -66 -66h-528c-44 0 -66 21.667 -66 65c0 14 4.33301 27.667 13 41z" />
    <glyph glyph-name="braceleft" unicode="{" horiz-adv-x="660" 
d="M396 66c0 -34 21.998 -55.998 65.998 -65.998s66 -32 66 -66c0 -44 -22 -66 -66 -66c-55.333 0 -102.166 19.167 -140.499 57.5s-57.5 85.166 -57.5 140.499v462c0 34 -22 56 -66 66s-66 32 -66 66s22 56 66 66s66 32 66 66v462c0 55.333 19.333 102.166 58 140.499
s85.334 57.5 140.001 57.5c44 0 66 -22 66 -66c0 -34 -22 -56 -66 -66s-66 -32 -66 -66v-462c0 -72.667 -22 -116.667 -66 -132c20 -6 36.667 -24.667 50 -56c10.667 -26.667 16 -52 16 -76v-462z" />
    <glyph glyph-name="bar" unicode="|" horiz-adv-x="396" 
d="M198 -528c-44 0 -66 22 -66 66v2376c0 44 22 66 66 66s66 -22 66 -66v-2376c0 -44 -22 -66 -66 -66z" />
    <glyph glyph-name="braceright" unicode="}" horiz-adv-x="660" 
d="M264 1254c0 34 -21.998 55.998 -65.998 65.998s-66 32 -66 66c0 44 22 66 66 66c55.333 0 102.166 -19.167 140.499 -57.5s57.5 -85.166 57.5 -140.499v-462c0 -34 22 -56 66 -66s66 -32 66 -66s-22 -56 -66 -66s-66 -32 -66 -66v-462
c0 -55.333 -19.333 -102.166 -58 -140.499s-85.334 -57.5 -140.001 -57.5c-44 0 -66 22 -66 66c0 34 22 56 66 66s66 32 66 66v462c0 72.667 22 116.667 66 132c-20 6 -36.667 24.667 -50 56c-10.667 26.667 -16 52 -16 76v462z" />
    <glyph glyph-name="asciitilde" unicode="~" 
d="M594 264c-47.333 0 -98.6689 22.001 -154.002 66.001s-92 66 -110 66c-17.333 0 -39.166 -11 -65.499 -33s-48.5 -33 -66.5 -33c-17.333 0 -32.666 6.66699 -45.999 20s-20 28.666 -20 45.999c0 22 9 39.667 27 53c42 31.333 68.333 50 79 56c28 15.333 58.667 23 92 23
c46 0 97.167 -22 153.5 -66s93.166 -66 110.499 -66c18 0 40.333 11 67 33s48.334 33 65.001 33c44 0 66 -22 66 -66c0 -20 -9 -38 -27 -54l-52 -38c-36 -26.667 -75.667 -40 -119 -40z" />
    <glyph glyph-name="c128" horiz-adv-x="1452" 
d="M1214 218c14 9.33301 28.335 14 43.002 14c17.333 0 32.166 -6.5 44.499 -19.5s18.5 -28.167 18.5 -45.5c0 -24 -8.66699 -42 -26 -54c-108.667 -75.333 -232 -113 -370 -113c-197.333 -0 -362 74.333 -494 223c-62 70 -107.333 149.667 -136 239h-96
c-44 0 -66 22 -66 66s22 66 66 66h69c-2 19.333 -3 41.333 -3 66c0 22 1 44 3 66h-69c-44 0 -66 22 -66 66s22 66 66 66h96c43.333 138.667 123.166 250.334 239.499 335.001s246.5 127 390.5 127c155.333 0 293.666 -49 414.999 -147c15.333 -12.667 23 -28 23 -46
s-6.33301 -34.167 -19 -48.5s-28 -21.5 -46 -21.5c-16 0 -31.333 6 -46 18c-93.333 75.333 -202.333 113 -327 113c-108 0 -206.333 -29.833 -295 -89.5s-153.667 -139.834 -195 -240.501h729c44 0 66 -22 66 -66s-22 -66 -66 -66h-763c-2.66699 -18.667 -4 -40.667 -4 -66
c0 -24.667 1.33301 -46.667 4 -66h659c44 0 66 -22 66 -66s-22 -66 -66 -66h-625c54.667 -134.667 149 -230.667 283 -288c65.333 -28 134.333 -42 207 -42c106.667 0 203.334 28.667 290.001 86z" />
    <glyph glyph-name="nonbreakingspace" unicode="&#xa0;" horiz-adv-x="792" 
 />
    <glyph glyph-name="exclamdown" unicode="&#xa1;" horiz-adv-x="396" 
d="M132 858c0 44 22 66 66 66s66 -22 66 -66v-792c0 -44 -22 -66 -66 -66s-66 22 -66 66v792zM132 1188v66c0 44 22 66 66 66s66 -22 66 -66v-66c0 -44 -22 -66 -66 -66s-66 22 -66 66z" />
    <glyph glyph-name="cent" unicode="&#xa2;" 
d="M462 0h-66c-74 0 -136.5 25.5 -187.5 76.5s-76.5 113.5 -76.5 187.5v396c0 74 25.5 136.5 76.5 187.5s113.5 76.5 187.5 76.5h66v132c0 44 22 66 66 66s66 -22 66 -66v-132h132c44 0 66 -22 66 -66s-22 -66 -66 -66h-132v-660h132c44 0 66 -22 66 -66s-22 -66 -66 -66
h-132v-132c0 -44 -22 -66 -66 -66s-66 22 -66 66v132zM462 132l0.000976562 660.001h-66c-36.667 0 -67.834 -12.833 -93.501 -38.5s-38.5 -56.834 -38.5 -93.501v-396c0 -36 13 -67 39 -93s57 -39 93 -39h66z" />
    <glyph glyph-name="sterling" unicode="&#xa3;" horiz-adv-x="1188" 
d="M330 594h-132c-44 0 -66 22 -66 66s22 66 66 66h132v264c0 91.333 32.167 169.166 96.5 233.499s142.166 96.5 233.499 96.5c92.667 0 170.834 -31.833 234.501 -95.5s95.5 -141.834 95.5 -234.501c0 -44 -22 -66 -66 -66s-66 22 -66 66
c0 54.667 -19.333 101.334 -58 140.001s-85.334 58 -140.001 58s-101.334 -19.333 -140.001 -58s-58 -85.334 -58 -140.001v-264h198c44 0 66 -22 66 -66s-22 -66 -66 -66h-198v-330c0 -59.333 -18.667 -103.333 -56 -132h386c36.667 0 67.834 12.833 93.501 38.5
s38.5 56.834 38.5 93.501c0 44 22 66 66 66s66 -22 66 -66c0 -74 -25.5 -136.5 -76.5 -187.5s-113.5 -76.5 -187.5 -76.5h-594c-44 0 -66 22 -66 66s22 66 66 66c36.667 0 67.834 12.833 93.501 38.5s38.5 56.834 38.5 93.501v330z" />
    <glyph glyph-name="currency" unicode="&#xa4;" horiz-adv-x="1188" 
d="M594 990c-91.333 0 -169.164 -32.1689 -233.497 -96.502s-96.5 -142.166 -96.5 -233.499s32.167 -169.166 96.5 -233.499s142.166 -96.5 233.499 -96.5s169.166 32.167 233.499 96.5s96.5 142.166 96.5 233.499c0 92.667 -31.833 170.834 -95.5 234.501
s-141.834 95.5 -234.501 95.5zM318.002 289.998l-73 -73c-12.667 -12.667 -28.334 -19 -47.001 -19c-44 0 -66 22 -66 66c0 18.667 6.33301 34.334 19 47.001l73 73c-61.333 80.667 -92 172.667 -92 276c0 102 30.667 194.333 92 277l-73 72
c-12.667 12.667 -19 28.334 -19 47.001c0 44 22 66 66 66c18.667 0 34.334 -6.33301 47.001 -19l73 -73c80.667 61.333 172.667 92 276 92c100.667 0 193 -30.333 277 -91l72 72c12.667 12.667 28.334 19 47.001 19c44 0 66 -22 66 -66
c0 -18.667 -6.33301 -34.334 -19 -47.001l-73 -73c61.333 -80.667 92 -172.667 92 -276c0 -100.667 -30.333 -192.667 -91 -276l72 -73c12.667 -12.667 19 -28.334 19 -47.001c0 -44 -22 -66 -66 -66c-18.667 0 -34.334 6.33301 -47.001 19l-73 73
c-80.667 -61.333 -172.667 -92 -276 -92c-102.667 0 -194.667 30.667 -276 92z" />
    <glyph glyph-name="yen" unicode="&#xa5;" horiz-adv-x="1188" 
d="M525 330h-327c-44 0 -66 22 -66 66s22 66 66 66h327v198h-327c-44 0 -66 22 -66 66s22 66 66 66h239l-293 424c-8 11.333 -12 24 -12 38c0 44 22 66 66 66c24 0 42.333 -9.33301 55 -28l338 -496l344 496c12.667 18.667 31 28 55 28c18 0 33.5 -6.5 46.5 -19.5
s19.5 -28.5 19.5 -46.5c0 -14 -4 -26.667 -12 -38l-293 -424h239c44 0 66 -22 66 -66s-22 -66 -66 -66h-333v-198h333c44 0 66 -22 66 -66s-22 -66 -66 -66h-333v-264c0 -44 -22 -66 -66 -66s-66 22 -66 66v264z" />
    <glyph glyph-name="brokenbar" unicode="&#xa6;" horiz-adv-x="396" 
d="M198 726c-44 0 -66 22 -66 66v462c0 44 22 66 66 66s66 -22 66 -66v-462c0 -44 -22 -66 -66 -66zM198 0c-44 0 -66 22 -66 66v462c0 44 22 66 66 66s66 -22 66 -66v-462c0 -44 -22 -66 -66 -66z" />
    <glyph glyph-name="section" unicode="&#xa7;" horiz-adv-x="792" 
d="M396 792c-36.667 0 -67.835 -12.832 -93.502 -38.499s-38.5 -56.834 -38.5 -93.501c0 -36 13 -67 39 -93s57 -39 93 -39c36.667 0 67.834 12.833 93.501 38.5s38.5 56.834 38.5 93.501c0 37.333 -12.667 68.666 -38 93.999s-56.666 38 -93.999 38zM131.999 660.001
c0 79.333 29.999 145.334 89.999 198.001c-60 53.333 -90 119.333 -90 198c0 73.333 25.667 135.666 77 186.999s113.666 77 186.999 77c54 0 104.667 -16.333 152 -49s79.666 -74.667 96.999 -126c2.66699 -8 4 -15.667 4 -23c0 -18 -6.5 -33.5 -19.5 -46.5
s-28.5 -19.5 -46.5 -19.5c-23.333 0 -48 22 -74 66s-63.667 66 -113 66c-36.667 0 -67.834 -12.833 -93.501 -38.5s-38.5 -56.834 -38.5 -93.501c0 -36 13 -67 39 -93s57 -39 93 -39c48 0 92.333 -11.667 133 -35c87.333 -52 131 -128.333 131 -229
c0 -80 -30.333 -146 -91 -198c60.667 -52 91 -118 91 -198c0 -73.333 -25.667 -135.666 -77 -186.999s-113.666 -77 -186.999 -77c-54.667 0 -104.667 16.333 -150 49s-78.333 75 -99 127c-2.66699 6.66699 -4 14 -4 22c0 18 6.5 33.5 19.5 46.5s28.5 19.5 46.5 19.5
c29.333 0 50 -14.333 62 -43c24.667 -59.333 66.334 -89 125.001 -89c36.667 0 67.834 12.833 93.501 38.5s38.5 56.834 38.5 93.501c0 37.333 -12.667 68.666 -38 93.999s-56.666 38 -93.999 38c-48 0 -92 12 -132 36c-88 51.333 -132 127.333 -132 228z" />
    <glyph glyph-name="dieresis" unicode="&#xa8;" horiz-adv-x="792" 
d="M132 1584v66c0 44 22 66 66 66s66 -22 66 -66v-66c0 -44 -22 -66 -66 -66s-66 22 -66 66zM528 1584v66c0 44 22 66 66 66s66 -22 66 -66v-66c0 -44 -22 -66 -66 -66s-66 22 -66 66z" />
    <glyph glyph-name="copyright" unicode="&#xa9;" horiz-adv-x="1452" 
d="M726 1320c164.667 0 304.832 -57.8311 420.499 -173.498s173.5 -255.834 173.5 -420.501c0 -164 -58 -304 -174 -420s-256 -174 -420 -174c-163.333 0 -303.166 58.167 -419.499 174.5s-174.5 256.166 -174.5 419.499c0 164 58 304 174 420s256 174 420 174z
M725.998 1188c-128 0 -237.001 -44.999 -327.001 -134.999s-135 -199 -135 -327c0 -126.667 45.333 -235.334 136 -326.001s199.334 -136 326.001 -136c128 0 237 45 327 135s135 199 135 327s-45 237 -135 327s-199 135 -327 135zM857.997 924.003l-131.998 0.00195312
c-36.667 0 -67.834 -12.833 -93.501 -38.5s-38.5 -56.834 -38.5 -93.501v-132c0 -36 13 -67 39 -93s57 -39 93 -39h132c44 0 66 -22 66 -66s-22 -66 -66 -66h-132c-74 0 -136.5 25.667 -187.5 77s-76.5 113.666 -76.5 186.999v132c0 74 25.667 136.5 77 187.5
s113.666 76.5 186.999 76.5h132c44 0 66 -22 66 -66s-22 -66 -66 -66z" />
    <glyph glyph-name="ordfeminine" unicode="&#xaa;" 
d="M396 528c-176 0 -264.001 77.001 -264.001 231.001s88 231 264 231h264v66c0 37.333 -12.667 68.666 -38 93.999s-56.666 38 -93.999 38h-264c-44 0 -66 22 -66 66s22 66 66 66h264c74 0 136.5 -25.5 187.5 -76.5s76.5 -113.5 76.5 -187.5v-462c0 -44 -22 -66 -66 -66
h-330zM659.999 858.001h-264c-88 0 -132 -33 -132 -99s44 -99 132 -99h264v198zM725.999 198.001h-528c-44 0 -66 22 -66 66s22 66 66 66h528c44 0 66 -22 66 -66s-22 -66 -66 -66z" />
    <glyph glyph-name="guillemotleft" unicode="&#xab;" horiz-adv-x="1056" 
d="M132 462c0 16.667 6 32.333 18 47l260 325c12.667 16 30 24 52 24c44 0 66 -22 66 -66c0 -14 -5 -27.333 -15 -40l-231 -289l231 -289c10 -12.667 15 -26.667 15 -42c0 -18 -6.33301 -33.5 -19 -46.5s-28 -19.5 -46 -19.5c-22 0 -39.667 8.33301 -53 25l-259 325
c-12.667 16 -19 31.333 -19 46zM528 461.999c0 16.667 6 32.333 18 47l260 325c12.667 16 30 24 52 24c44 0 66 -22 66 -66c0 -14 -5 -27.333 -15 -40l-231 -289l231 -289c10 -12.667 15 -26.667 15 -42c0 -18 -6.33301 -33.5 -19 -46.5s-28 -19.5 -46 -19.5
c-22 0 -39.667 8.33301 -53 25l-259 325c-12.667 16 -19 31.333 -19 46z" />
    <glyph glyph-name="logicalnot" unicode="&#xac;" horiz-adv-x="1056" 
d="M792 660h-594c-44 0 -66 22 -66 66s22 66 66 66h660c44 0 66 -22 66 -66v-396c0 -44 -22 -66 -66 -66s-66 22 -66 66v330z" />
    <glyph glyph-name="sfthyphen" unicode="&#xad;" 
d="M726 528h-528c-44 0 -66 22 -66 66s22 66 66 66h528c44 0 66 -22 66 -66s-22 -66 -66 -66z" />
    <glyph glyph-name="registered" unicode="&#xae;" horiz-adv-x="1452" 
d="M726 1320c164.667 0 304.832 -57.8311 420.499 -173.498s173.5 -255.834 173.5 -420.501c0 -164 -58 -304 -174 -420s-256 -174 -420 -174c-163.333 0 -303.166 58.167 -419.499 174.5s-174.5 256.166 -174.5 419.499c0 164 58 304 174 420s256 174 420 174z
M725.998 1188c-128 0 -237.001 -44.999 -327.001 -134.999s-135 -199 -135 -327c0 -126.667 45.333 -235.334 136 -326.001s199.334 -136 326.001 -136c128 0 237 45 327 135s135 199 135 327s-45 237 -135 327s-199 135 -327 135zM593.997 1056l131.998 0.000976562
c54.667 0 101.334 -19.333 140.001 -58s58 -85.334 58 -140.001c0 -37.333 -9.33301 -72 -28 -104c-19.333 -34 -45.666 -57.333 -78.999 -70l101 -195c4 -8 6 -17 6 -27c0 -44 -22 -66 -66 -66c-27.333 0 -47.333 13 -60 39l-112 225h-26v-198c0 -44 -22 -66 -66 -66
s-66 22 -66 66v528c0 44 22 66 66 66zM659.995 924.004v-132h66c44 0 66 22 66 66s-22 66 -66 66h-66z" />
    <glyph glyph-name="overscore" unicode="&#xaf;" horiz-adv-x="792" 
d="M792 1584h-792c-44 0 -66 22 -66 66s22 66 66 66h792c44 0 66 -22 66 -66s-22 -66 -66 -66z" />
    <glyph glyph-name="degree" unicode="&#xb0;" horiz-adv-x="792" 
d="M396 1189c-36.667 0 -67.835 -12.832 -93.502 -38.499s-38.5 -56.834 -38.5 -93.501c0 -36 13 -67 39 -93s57 -39 93 -39c36.667 0 67.834 12.833 93.501 38.5s38.5 56.834 38.5 93.501c0 37.333 -12.667 68.666 -38 93.999s-56.666 38 -93.999 38zM395.999 1321
c73.333 0 135.666 -25.667 186.999 -77s77 -113.666 77 -186.999s-25.667 -135.666 -77 -186.999s-113.666 -77 -186.999 -77s-135.666 25.667 -186.999 77s-77 113.666 -77 186.999s25.667 135.666 77 186.999s113.666 77 186.999 77z" />
    <glyph glyph-name="plusminus" unicode="&#xb1;" 
d="M396 528h-198c-44 0 -66 22 -66 66s22 66 66 66h198v198c0 44 22 66 66 66s66 -22 66 -66v-198h198c44 0 66 -22 66 -66s-22 -66 -66 -66h-198v-198c0 -44 -22 -66 -66 -66s-66 22 -66 66v198zM726 0h-528c-44 0 -66 22 -66 66s22 66 66 66h528c44 0 66 -22 66 -66
s-22 -66 -66 -66z" />
    <glyph glyph-name="twosuperior" unicode="&#xb2;" horiz-adv-x="792" 
d="M360 1056l233.999 -0.000976562c44 0 66 -22 66 -66s-22 -66 -66 -66h-396c-44 0 -66 22 -66 66c0 17.333 14 39.333 42 66l294 283c40 38.667 60 76.334 60 113.001c0 37.333 -12.667 68.666 -38 93.999s-56.666 38 -93.999 38c-60.667 0 -102 -28.667 -124 -86
c-12 -30.667 -33 -46 -63 -46c-17.333 0 -32.666 6.66699 -45.999 20s-20 28.666 -20 45.999c0 6 1.66699 14 5 24c18 52.667 49.833 94.834 95.5 126.501s96.5 47.5 152.5 47.5c73.333 0 135.666 -25.667 186.999 -77s77 -113.666 77 -186.999
c0 -74.667 -26.333 -137 -79 -187z" />
    <glyph glyph-name="threesuperior" unicode="&#xb3;" horiz-adv-x="726" 
d="M330 1320h-66.002c-44 0 -66 22 -66 66s22 66 66 66h66c18 0 33.5 6.5 46.5 19.5s19.5 28.5 19.5 46.5c0 44 -22 66 -66 66h-132c-44 0 -66 22 -66 66s22 66 66 66h132c54.667 0 101.334 -19.333 140.001 -58s58 -85.334 58 -140.001c0 -44 -13.333 -83.667 -40 -119
c70.667 -50.667 106 -121 106 -211c0 -73.333 -25.833 -135.666 -77.5 -186.999s-113.834 -77 -186.501 -77h-132c-44 0 -66 22 -66 66s22 66 66 66h132c36.667 0 67.834 12.833 93.501 38.5s38.5 56.834 38.5 93.501c0 37.333 -12.667 68.666 -38 93.999
s-56.666 38 -93.999 38z" />
    <glyph glyph-name="acute" unicode="&#xb4;" horiz-adv-x="660" 
d="M198 1452c-44 0 -66 22 -66 66c0 22.667 8.66699 40.334 26 53.001l264 198c11.333 8.66699 24.666 13 39.999 13c44 0 66 -22 66 -66c0 -22.667 -8.66699 -40.334 -26 -53.001l-264 -198c-11.333 -8.66699 -24.666 -13 -39.999 -13z" />
    <glyph glyph-name="mu1" unicode="&#xb5;" 
d="M132 858c0 44 21.999 65.9971 65.999 65.9971s66 -22 66 -66v-528c0 -55.333 19.167 -102.166 57.5 -140.499s85.166 -57.5 140.499 -57.5c54.667 0 101.334 19.333 140.001 58s58 85.334 58 140.001v528c0 44 22 66 66 66s66 -22 66 -66v-528
c0 -91.333 -32.167 -169.166 -96.5 -233.499s-142.166 -96.5 -233.499 -96.5c-74.667 0 -140.667 22 -198 66v-396c0 -44 -22 -66 -66 -66s-66 22 -66 66v1188z" />
    <glyph glyph-name="paragraph" unicode="&#xb6;" horiz-adv-x="1188" 
d="M396 1177c-88 -30 -131.999 -92.333 -131.999 -187c0 -42 12.167 -80.167 36.5 -114.5s56.166 -58.5 95.499 -72.5v374zM528.001 1188v-1122c0 -44 -22 -66 -66 -66s-66 22 -66 66v601c-77.333 15.333 -140.666 53.333 -189.999 114s-74 130.334 -74 209.001
c0 91.333 32.167 169.166 96.5 233.499s142.166 96.5 233.499 96.5h528c44 0 66 -22 66 -66c0 -16.667 -6.66699 -31.667 -20 -45s-31 -20.666 -53 -21.999c10 0.666992 -9.66699 1 -59 1v-1122c0 -44 -22 -66 -66 -66s-66 22 -66 66v1122h-264z" />
    <glyph glyph-name="middot" unicode="&#xb7;" horiz-adv-x="462" 
d="M198 660h66c44 0 66 -22 66 -66s-22 -66 -66 -66h-66c-44 0 -66 22 -66 66s22 66 66 66z" />
    <glyph glyph-name="cedilla" unicode="&#xb8;" horiz-adv-x="462" 
d="M258 132c48 0 72 -18.666 72 -55.999c0 -6 -0.666992 -11.667 -2 -17l-66 -273c-8 -33.333 -29.333 -50 -64 -50c-44 0 -66 22 -66 66c0 5.33301 0.666992 10.666 2 15.999l66 273c6.66699 27.333 26 41 58 41z" />
    <glyph glyph-name="onesuperior" unicode="&#xb9;" horiz-adv-x="594" 
d="M330 1452l-78.999 -105.999c-12.667 -17.333 -30.334 -26 -53.001 -26c-44 0 -66 22 -66 66c0 15.333 4.33301 28.666 13 39.999l198 264c13.333 17.333 31 26 53 26c44 0 66 -22 66 -66v-660c0 -44 -22 -66 -66 -66s-66 22 -66 66v462z" />
    <glyph glyph-name="ordmasculine" unicode="&#xba;" 
d="M726 198h-528c-44 0 -66 22 -66 66s22 66 66 66h528c44 0 66 -22 66 -66s-22 -66 -66 -66zM132 858l-0.00195312 132.002c0 91.333 32.167 169.166 96.5 233.499s142.166 96.5 233.499 96.5c92.667 0 170.834 -31.833 234.501 -95.5s95.5 -141.834 95.5 -234.501v-132
c0 -91.333 -32.167 -169.166 -96.5 -233.499s-142.166 -96.5 -233.499 -96.5s-169.166 32.167 -233.499 96.5s-96.5 142.166 -96.5 233.499zM659.998 858.002l0.00195312 131.998c0 54.667 -19.333 101.334 -58 140.001s-85.334 58 -140.001 58
s-101.334 -19.333 -140.001 -58s-58 -85.334 -58 -140.001v-132c0 -55.333 19.167 -102.166 57.5 -140.499s85.166 -57.5 140.499 -57.5c54.667 0 101.334 19.333 140.001 58s58 85.334 58 140.001z" />
    <glyph glyph-name="guillemotright" unicode="&#xbb;" horiz-adv-x="1056" 
d="M593 66c-17.333 0 -32.5 6.66895 -45.5 20.002s-19.5 28.666 -19.5 45.999c0 15.333 5 29.333 15 42l231 289l-231 289c-10 12.667 -15 26 -15 40c0 44 22 66 66 66c22 0 39.333 -8 52 -24l260 -325c12 -14.667 18 -30.334 18 -47.001c0 -14.667 -6.33301 -30 -19 -46
l-259 -325c-13.333 -16.667 -31 -25 -53 -25zM197 66.002c-17.333 0 -32.5 6.66895 -45.5 20.002s-19.5 28.666 -19.5 45.999c0 15.333 5 29.333 15 42l231 289l-231 289c-10 12.667 -15 26 -15 40c0 44 22 66 66 66c22 0 39.333 -8 52 -24l260 -325
c12 -14.667 18 -30.334 18 -47.001c0 -14.667 -6.33301 -30 -19 -46l-259 -325c-13.333 -16.667 -31 -25 -53 -25z" />
    <glyph glyph-name="onequarter" unicode="&#xbc;" horiz-adv-x="1452" 
d="M990 660c44 0 66.001 -22 66.001 -66c0 -9.33301 -1.66699 -18 -5 -26l-159 -370h164c0 46.667 1.33301 75.334 4 86.001c8 30.667 28.667 46 62 46s54 -15.333 62 -46c2.66699 -10.667 4 -39.334 4 -86.001c46.667 0 75.334 -1.33301 86.001 -4
c30.667 -8 46 -28.667 46 -62s-15.333 -54 -46 -62c-10.667 -2.66699 -39.334 -4 -86.001 -4v-132c0 -44 -22 -66 -66 -66s-66 22 -66 66v132h-264c-44 0 -66 22 -66 66c0 9.33301 1.66699 18 5 26l198 462c11.333 26.667 31.666 40 60.999 40zM330.001 1188
l-78.999 -105.999c-12.667 -17.333 -30.334 -26 -53.001 -26c-44 0 -66 22 -66 66c0 15.333 4.33301 28.666 13 39.999l198 264c13.333 17.333 31 26 53 26c44 0 66 -22 66 -66v-660c0 -44 -22 -66 -66 -66s-66 22 -66 66v462zM264.002 66.001c0 12.667 2.66699 23.667 8 33
l661 1187c12.667 22.667 31.667 34 57 34c44 0 66 -22 66 -66c0 -12 -2.66699 -22.667 -8 -32l-661 -1187c-12.667 -23.333 -31.667 -35 -57 -35c-44 0 -66 22 -66 66z" />
    <glyph glyph-name="onehalf" unicode="&#xbd;" horiz-adv-x="1452" 
d="M330 1188l-78.999 -105.999c-12.667 -17.333 -30.334 -26 -53.001 -26c-44 0 -66 22 -66 66c0 15.333 4.33301 28.666 13 39.999l198 264c13.333 17.333 31 26 53 26c44 0 66 -22 66 -66v-660c0 -44 -22 -66 -66 -66s-66 22 -66 66v462zM264.001 66.001
c0 12.667 2.66699 23.667 8 33l661 1187c12.667 22.667 31.667 34 57 34c44 0 66 -22 66 -66c0 -12 -2.66699 -22.667 -8 -32l-661 -1187c-12.667 -23.333 -31.667 -35 -57 -35c-44 0 -66 22 -66 66zM1020 0.000976562l233.999 -0.000976562c44 0 66 -22 66 -66
s-22 -66 -66 -66h-396c-44 0 -66 22 -66 66c0 17.333 14 39.333 42 66l294 283c40 38.667 60 76.334 60 113.001c0 37.333 -12.667 68.666 -38 93.999s-56.666 38 -93.999 38c-60.667 0 -102 -28.667 -124 -86c-12 -30.667 -33 -46 -63 -46
c-17.333 0 -32.666 6.66699 -45.999 20s-20 28.666 -20 45.999c0 6 1.66699 14 5 24c18 52.667 49.833 94.834 95.5 126.501s96.5 47.5 152.5 47.5c73.333 0 135.666 -25.667 186.999 -77s77 -113.666 77 -186.999c0 -74.667 -26.333 -137 -79 -187z" />
    <glyph glyph-name="threequarters" unicode="&#xbe;" horiz-adv-x="1452" 
d="M990 660c44 0 66.001 -22 66.001 -66c0 -9.33301 -1.66699 -18 -5 -26l-159 -370h164c0 46.667 1.33301 75.334 4 86.001c8 30.667 28.667 46 62 46s54 -15.333 62 -46c2.66699 -10.667 4 -39.334 4 -86.001c46.667 0 75.334 -1.33301 86.001 -4
c30.667 -8 46 -28.667 46 -62s-15.333 -54 -46 -62c-10.667 -2.66699 -39.334 -4 -86.001 -4v-132c0 -44 -22 -66 -66 -66s-66 22 -66 66v132h-264c-44 0 -66 22 -66 66c0 9.33301 1.66699 18 5 26l198 462c11.333 26.667 31.666 40 60.999 40zM330.001 66
c0 12.667 2.66699 23.667 8 33l661 1187c12.667 22.667 31.667 34 57 34c44 0 66 -22 66 -66c0 -12 -2.66699 -22.667 -8 -32l-661 -1187c-12.667 -23.333 -31.667 -35 -57 -35c-44 0 -66 22 -66 66zM330.001 1056h-66.002c-44 0 -66 22 -66 66s22 66 66 66h66
c18 0 33.5 6.5 46.5 19.5s19.5 28.5 19.5 46.5c0 44 -22 66 -66 66h-132c-44 0 -66 22 -66 66s22 66 66 66h132c54.667 0 101.334 -19.333 140.001 -58s58 -85.334 58 -140.001c0 -44 -13.333 -83.667 -40 -119c70.667 -50.667 106 -121 106 -211
c0 -73.333 -25.833 -135.666 -77.5 -186.999s-113.834 -77 -186.501 -77h-132c-44 0 -66 22 -66 66s22 66 66 66h132c36.667 0 67.834 12.833 93.501 38.5s38.5 56.834 38.5 93.501c0 37.333 -12.667 68.666 -38 93.999s-56.666 38 -93.999 38z" />
    <glyph glyph-name="questiondown" unicode="&#xbf;" 
d="M528 1188c0 -44 -22 -66 -66 -66s-66 22 -66 66v66c0 44 22 66 66 66s66 -22 66 -66v-66zM396 0c-74 0 -136.499 25.5 -187.499 76.5s-76.5 113.5 -76.5 187.5s26 136.333 78 187l165 161c14 13.333 21 29.333 21 48v198c0 44 22 66 66 66s66 -22 66 -66v-198
c0 -55.333 -21 -103.333 -63 -144l-164 -160c-24.667 -24 -37 -54.667 -37 -92c0 -36 13 -67 39 -93s57 -39 93 -39c84 0 185.667 20.333 305 61c10 3.33301 18.333 5 25 5c44 0 66 -22 66 -66c0 -28 -13.333 -48 -40 -60c-108.667 -48 -227.334 -72 -356.001 -72z" />
    <glyph glyph-name="Agrave" unicode="&#xc0;" horiz-adv-x="1188" 
d="M594 1044l-194 -582h388zM1056 66c0 -44 -22 -66 -66 -66c-32 0 -53 15 -63 45l-95 285h-476l-95 -285c-10 -30 -31 -45 -63 -45c-44 0 -66 22 -66 66c0 8 1 15 3 21l393 1180c12 35.333 34 53 66 53s53.667 -17 65 -51l394 -1182c2 -6 3 -13 3 -21zM396 1782
c0 44 22 66 66 66c15.333 0 28.666 -4.33301 39.999 -13l264 -198c17.333 -12.667 26 -30.334 26 -53.001c0 -44 -22 -66 -66 -66c-15.333 0 -28.666 4.33301 -39.999 13l-264 198c-17.333 12.667 -26 30.334 -26 53.001z" />
    <glyph glyph-name="Aacute" unicode="&#xc1;" horiz-adv-x="1188" 
d="M594 1044l-194 -582h388zM1056 66c0 -44 -22 -66 -66 -66c-32 0 -53 15 -63 45l-95 285h-476l-95 -285c-10 -30 -31 -45 -63 -45c-44 0 -66 22 -66 66c0 8 1 15 3 21l393 1180c12 35.333 34 53 66 53s53.667 -17 65 -51l394 -1182c2 -6 3 -13 3 -21zM462 1518
c-44 0 -66 22 -66 66c0 22.667 8.66699 40.334 26 53.001l264 198c11.333 8.66699 24.666 13 39.999 13c44 0 66 -22 66 -66c0 -22.667 -8.66699 -40.334 -26 -53.001l-264 -198c-11.333 -8.66699 -24.666 -13 -39.999 -13z" />
    <glyph glyph-name="Acircumflex" unicode="&#xc2;" horiz-adv-x="1188" 
d="M594 1044l-194 -582h388zM1056 66c0 -44 -22 -66 -66 -66c-32 0 -53 15 -63 45l-95 285h-476l-95 -285c-10 -30 -31 -45 -63 -45c-44 0 -66 22 -66 66c0 8 1 15 3 21l393 1180c12 35.333 34 53 66 53s53.667 -17 65 -51l394 -1182c2 -6 3 -13 3 -21zM594 1687l-150 -150
c-12.667 -12.667 -28.667 -19 -48 -19c-44 0 -66 22 -66 66c0 18 6.66699 33.667 20 47l186 186c20.667 20.667 40 31 58 31s37.333 -10.333 58 -31l186 -186c13.333 -13.333 20 -29 20 -47c0 -44 -22 -66 -66 -66c-19.333 0 -35.333 6.33301 -48 19z" />
    <glyph glyph-name="Atilde" unicode="&#xc3;" horiz-adv-x="1188" 
d="M594 1044l-194 -582h388zM1056 66c0 -44 -22 -66 -66 -66c-32 0 -53 15 -63 45l-95 285h-476l-95 -285c-10 -30 -31 -45 -63 -45c-44 0 -66 22 -66 66c0 8 1 15 3 21l393 1180c12 35.333 34 53 66 53s53.667 -17 65 -51l394 -1182c2 -6 3 -13 3 -21zM726 1584
c-28.667 0 -58.002 8.33398 -88.002 25.001l-73 46c-12.667 6 -31.334 18.667 -56.001 38c-19.333 15.333 -35 23 -47 23c-17.333 0 -39.166 -11 -65.499 -33s-48.5 -33 -66.5 -33c-17.333 0 -32.666 6.66699 -45.999 20s-20 28.666 -20 45.999c0 22 9 39.667 27 53
c42 31.333 68.333 50 79 56c28 15.333 58.667 23 92 23c26.667 0 54.667 -7.66699 84 -23l71 -44c14 -6 34 -19.333 60 -40c20.667 -16.667 37 -25 49 -25c18 0 40.333 11 67 33s48.334 33 65.001 33c44 0 66 -22 66 -66c0 -20 -9 -38 -27 -54l-52 -38
c-36 -26.667 -75.667 -40 -119 -40z" />
    <glyph glyph-name="Adieresis" unicode="&#xc4;" horiz-adv-x="1188" 
d="M330 1584v66c0 44 22 66 66 66s66 -22 66 -66v-66c0 -44 -22 -66 -66 -66s-66 22 -66 66zM726 1584v66c0 44 22 66 66 66s66 -22 66 -66v-66c0 -44 -22 -66 -66 -66s-66 22 -66 66zM594 1044l-194 -582h388zM1056 66c0 -44 -22 -66 -66 -66c-32 0 -53 15 -63 45l-95 285
h-476l-95 -285c-10 -30 -31 -45 -63 -45c-44 0 -66 22 -66 66c0 8 1 15 3 21l393 1180c12 35.333 34 53 66 53s53.667 -17 65 -51l394 -1182c2 -6 3 -13 3 -21z" />
    <glyph glyph-name="Aring" unicode="&#xc5;" horiz-adv-x="1188" 
d="M594 1044l-194 -582h388zM1056 66c0 -44 -22 -66 -66 -66c-32 0 -53 15 -63 45l-95 285h-476l-95 -285c-10 -30 -31 -45 -63 -45c-44 0 -66 22 -66 66c0 8 1 15 3 21l393 1180c12 35.333 34 53 66 53s53.667 -17 65 -51l394 -1182c2 -6 3 -13 3 -21zM594 1848
c64 0 118.5 -22.5 163.5 -67.5s67.5 -99.5 67.5 -163.5s-22.5 -118.5 -67.5 -163.5s-99.5 -67.5 -163.5 -67.5s-118.5 22.5 -163.5 67.5s-67.5 99.5 -67.5 163.5s22.5 118.5 67.5 163.5s99.5 67.5 163.5 67.5zM594 1716c-27.333 0 -50.666 -9.66699 -69.999 -29
s-29 -42.666 -29 -69.999s9.66699 -50.666 29 -69.999s42.666 -29 69.999 -29s50.666 9.66699 69.999 29s29 42.666 29 69.999s-9.66699 50.666 -29 69.999s-42.666 29 -69.999 29z" />
    <glyph glyph-name="AE" unicode="&#xc6;" horiz-adv-x="1452" 
d="M792 462v726h-150l-242 -726h392zM792 330h-436l-95 -285c-10 -30 -31 -45 -63 -45c-44 0 -66 22 -66 66c0 8 1 15 3 21l393 1180c12 35.333 34 53 66 53h660c44 0 66 -22 66 -66s-22 -66 -66 -66h-330v-396h264c44 0 66 -22 66 -66s-22 -66 -66 -66h-264v-528h330
c44 0 66 -22 66 -66s-22 -66 -66 -66h-396c-44 0 -66 22 -66 66v264z" />
    <glyph glyph-name="Ccedilla" unicode="&#xc7;" 
d="M396 -264c-44 0 -66 22.002 -66 66.002c0 5.33301 16.667 74.666 50 207.999c-72.667 18.667 -132.167 57.834 -178.5 117.501s-69.5 127.167 -69.5 202.5v660c0 91.333 32.167 169.166 96.5 233.499s142.166 96.5 233.499 96.5h264c44 0 66 -22 66 -66s-22 -66 -66 -66
h-264c-76 0 -133 -32.667 -171 -98c-18 -30.667 -27 -64 -27 -100v-660c0 -54.667 19.333 -101.334 58 -140.001s85.334 -58 140.001 -58h264c44 0 66 -22 66 -66s-22 -66 -66 -66h-212l-54 -214c-8.66699 -33.333 -30 -50 -64 -50z" />
    <glyph glyph-name="Egrave" unicode="&#xc8;" 
d="M132 66v1188c0 44 22 66 66 66h528c44 0 66 -22 66 -66s-22 -66 -66 -66h-462v-396h330c44 0 66 -22 66 -66s-22 -66 -66 -66h-330v-528h462c44 0 66 -22 66 -66s-22 -66 -66 -66h-528c-44 0 -66 22 -66 66zM264 1782c0 44 22 66 66 66
c15.333 0 28.666 -4.33301 39.999 -13l264 -198c17.333 -12.667 26 -30.334 26 -53.001c0 -44 -22 -66 -66 -66c-15.333 0 -28.666 4.33301 -39.999 13l-264 198c-17.333 12.667 -26 30.334 -26 53.001z" />
    <glyph glyph-name="Eacute" unicode="&#xc9;" 
d="M132 66v1188c0 44 22 66 66 66h528c44 0 66 -22 66 -66s-22 -66 -66 -66h-462v-396h330c44 0 66 -22 66 -66s-22 -66 -66 -66h-330v-528h462c44 0 66 -22 66 -66s-22 -66 -66 -66h-528c-44 0 -66 22 -66 66zM330 1518c-44 0 -66 22 -66 66
c0 22.667 8.66699 40.334 26 53.001l264 198c11.333 8.66699 24.666 13 39.999 13c44 0 66 -22 66 -66c0 -22.667 -8.66699 -40.334 -26 -53.001l-264 -198c-11.333 -8.66699 -24.666 -13 -39.999 -13z" />
    <glyph glyph-name="Ecircumflex" unicode="&#xca;" 
d="M132 66v1188c0 44 22 66 66 66h528c44 0 66 -22 66 -66s-22 -66 -66 -66h-462v-396h330c44 0 66 -22 66 -66s-22 -66 -66 -66h-330v-528h462c44 0 66 -22 66 -66s-22 -66 -66 -66h-528c-44 0 -66 22 -66 66zM462 1687l-150 -150c-12.667 -12.667 -28.667 -19 -48 -19
c-44 0 -66 22 -66 66c0 18 6.66699 33.667 20 47l186 186c20.667 20.667 40 31 58 31s37.333 -10.333 58 -31l186 -186c13.333 -13.333 20 -29 20 -47c0 -44 -22 -66 -66 -66c-19.333 0 -35.333 6.33301 -48 19z" />
    <glyph glyph-name="Edieresis" unicode="&#xcb;" 
d="M132 66v1188c0 44 22 66 66 66h528c44 0 66 -22 66 -66s-22 -66 -66 -66h-462v-396h330c44 0 66 -22 66 -66s-22 -66 -66 -66h-330v-528h462c44 0 66 -22 66 -66s-22 -66 -66 -66h-528c-44 0 -66 22 -66 66zM198 1584v66c0 44 22 66 66 66s66 -22 66 -66v-66
c0 -44 -22 -66 -66 -66s-66 22 -66 66zM594 1584v66c0 44 22 66 66 66s66 -22 66 -66v-66c0 -44 -22 -66 -66 -66s-66 22 -66 66z" />
    <glyph glyph-name="Igrave" unicode="&#xcc;" horiz-adv-x="660" 
d="M330 0c-44 0 -66 22 -66 66v1188c0 44 22 66 66 66s66 -22 66 -66v-1188c0 -44 -22 -66 -66 -66zM132 1782c0 44 22 66 66 66c15.333 0 28.666 -4.33301 39.999 -13l264 -198c17.333 -12.667 26 -30.334 26 -53.001c0 -44 -22 -66 -66 -66
c-15.333 0 -28.666 4.33301 -39.999 13l-264 198c-17.333 12.667 -26 30.334 -26 53.001z" />
    <glyph glyph-name="Iacute" unicode="&#xcd;" horiz-adv-x="660" 
d="M330 0c-44 0 -66 22 -66 66v1188c0 44 22 66 66 66s66 -22 66 -66v-1188c0 -44 -22 -66 -66 -66zM198 1518c-44 0 -66 22 -66 66c0 22.667 8.66699 40.334 26 53.001l264 198c11.333 8.66699 24.666 13 39.999 13c44 0 66 -22 66 -66
c0 -22.667 -8.66699 -40.334 -26 -53.001l-264 -198c-11.333 -8.66699 -24.666 -13 -39.999 -13z" />
    <glyph glyph-name="Icircumflex" unicode="&#xce;" horiz-adv-x="792" 
d="M396 0c-44 0 -66 22 -66 66v1188c0 44 22 66 66 66s66 -22 66 -66v-1188c0 -44 -22 -66 -66 -66zM396 1687l-150 -150c-12.667 -12.667 -28.667 -19 -48 -19c-44 0 -66 22 -66 66c0 18 6.66699 33.667 20 47l186 186c20.667 20.667 40 31 58 31s37.333 -10.333 58 -31
l186 -186c13.333 -13.333 20 -29 20 -47c0 -44 -22 -66 -66 -66c-19.333 0 -35.333 6.33301 -48 19z" />
    <glyph glyph-name="Idieresis" unicode="&#xcf;" horiz-adv-x="792" 
d="M396 0c-44 0 -66 22 -66 66v1188c0 44 22 66 66 66s66 -22 66 -66v-1188c0 -44 -22 -66 -66 -66zM132 1584v66c0 44 22 66 66 66s66 -22 66 -66v-66c0 -44 -22 -66 -66 -66s-66 22 -66 66zM528 1584v66c0 44 22 66 66 66s66 -22 66 -66v-66c0 -44 -22 -66 -66 -66
s-66 22 -66 66z" />
    <glyph glyph-name="Eth" unicode="&#xd0;" horiz-adv-x="1254" 
d="M330 594h-132.002c-44 0 -66 22 -66 66s22 66 66 66h132v528c0 44 22 66 66 66h396c92.667 0 170.834 -31.833 234.501 -95.5s95.5 -141.834 95.5 -234.501v-660c0 -91.333 -32.167 -169.166 -96.5 -233.499s-142.166 -96.5 -233.499 -96.5h-396c-44 0 -66 22 -66 66v528
zM461.998 594v-462.002h330c54.667 0 101.334 19.333 140.001 58s58 85.334 58 140.001v660c0 54.667 -19.333 101.334 -58 140.001s-85.334 58 -140.001 58h-330v-462h132c44 0 66 -22 66 -66s-22 -66 -66 -66h-132z" />
    <glyph glyph-name="Ntilde" unicode="&#xd1;" horiz-adv-x="1056" 
d="M792 321v933c0 44 22 66 66 66s66 -22 66 -66v-1188c0 -44 -22 -66 -66 -66c-26.667 0 -46 11 -58 33l-536 967v-934c0 -44 -22 -66 -66 -66s-66 22 -66 66v1188c0 44 22 66 66 66c26 0 46.333 -13 61 -39zM660 1584c-47.333 0 -98.6689 22.001 -154.002 66.001
s-92 66 -110 66c-17.333 0 -39.166 -11 -65.499 -33s-48.5 -33 -66.5 -33c-17.333 0 -32.666 6.66699 -45.999 20s-20 28.666 -20 45.999c0 22 9 39.667 27 53c42 31.333 68.333 50 79 56c28 15.333 58.667 23 92 23c46 0 97.167 -22 153.5 -66s93.166 -66 110.499 -66
c18 0 40.333 11 67 33s48.334 33 65.001 33c44 0 66 -22 66 -66c0 -20 -9 -38 -27 -54l-52 -38c-36 -26.667 -75.667 -40 -119 -40z" />
    <glyph glyph-name="Ograve" unicode="&#xd2;" horiz-adv-x="1056" 
d="M330 1782c0 44 22 66 66 66c15.333 0 28.666 -4.33301 39.999 -13l264 -198c17.333 -12.667 26 -30.334 26 -53.001c0 -44 -22 -66 -66 -66c-15.333 0 -28.666 4.33301 -39.999 13l-264 198c-17.333 12.667 -26 30.334 -26 53.001zM792 396v528
c0 74 -25.5 136.5 -76.5 187.5s-113.5 76.5 -187.5 76.5s-136.5 -25.5 -187.5 -76.5s-76.5 -113.5 -76.5 -187.5v-528c0 -74 25.5 -136.5 76.5 -187.5s113.5 -76.5 187.5 -76.5s136.5 25.5 187.5 76.5s76.5 113.5 76.5 187.5zM924 396
c0 -109.333 -38.668 -202.665 -116.001 -279.998s-170.666 -116 -279.999 -116s-202.666 38.667 -279.999 116s-116 170.666 -116 279.999v528c0 109.333 38.667 202.666 116 279.999s170.666 116 279.999 116c110 0 203.5 -38.5 280.5 -115.5s115.5 -170.5 115.5 -280.5
v-528z" />
    <glyph glyph-name="Oacute" unicode="&#xd3;" horiz-adv-x="1056" 
d="M396 1518c-44 0 -66 21.999 -66 65.999c0 22.667 8.66699 40.334 26 53.001l264 198c11.333 8.66699 24.666 13 39.999 13c44 0 66 -22 66 -66c0 -22 -8.66699 -39.667 -26 -53l-264 -198c-11.333 -8.66699 -24.666 -13 -39.999 -13zM792 395.999v528
c0 74 -25.5 136.5 -76.5 187.5s-113.5 76.5 -187.5 76.5s-136.5 -25.5 -187.5 -76.5s-76.5 -113.5 -76.5 -187.5v-528c0 -74 25.5 -136.5 76.5 -187.5s113.5 -76.5 187.5 -76.5s136.5 25.5 187.5 76.5s76.5 113.5 76.5 187.5zM924 395.999
c0 -109.333 -38.668 -202.665 -116.001 -279.998s-170.666 -116 -279.999 -116s-202.666 38.667 -279.999 116s-116 170.666 -116 279.999v528c0 109.333 38.667 202.666 116 279.999s170.666 116 279.999 116c110 0 203.5 -38.5 280.5 -115.5s115.5 -170.5 115.5 -280.5
v-528z" />
    <glyph glyph-name="Ocircumflex" unicode="&#xd4;" horiz-adv-x="1056" 
d="M528 1687l-150 -150c-12.667 -12.667 -28.667 -19 -48 -19c-44 0 -66 22 -66 66c0 18 6.66699 33.667 20 47l186 186c20.667 20.667 40 31 58 31s37.333 -10.333 58 -31l186 -186c13.333 -13.333 20 -29 20 -47c0 -44 -22 -66 -66 -66c-19.333 0 -35.333 6.33301 -48 19z
M792 396v528c0 74 -25.5 136.5 -76.5 187.5s-113.5 76.5 -187.5 76.5s-136.5 -25.5 -187.5 -76.5s-76.5 -113.5 -76.5 -187.5v-528c0 -74 25.5 -136.5 76.5 -187.5s113.5 -76.5 187.5 -76.5s136.5 25.5 187.5 76.5s76.5 113.5 76.5 187.5zM924 396
c0 -109.333 -38.668 -202.665 -116.001 -279.998s-170.666 -116 -279.999 -116s-202.666 38.667 -279.999 116s-116 170.666 -116 279.999v528c0 109.333 38.667 202.666 116 279.999s170.666 116 279.999 116c110 0 203.5 -38.5 280.5 -115.5s115.5 -170.5 115.5 -280.5
v-528z" />
    <glyph glyph-name="Otilde" unicode="&#xd5;" horiz-adv-x="1056" 
d="M660 1584c-47.333 0 -98.832 21.999 -154.499 65.999s-92.167 66 -109.5 66c-18 0 -40 -11 -66 -33s-48 -33 -66 -33c-17.333 0 -32.666 6.66699 -45.999 20s-20 28.666 -20 45.999c0 20.667 9 38.334 27 53.001c64 52.667 121 79 171 79c46 0 97.167 -22 153.5 -66
s93.166 -66 110.499 -66c18 0 40.167 11 66.5 33s48.166 33 65.499 33c44 0 66 -22 66 -66c0 -20 -9 -38.333 -27 -55c-2 -1.33301 -19.333 -13.666 -52 -36.999c-38 -26.667 -77.667 -40 -119 -40zM792.001 395.999v528c0 74 -25.5 136.5 -76.5 187.5
s-113.5 76.5 -187.5 76.5s-136.5 -25.5 -187.5 -76.5s-76.5 -113.5 -76.5 -187.5v-528c0 -74 25.5 -136.5 76.5 -187.5s113.5 -76.5 187.5 -76.5s136.5 25.5 187.5 76.5s76.5 113.5 76.5 187.5zM924.001 395.999c0 -109.333 -38.668 -202.665 -116.001 -279.998
s-170.666 -116 -279.999 -116s-202.666 38.667 -279.999 116s-116 170.666 -116 279.999v528c0 109.333 38.667 202.666 116 279.999s170.666 116 279.999 116c110 0 203.5 -38.5 280.5 -115.5s115.5 -170.5 115.5 -280.5v-528z" />
    <glyph glyph-name="Odieresis" unicode="&#xd6;" horiz-adv-x="1056" 
d="M264 1584v66c0 44 22 66 66 66s66 -22 66 -66v-66c0 -44 -22 -66 -66 -66s-66 22 -66 66zM660 1584v66c0 44 22 66 66 66s66 -22 66 -66v-66c0 -44 -22 -66 -66 -66s-66 22 -66 66zM792 396v528c0 74 -25.5 136.5 -76.5 187.5s-113.5 76.5 -187.5 76.5
s-136.5 -25.5 -187.5 -76.5s-76.5 -113.5 -76.5 -187.5v-528c0 -74 25.5 -136.5 76.5 -187.5s113.5 -76.5 187.5 -76.5s136.5 25.5 187.5 76.5s76.5 113.5 76.5 187.5zM924 396c0 -109.333 -38.668 -202.665 -116.001 -279.998s-170.666 -116 -279.999 -116
s-202.666 38.667 -279.999 116s-116 170.666 -116 279.999v528c0 109.333 38.667 202.666 116 279.999s170.666 116 279.999 116c110 0 203.5 -38.5 280.5 -115.5s115.5 -170.5 115.5 -280.5v-528z" />
    <glyph glyph-name="multiply" unicode="&#xd7;" 
d="M462 369l-216.998 -216.999c-13.333 -13.333 -28.666 -20 -45.999 -20c-18 0 -33.667 6.66699 -47 20s-20 29 -20 47c0 17.333 6.66699 32.666 20 45.999l217 217l-217 217c-13.333 13.333 -20 29 -20 47c0 17.333 6.66699 32.666 20 45.999s29 20 47 20
c17.333 0 32.666 -6.66699 45.999 -20l217 -217l218 218c13.333 13.333 29 20 47 20c17.333 0 32.666 -6.66699 45.999 -20s20 -28.666 20 -45.999c0 -18 -6.66699 -33.667 -20 -47l-218 -218l218 -218c13.333 -13.333 20 -28.666 20 -45.999
c0 -18.667 -6.5 -34.334 -19.5 -47.001s-28.5 -19 -46.5 -19c-18.667 0 -34.334 6.33301 -47.001 19z" />
    <glyph glyph-name="Oslash" unicode="&#xd8;" horiz-adv-x="1320" 
d="M992 1139l81.001 92.999c12.667 14.667 29 22 49 22c44 0 66 -22 66 -66c0 -16.667 -5.33301 -31 -16 -43l-125 -143c6 -29.333 9 -55.333 9 -78v-528c0 -109.333 -38.667 -202.666 -116 -279.999s-170.666 -116 -279.999 -116c-140.667 0 -251.334 60 -332.001 180
l-80 -91c-13.333 -15.333 -30 -23 -50 -23c-44 0 -66 22 -66 66c0 16.667 5.66699 31.334 17 44.001l123 141c-5.33301 28 -8 54.333 -8 79v528c0 109.333 38.667 202.666 116 279.999s170.666 116 279.999 116c142 0 252.667 -60.333 332 -181zM924.001 861.999l-504 -576
c48.667 -102.667 128.667 -154 240 -154c74 0 136.5 25.5 187.5 76.5s76.5 113.5 76.5 187.5v466zM899.001 1034c-44.667 102.667 -124.333 154 -239 154c-74 0 -136.5 -25.5 -187.5 -76.5s-76.5 -113.5 -76.5 -187.5v-466z" />
    <glyph glyph-name="Ugrave" unicode="&#xd9;" horiz-adv-x="1056" 
d="M330 1782c0 44 22 66 66 66c15.333 0 28.666 -4.33301 39.999 -13l264 -198c17.333 -12.667 26 -30.334 26 -53.001c0 -44 -22 -66 -66 -66c-15.333 0 -28.666 4.33301 -39.999 13l-264 198c-17.333 12.667 -26 30.334 -26 53.001zM924 1254l-0.00195312 -858
c0 -109.333 -38.667 -202.666 -116 -279.999s-170.666 -116 -279.999 -116s-202.666 38.667 -279.999 116s-116 170.666 -116 279.999v858c0 44 22 66 66 66s66 -22 66 -66v-858c0 -74 25.5 -136.5 76.5 -187.5s113.5 -76.5 187.5 -76.5s136.5 25.5 187.5 76.5
s76.5 113.5 76.5 187.5v858c0 44 22 66 66 66s66 -22 66 -66z" />
    <glyph glyph-name="Uacute" unicode="&#xda;" horiz-adv-x="1056" 
d="M396 1518c-44 0 -66 21.999 -66 65.999c0 22.667 8.66699 40.334 26 53.001l264 198c11.333 8.66699 24.666 13 39.999 13c44 0 66 -22 66 -66c0 -22 -8.66699 -39.667 -26 -53l-264 -198c-11.333 -8.66699 -24.666 -13 -39.999 -13zM924 1254l-0.00195312 -858
c0 -109.333 -38.667 -202.666 -116 -279.999s-170.666 -116 -279.999 -116s-202.666 38.667 -279.999 116s-116 170.666 -116 279.999v858c0 44 22 66 66 66s66 -22 66 -66v-858c0 -74 25.5 -136.5 76.5 -187.5s113.5 -76.5 187.5 -76.5s136.5 25.5 187.5 76.5
s76.5 113.5 76.5 187.5v858c0 44 22 66 66 66s66 -22 66 -66z" />
    <glyph glyph-name="Ucircumflex" unicode="&#xdb;" horiz-adv-x="1056" 
d="M528 1687l-150 -150c-12.667 -12.667 -28.667 -19 -48 -19c-44 0 -66 22 -66 66c0 18 6.66699 33.667 20 47l186 186c20.667 20.667 40 31 58 31s37.333 -10.333 58 -31l186 -186c13.333 -13.333 20 -29 20 -47c0 -44 -22 -66 -66 -66c-19.333 0 -35.333 6.33301 -48 19z
M924 1254l-0.00195312 -858c0 -109.333 -38.667 -202.666 -116 -279.999s-170.666 -116 -279.999 -116s-202.666 38.667 -279.999 116s-116 170.666 -116 279.999v858c0 44 22 66 66 66s66 -22 66 -66v-858c0 -74 25.5 -136.5 76.5 -187.5s113.5 -76.5 187.5 -76.5
s136.5 25.5 187.5 76.5s76.5 113.5 76.5 187.5v858c0 44 22 66 66 66s66 -22 66 -66z" />
    <glyph glyph-name="Udieresis" unicode="&#xdc;" horiz-adv-x="1056" 
d="M264 1584v66c0 44 22 66 66 66s66 -22 66 -66v-66c0 -44 -22 -66 -66 -66s-66 22 -66 66zM660 1584v66c0 44 22 66 66 66s66 -22 66 -66v-66c0 -44 -22 -66 -66 -66s-66 22 -66 66zM924 1254l-0.00195312 -858c0 -109.333 -38.667 -202.666 -116 -279.999
s-170.666 -116 -279.999 -116s-202.666 38.667 -279.999 116s-116 170.666 -116 279.999v858c0 44 22 66 66 66s66 -22 66 -66v-858c0 -74 25.5 -136.5 76.5 -187.5s113.5 -76.5 187.5 -76.5s136.5 25.5 187.5 76.5s76.5 113.5 76.5 187.5v858c0 44 22 66 66 66
s66 -22 66 -66z" />
    <glyph glyph-name="Yacute" unicode="&#xdd;" horiz-adv-x="1188" 
d="M462 1518c-44 0 -66 21.999 -66 65.999c0 22.667 8.66699 40.334 26 53.001l264 198c11.333 8.66699 24.666 13 39.999 13c44 0 66 -22 66 -66c0 -22 -8.66699 -39.667 -26 -53l-264 -198c-11.333 -8.66699 -24.666 -13 -39.999 -13zM660 659.999v-594
c0 -44 -22 -66 -66 -66s-66 22 -66 66v594l-384 556c-8 11.333 -12 24 -12 38c0 44 22 66 66 66c24 0 42.333 -9.33301 55 -28l341 -496l341 496c12.667 18.667 31 28 55 28c44 0 66 -22 66 -66c0 -14 -4 -26.667 -12 -38z" />
    <glyph glyph-name="Thorn" unicode="&#xde;" horiz-adv-x="1056" 
d="M198 1320c44 0 66.001 -21.999 66.001 -65.999v-198h264c110 0 203.5 -38.5 280.5 -115.5s115.5 -170.5 115.5 -280.5c0 -116.667 -36.833 -211.834 -110.5 -285.501s-168.834 -110.5 -285.501 -110.5h-264v-198c0 -44 -22 -66 -66 -66s-66 22 -66 66v1188
c0 44 22 66 66 66zM264.001 924.001v-528h264c74 0 136.5 25.5 187.5 76.5s76.5 113.5 76.5 187.5s-25.5 136.5 -76.5 187.5s-113.5 76.5 -187.5 76.5h-264z" />
    <glyph glyph-name="germandbls" unicode="&#xdf;" horiz-adv-x="1056" 
d="M462 1320h132.004c91.333 0 169.166 -32.333 233.499 -97s96.5 -142.334 96.5 -233.001c0 -109.333 -44 -197.333 -132 -264c88 -66.667 132 -154.667 132 -264v-132c0 -91.333 -32.333 -169.166 -97 -233.499s-142.334 -96.5 -233.001 -96.5c-44 0 -66 22 -66 66
s22 66 66 66c55.333 0 102.166 19.167 140.499 57.5s57.5 85.166 57.5 140.499v132c0 54.667 -19.333 101.334 -58 140.001s-85.334 58 -140.001 58c-44 0 -66 22 -66 66s22 66 66 66c55.333 0 102.166 19.167 140.499 57.5s57.5 85.166 57.5 140.499
c0 54.667 -19.333 101.334 -58 140.001s-85.334 58 -140.001 58h-132c-55.333 0 -102.166 -19.167 -140.499 -57.5s-57.5 -85.166 -57.5 -140.499v-924c0 -44 -22 -66 -66 -66s-66 22 -66 66v924c0 91.333 32.333 169.166 97 233.499s142.334 96.5 233.001 96.5z" />
    <glyph glyph-name="agrave" unicode="&#xe0;" 
d="M396 0c-74 0 -136.501 25.501 -187.501 76.501s-76.5 113.5 -76.5 187.5c0 48 11.667 92.333 35 133c50 87.333 126.333 131 229 131h264v132c0 37.333 -12.667 68.666 -38 93.999s-56.666 38 -93.999 38h-264c-44 0 -66 22 -66 66s22 66 66 66h264
c74 0 136.5 -25.5 187.5 -76.5s76.5 -113.5 76.5 -187.5v-594c0 -44 -22 -66 -66 -66h-330zM659.999 396.001l-263.999 0.000976562c-36.667 0 -67.834 -12.833 -93.501 -38.5s-38.5 -56.834 -38.5 -93.501c0 -36 13 -67 39 -93s57 -39 93 -39h264v264zM264 1386
c0 44 22 66 66 66c15.333 0 28.666 -4.33301 39.999 -13l264 -198c17.333 -12.667 26 -30.334 26 -53.001c0 -44 -22 -66 -66 -66c-15.333 0 -28.666 4.33301 -39.999 13l-264 198c-17.333 12.667 -26 30.334 -26 53.001z" />
    <glyph glyph-name="aacute" unicode="&#xe1;" 
d="M396 0c-74 0 -136.501 25.501 -187.501 76.501s-76.5 113.5 -76.5 187.5c0 48 11.667 92.333 35 133c50 87.333 126.333 131 229 131h264v132c0 37.333 -12.667 68.666 -38 93.999s-56.666 38 -93.999 38h-264c-44 0 -66 22 -66 66s22 66 66 66h264
c74 0 136.5 -25.5 187.5 -76.5s76.5 -113.5 76.5 -187.5v-594c0 -44 -22 -66 -66 -66h-330zM659.999 396.001l-263.999 0.000976562c-36.667 0 -67.834 -12.833 -93.501 -38.5s-38.5 -56.834 -38.5 -93.501c0 -36 13 -67 39 -93s57 -39 93 -39h264v264zM330 1122
c-44 0 -66 21.999 -66 65.999c0 22.667 8.66699 40.334 26 53.001l264 198c11.333 8.66699 24.666 13 39.999 13c44 0 66 -22 66 -66c0 -22 -8.66699 -39.667 -26 -53l-264 -198c-11.333 -8.66699 -24.666 -13 -39.999 -13z" />
    <glyph glyph-name="acircumflex" unicode="&#xe2;" 
d="M396 0c-74 0 -136.501 25.501 -187.501 76.501s-76.5 113.5 -76.5 187.5c0 48 11.667 92.333 35 133c50 87.333 126.333 131 229 131h264v132c0 37.333 -12.667 68.666 -38 93.999s-56.666 38 -93.999 38h-264c-44 0 -66 22 -66 66s22 66 66 66h264
c74 0 136.5 -25.5 187.5 -76.5s76.5 -113.5 76.5 -187.5v-594c0 -44 -22 -66 -66 -66h-330zM659.999 396.001l-263.999 0.000976562c-36.667 0 -67.834 -12.833 -93.501 -38.5s-38.5 -56.834 -38.5 -93.501c0 -36 13 -67 39 -93s57 -39 93 -39h264v264zM462 1291l-150 -150
c-12.667 -12.667 -28.667 -19 -48 -19c-44 0 -66 22 -66 66c0 18 6.66699 33.667 20 47l186 186c20.667 20.667 40 31 58 31s37.333 -10.333 58 -31l186 -186c13.333 -13.333 20 -29 20 -47c0 -44 -22 -66 -66 -66c-19.333 0 -35.333 6.33301 -48 19z" />
    <glyph glyph-name="atilde" unicode="&#xe3;" 
d="M396 0c-74 0 -136.501 25.501 -187.501 76.501s-76.5 113.5 -76.5 187.5c0 48 11.667 92.333 35 133c50 87.333 126.333 131 229 131h264v132c0 37.333 -12.667 68.666 -38 93.999s-56.666 38 -93.999 38h-264c-44 0 -66 22 -66 66s22 66 66 66h264
c74 0 136.5 -25.5 187.5 -76.5s76.5 -113.5 76.5 -187.5v-594c0 -44 -22 -66 -66 -66h-330zM659.999 396.001l-263.999 0.000976562c-36.667 0 -67.834 -12.833 -93.501 -38.5s-38.5 -56.834 -38.5 -93.501c0 -36 13 -67 39 -93s57 -39 93 -39h264v264zM594 1122
c-47.333 0 -98.6689 22.001 -154.002 66.001s-92 66 -110 66c-17.333 0 -39.166 -11 -65.499 -33s-48.5 -33 -66.5 -33c-17.333 0 -32.666 6.66699 -45.999 20s-20 28.666 -20 45.999c0 22 9 39.667 27 53c42 31.333 68.333 50 79 56c28 15.333 58.667 23 92 23
c46 0 97.167 -22 153.5 -66s93.166 -66 110.499 -66c18 0 40.333 11 67 33s48.334 33 65.001 33c44 0 66 -22 66 -66c0 -20 -9 -38 -27 -54l-52 -38c-36 -26.667 -75.667 -40 -119 -40z" />
    <glyph glyph-name="adieresis" unicode="&#xe4;" 
d="M396 0c-74 0 -136.501 25.501 -187.501 76.501s-76.5 113.5 -76.5 187.5c0 48 11.667 92.333 35 133c50 87.333 126.333 131 229 131h264v132c0 37.333 -12.667 68.666 -38 93.999s-56.666 38 -93.999 38h-264c-44 0 -66 22 -66 66s22 66 66 66h264
c74 0 136.5 -25.5 187.5 -76.5s76.5 -113.5 76.5 -187.5v-594c0 -44 -22 -66 -66 -66h-330zM659.999 396.001l-263.999 0.000976562c-36.667 0 -67.834 -12.833 -93.501 -38.5s-38.5 -56.834 -38.5 -93.501c0 -36 13 -67 39 -93s57 -39 93 -39h264v264zM198 1188v66
c0 44 22 66 66 66s66 -22 66 -66v-66c0 -44 -22 -66 -66 -66s-66 22 -66 66zM594 1188v66c0 44 22 66 66 66s66 -22 66 -66v-66c0 -44 -22 -66 -66 -66s-66 22 -66 66z" />
    <glyph glyph-name="aring" unicode="&#xe5;" 
d="M396 0c-74 0 -136.501 25.501 -187.501 76.501s-76.5 113.5 -76.5 187.5c0 48 11.667 92.333 35 133c50 87.333 126.333 131 229 131h264v132c0 37.333 -12.667 68.666 -38 93.999s-56.666 38 -93.999 38h-264c-44 0 -66 22 -66 66s22 66 66 66h264
c74 0 136.5 -25.5 187.5 -76.5s76.5 -113.5 76.5 -187.5v-594c0 -44 -22 -66 -66 -66h-330zM659.999 396.001l-263.999 0.000976562c-36.667 0 -67.834 -12.833 -93.501 -38.5s-38.5 -56.834 -38.5 -93.501c0 -36 13 -67 39 -93s57 -39 93 -39h264v264zM462 1584
c64 0 118.5 -22.5 163.5 -67.5s67.5 -99.5 67.5 -163.5s-22.5 -118.5 -67.5 -163.5s-99.5 -67.5 -163.5 -67.5s-118.5 22.5 -163.5 67.5s-67.5 99.5 -67.5 163.5s22.5 118.5 67.5 163.5s99.5 67.5 163.5 67.5zM462 1452c-27.333 0 -50.666 -9.66699 -69.999 -29
s-29 -42.666 -29 -69.999s9.66699 -50.666 29 -69.999s42.666 -29 69.999 -29s50.666 9.66699 69.999 29s29 42.666 29 69.999s-9.66699 50.666 -29 69.999s-42.666 29 -69.999 29z" />
    <glyph glyph-name="ae" unicode="&#xe6;" horiz-adv-x="1188" 
d="M594 836c52 58.667 118.001 88 198.001 88c74 0 136.5 -25.5 187.5 -76.5s76.5 -113.5 76.5 -187.5v-264h-396v-132c0 -36 13 -67 39 -93s57 -39 93 -39h198c44 0 66 -22 66 -66s-22 -66 -66 -66h-198c-49.333 -0 -94.666 12.333 -135.999 37
c-10.667 -24.667 -31.334 -37 -62.001 -37h-198c-74 0 -136.5 25.5 -187.5 76.5s-76.5 113.5 -76.5 187.5s25.5 136.5 76.5 187.5s113.5 76.5 187.5 76.5h132v132c0 37.333 -12.833 68.833 -38.5 94.5s-68.834 38.5 -129.501 38.5c-8 0 -19.667 -0.333008 -35 -1h-32
c-63.333 0 -95 22 -95 66s22 66 66 66h132c78.667 0 144.667 -29.333 198 -88zM528.001 396l-131.999 0.000976562c-36.667 0 -67.834 -12.833 -93.501 -38.5s-38.5 -56.834 -38.5 -93.501c0 -36 13 -67 39 -93s57 -39 93 -39h132v264zM924.002 660.001
c0 37.333 -12.667 68.668 -38 94.001s-56.666 38 -93.999 38c-36.667 0 -67.834 -12.833 -93.501 -38.5s-38.5 -56.834 -38.5 -93.501v-132h264v132z" />
    <glyph glyph-name="ccedilla" unicode="&#xe7;" horiz-adv-x="792" 
d="M330 -264c-44 0 -66 22.002 -66 66.002c0 5.33301 17 75.666 51 210.999c-55.333 17.333 -99.666 49 -132.999 95s-50 98 -50 156v396c0 74 25.5 136.5 76.5 187.5s113.5 76.5 187.5 76.5h198c44 0 66 -22 66 -66s-22 -66 -66 -66h-198
c-36.667 0 -67.834 -12.833 -93.501 -38.5s-38.5 -56.834 -38.5 -93.501v-396c0 -36 13 -67 39 -93s57 -39 93 -39h198c44 0 66 -22 66 -66s-22 -66 -66 -66h-146l-54 -214c-8.66699 -33.333 -30 -50 -64 -50z" />
    <glyph glyph-name="egrave" unicode="&#xe8;" 
d="M462 792c-54.667 0 -101.332 -19.333 -139.999 -58s-58 -85.334 -58 -140.001v-66h396v66c0 54.667 -19.333 101.334 -58 140.001s-85.334 58 -140.001 58zM264.002 396v-131.998c0 -36 13 -67 39 -93s57 -39 93 -39h330c44 0 66 -22 66 -66s-22 -66 -66 -66h-330
c-74 0 -136.5 25.5 -187.5 76.5s-76.5 113.5 -76.5 187.5v330c0 91.333 32.167 169.166 96.5 233.499s142.166 96.5 233.499 96.5c92.667 0 170.834 -31.833 234.501 -95.5s95.5 -141.834 95.5 -234.501v-198h-528zM264.002 1386c0 44 22 66 66 66
c15.333 0 28.666 -4.33301 39.999 -13l264 -198c17.333 -12.667 26 -30.334 26 -53.001c0 -44 -22 -66 -66 -66c-15.333 0 -28.666 4.33301 -39.999 13l-264 198c-17.333 12.667 -26 30.334 -26 53.001z" />
    <glyph glyph-name="eacute" unicode="&#xe9;" 
d="M462 792c-54.667 0 -101.332 -19.333 -139.999 -58s-58 -85.334 -58 -140.001v-66h396v66c0 54.667 -19.333 101.334 -58 140.001s-85.334 58 -140.001 58zM264.002 396v-131.998c0 -36 13 -67 39 -93s57 -39 93 -39h330c44 0 66 -22 66 -66s-22 -66 -66 -66h-330
c-74 0 -136.5 25.5 -187.5 76.5s-76.5 113.5 -76.5 187.5v330c0 91.333 32.167 169.166 96.5 233.499s142.166 96.5 233.499 96.5c92.667 0 170.834 -31.833 234.501 -95.5s95.5 -141.834 95.5 -234.501v-198h-528zM330.002 1122c-44 0 -66 22 -66 66
c0 22.667 8.66699 40.334 26 53.001l264 198c11.333 8.66699 24.666 13 39.999 13c44 0 66 -22 66 -66c0 -22.667 -8.66699 -40.334 -26 -53.001l-264 -198c-11.333 -8.66699 -24.666 -13 -39.999 -13z" />
    <glyph glyph-name="ecircumflex" unicode="&#xea;" 
d="M462 792c-54.667 0 -101.332 -19.333 -139.999 -58s-58 -85.334 -58 -140.001v-66h396v66c0 54.667 -19.333 101.334 -58 140.001s-85.334 58 -140.001 58zM264.002 396v-131.998c0 -36 13 -67 39 -93s57 -39 93 -39h330c44 0 66 -22 66 -66s-22 -66 -66 -66h-330
c-74 0 -136.5 25.5 -187.5 76.5s-76.5 113.5 -76.5 187.5v330c0 91.333 32.167 169.166 96.5 233.499s142.166 96.5 233.499 96.5c92.667 0 170.834 -31.833 234.501 -95.5s95.5 -141.834 95.5 -234.501v-198h-528zM462.002 1291l-150 -150
c-12.667 -12.667 -28.667 -19 -48 -19c-44 0 -66 22 -66 66c0 18 6.66699 33.667 20 47l186 186c20.667 20.667 40 31 58 31s37.333 -10.333 58 -31l186 -186c13.333 -13.333 20 -29 20 -47c0 -44 -22 -66 -66 -66c-19.333 0 -35.333 6.33301 -48 19z" />
    <glyph glyph-name="edieresis" unicode="&#xeb;" 
d="M462 792c-54.667 0 -101.332 -19.333 -139.999 -58s-58 -85.334 -58 -140.001v-66h396v66c0 54.667 -19.333 101.334 -58 140.001s-85.334 58 -140.001 58zM264.002 396v-131.998c0 -36 13 -67 39 -93s57 -39 93 -39h330c44 0 66 -22 66 -66s-22 -66 -66 -66h-330
c-74 0 -136.5 25.5 -187.5 76.5s-76.5 113.5 -76.5 187.5v330c0 91.333 32.167 169.166 96.5 233.499s142.166 96.5 233.499 96.5c92.667 0 170.834 -31.833 234.501 -95.5s95.5 -141.834 95.5 -234.501v-198h-528zM198.002 1188v66c0 44 22 66 66 66s66 -22 66 -66v-66
c0 -44 -22 -66 -66 -66s-66 22 -66 66zM594.002 1188v66c0 44 22 66 66 66s66 -22 66 -66v-66c0 -44 -22 -66 -66 -66s-66 22 -66 66z" />
    <glyph glyph-name="igrave" unicode="&#xec;" horiz-adv-x="660" 
d="M264 858c0 44 22 66 66 66s66 -22 66 -66v-792c0 -44 -22 -66 -66 -66s-66 22 -66 66v792zM132 1386c0 44 22 66 66 66c15.333 0 28.666 -4.33301 39.999 -13l264 -198c17.333 -12.667 26 -30.334 26 -53.001c0 -44 -22 -66 -66 -66
c-15.333 0 -28.666 4.33301 -39.999 13l-264 198c-17.333 12.667 -26 30.334 -26 53.001z" />
    <glyph glyph-name="iacute" unicode="&#xed;" horiz-adv-x="660" 
d="M264 858c0 44 22 66 66 66s66 -22 66 -66v-792c0 -44 -22 -66 -66 -66s-66 22 -66 66v792zM198 1122c-44 0 -66 22 -66 66c0 22.667 8.66699 40.334 26 53.001l264 198c11.333 8.66699 24.666 13 39.999 13c44 0 66 -22 66 -66c0 -22.667 -8.66699 -40.334 -26 -53.001
l-264 -198c-11.333 -8.66699 -24.666 -13 -39.999 -13z" />
    <glyph glyph-name="icircumflex" unicode="&#xee;" horiz-adv-x="792" 
d="M330 858c0 44 22 66 66 66s66 -22 66 -66v-792c0 -44 -22 -66 -66 -66s-66 22 -66 66v792zM396 1291l-150 -150c-12.667 -12.667 -28.667 -19 -48 -19c-44 0 -66 22 -66 66c0 18 6.66699 33.667 20 47l186 186c20.667 20.667 40 31 58 31s37.333 -10.333 58 -31l186 -186
c13.333 -13.333 20 -29 20 -47c0 -44 -22 -66 -66 -66c-19.333 0 -35.333 6.33301 -48 19z" />
    <glyph glyph-name="idieresis" unicode="&#xef;" horiz-adv-x="792" 
d="M330 858c0 44 22 66 66 66s66 -22 66 -66v-792c0 -44 -22 -66 -66 -66s-66 22 -66 66v792zM132 1188v66c0 44 22 66 66 66s66 -22 66 -66v-66c0 -44 -22 -66 -66 -66s-66 22 -66 66zM528 1188v66c0 44 22 66 66 66s66 -22 66 -66v-66c0 -44 -22 -66 -66 -66
s-66 22 -66 66z" />
    <glyph glyph-name="eth" unicode="&#xf0;" horiz-adv-x="1188" 
d="M660 1188h-198c-44 0 -66 22 -66 66s22 66 66 66h198v264c0 44 22 66 66 66s66 -22 66 -66v-264h198c44 0 66 -22 66 -66s-22 -66 -66 -66h-198v-1122c0 -44 -22 -66 -66 -66h-330c-74 0 -136.5 25.5 -187.5 76.5s-76.5 113.5 -76.5 187.5v396c0 48 11.667 92.333 35 133
c50 87.333 126.333 131 229 131h264v264zM396 792c-36.667 0 -67.833 -12.832 -93.5 -38.499s-38.5 -56.834 -38.5 -93.501v-396c0 -36 13 -67 39 -93s57 -39 93 -39h264v660h-264z" />
    <glyph glyph-name="ntilde" unicode="&#xf1;" 
d="M594 1122c-47.333 0 -98.6689 22.001 -154.002 66.001s-92 66 -110 66c-17.333 0 -39.166 -11 -65.499 -33s-48.5 -33 -66.5 -33c-17.333 0 -32.666 6.66699 -45.999 20s-20 28.666 -20 45.999c0 22 9 39.667 27 53c42 31.333 68.333 50 79 56c28 15.333 58.667 23 92 23
c46 0 97.167 -22 153.5 -66s93.166 -66 110.499 -66c18 0 40.333 11 67 33s48.334 33 65.001 33c44 0 66 -22 66 -66c0 -20 -9 -38 -27 -54l-52 -38c-36 -26.667 -75.667 -40 -119 -40zM131.997 66.001v792c0 44 22 66 66 66h330c73.333 0 135.666 -25.667 186.999 -77
s77 -113.666 77 -186.999v-594c0 -44 -22 -66 -66 -66s-66 22 -66 66v594c0 37.333 -12.667 68.666 -38 93.999s-56.666 38 -93.999 38h-264v-726c0 -44 -22 -66 -66 -66s-66 22 -66 66z" />
    <glyph glyph-name="ograve" unicode="&#xf2;" 
d="M132 330l-0.00195312 264.002c0 91.333 32.167 169.166 96.5 233.499s142.166 96.5 233.499 96.5c92.667 0 170.834 -31.833 234.501 -95.5s95.5 -141.834 95.5 -234.501v-264c0 -91.333 -32.167 -169.166 -96.5 -233.499s-142.166 -96.5 -233.499 -96.5
s-169.166 32.167 -233.499 96.5s-96.5 142.166 -96.5 233.499zM659.998 330.002l0.00195312 263.998c0 54.667 -19.333 101.334 -58 140.001s-85.334 58 -140.001 58s-101.334 -19.333 -140.001 -58s-58 -85.334 -58 -140.001v-264c0 -55.333 19.167 -102.166 57.5 -140.499
s85.166 -57.5 140.499 -57.5c54.667 0 101.334 19.333 140.001 58s58 85.334 58 140.001zM264 1386c0 44 22 66 66 66c15.333 0 28.666 -4.33301 39.999 -13l264 -198c17.333 -12.667 26 -30.334 26 -53.001c0 -44 -22 -66 -66 -66c-15.333 0 -28.666 4.33301 -39.999 13
l-264 198c-17.333 12.667 -26 30.334 -26 53.001z" />
    <glyph glyph-name="oacute" unicode="&#xf3;" 
d="M132 330l-0.00195312 264.002c0 91.333 32.167 169.166 96.5 233.499s142.166 96.5 233.499 96.5c92.667 0 170.834 -31.833 234.501 -95.5s95.5 -141.834 95.5 -234.501v-264c0 -91.333 -32.167 -169.166 -96.5 -233.499s-142.166 -96.5 -233.499 -96.5
s-169.166 32.167 -233.499 96.5s-96.5 142.166 -96.5 233.499zM659.998 330.002l0.00195312 263.998c0 54.667 -19.333 101.334 -58 140.001s-85.334 58 -140.001 58s-101.334 -19.333 -140.001 -58s-58 -85.334 -58 -140.001v-264c0 -55.333 19.167 -102.166 57.5 -140.499
s85.166 -57.5 140.499 -57.5c54.667 0 101.334 19.333 140.001 58s58 85.334 58 140.001zM330 1122c-44 0 -66 22 -66 66c0 22.667 8.66699 40.334 26 53.001l264 198c11.333 8.66699 24.666 13 39.999 13c44 0 66 -22 66 -66c0 -22.667 -8.66699 -40.334 -26 -53.001
l-264 -198c-11.333 -8.66699 -24.666 -13 -39.999 -13z" />
    <glyph glyph-name="ocircumflex" unicode="&#xf4;" 
d="M132 330l-0.00195312 264.002c0 91.333 32.167 169.166 96.5 233.499s142.166 96.5 233.499 96.5c92.667 0 170.834 -31.833 234.501 -95.5s95.5 -141.834 95.5 -234.501v-264c0 -91.333 -32.167 -169.166 -96.5 -233.499s-142.166 -96.5 -233.499 -96.5
s-169.166 32.167 -233.499 96.5s-96.5 142.166 -96.5 233.499zM659.998 330.002l0.00195312 263.998c0 54.667 -19.333 101.334 -58 140.001s-85.334 58 -140.001 58s-101.334 -19.333 -140.001 -58s-58 -85.334 -58 -140.001v-264c0 -55.333 19.167 -102.166 57.5 -140.499
s85.166 -57.5 140.499 -57.5c54.667 0 101.334 19.333 140.001 58s58 85.334 58 140.001zM462 1291l-150 -150c-12.667 -12.667 -28.667 -19 -48 -19c-44 0 -66 22 -66 66c0 18 6.66699 33.667 20 47l186 186c20.667 20.667 40 31 58 31s37.333 -10.333 58 -31l186 -186
c13.333 -13.333 20 -29 20 -47c0 -44 -22 -66 -66 -66c-19.333 0 -35.333 6.33301 -48 19z" />
    <glyph glyph-name="otilde" unicode="&#xf5;" 
d="M132 330l-0.00195312 264.002c0 91.333 32.167 169.166 96.5 233.499s142.166 96.5 233.499 96.5c92.667 0 170.834 -31.833 234.501 -95.5s95.5 -141.834 95.5 -234.501v-264c0 -91.333 -32.167 -169.166 -96.5 -233.499s-142.166 -96.5 -233.499 -96.5
s-169.166 32.167 -233.499 96.5s-96.5 142.166 -96.5 233.499zM659.998 330.002l0.00195312 263.998c0 54.667 -19.333 101.334 -58 140.001s-85.334 58 -140.001 58s-101.334 -19.333 -140.001 -58s-58 -85.334 -58 -140.001v-264c0 -55.333 19.167 -102.166 57.5 -140.499
s85.166 -57.5 140.499 -57.5c54.667 0 101.334 19.333 140.001 58s58 85.334 58 140.001zM594 1122c-47.333 0 -98.6689 22.001 -154.002 66.001s-92 66 -110 66c-17.333 0 -39.166 -11 -65.499 -33s-48.5 -33 -66.5 -33c-17.333 0 -32.666 6.66699 -45.999 20
s-20 28.666 -20 45.999c0 22 9 39.667 27 53c42 31.333 68.333 50 79 56c28 15.333 58.667 23 92 23c46 0 97.167 -22 153.5 -66s93.166 -66 110.499 -66c18 0 40.333 11 67 33s48.334 33 65.001 33c44 0 66 -22 66 -66c0 -20 -9 -38 -27 -54l-52 -38
c-36 -26.667 -75.667 -40 -119 -40z" />
    <glyph glyph-name="odieresis" unicode="&#xf6;" 
d="M132 330l-0.00195312 264.002c0 91.333 32.167 169.166 96.5 233.499s142.166 96.5 233.499 96.5c92.667 0 170.834 -31.833 234.501 -95.5s95.5 -141.834 95.5 -234.501v-264c0 -91.333 -32.167 -169.166 -96.5 -233.499s-142.166 -96.5 -233.499 -96.5
s-169.166 32.167 -233.499 96.5s-96.5 142.166 -96.5 233.499zM659.998 330.002l0.00195312 263.998c0 54.667 -19.333 101.334 -58 140.001s-85.334 58 -140.001 58s-101.334 -19.333 -140.001 -58s-58 -85.334 -58 -140.001v-264c0 -55.333 19.167 -102.166 57.5 -140.499
s85.166 -57.5 140.499 -57.5c54.667 0 101.334 19.333 140.001 58s58 85.334 58 140.001zM198 1188v66c0 44 22 66 66 66s66 -22 66 -66v-66c0 -44 -22 -66 -66 -66s-66 22 -66 66zM594 1188v66c0 44 22 66 66 66s66 -22 66 -66v-66c0 -44 -22 -66 -66 -66s-66 22 -66 66z
" />
    <glyph glyph-name="divide" unicode="&#xf7;" 
d="M726 396h-528c-44 0 -66 22 -66 66s22 66 66 66h528c44 0 66 -22 66 -66s-22 -66 -66 -66zM396 198c0 44 22 66 66 66s66 -22 66 -66v-66c0 -44 -22 -66 -66 -66s-66 22 -66 66v66zM396 792c0 44 22 66 66 66s66 -22 66 -66v-66c0 -44 -22 -66 -66 -66s-66 22 -66 66v66z
" />
    <glyph glyph-name="oslash" unicode="&#xf8;" horiz-adv-x="1188" 
d="M911 685c8.66699 -26.667 13 -57 13 -91v-264c0 -91.333 -32.167 -169.166 -96.5 -233.499s-142.166 -96.5 -233.499 -96.5c-101.333 0 -185.333 38.667 -252 116l-97 -97c-12.667 -12.667 -28.334 -19 -47.001 -19c-44 0 -66 22 -66 66
c0 18.667 6.33301 34.334 19 47.001l126 126c-8.66699 26.667 -13 57 -13 91v264c0 91.333 32.167 169.166 96.5 233.499s142.166 96.5 233.499 96.5c102 0 186 -38.667 252 -116l97 97c12.667 12.667 28.334 19 47.001 19c44 0 66 -22 66 -66
c0 -18.667 -6.33301 -34.334 -19 -47.001zM792 566l-356.001 -356.001c39.333 -52 92 -78 158 -78c54.667 0 101.334 19.333 140.001 58s58 85.334 58 140.001v236zM751.999 713.999c-38 52 -90.666 78.001 -157.999 78.001c-54.667 0 -101.334 -19.333 -140.001 -58
s-58 -85.334 -58 -140.001v-236z" />
    <glyph glyph-name="ugrave" unicode="&#xf9;" 
d="M792 858v-792c0 -44 -22 -66 -66 -66h-330c-74 0 -136.5 25.5 -187.5 76.5s-76.5 113.5 -76.5 187.5v594c0 44 22 66 66 66s66 -22 66 -66v-594c0 -36 13 -67 39 -93s57 -39 93 -39h264v726c0 44 22 66 66 66s66 -22 66 -66zM264 1386c0 44 22 66 66 66
c15.333 0 28.666 -4.33301 39.999 -13l264 -198c17.333 -12.667 26 -30.334 26 -53.001c0 -44 -22 -66 -66 -66c-15.333 0 -28.666 4.33301 -39.999 13l-264 198c-17.333 12.667 -26 30.334 -26 53.001z" />
    <glyph glyph-name="uacute" unicode="&#xfa;" 
d="M792 858v-792c0 -44 -22 -66 -66 -66h-330c-74 0 -136.5 25.5 -187.5 76.5s-76.5 113.5 -76.5 187.5v594c0 44 22 66 66 66s66 -22 66 -66v-594c0 -36 13 -67 39 -93s57 -39 93 -39h264v726c0 44 22 66 66 66s66 -22 66 -66zM330 1122c-44 0 -66 22 -66 66
c0 22.667 8.66699 40.334 26 53.001l264 198c11.333 8.66699 24.666 13 39.999 13c44 0 66 -22 66 -66c0 -22.667 -8.66699 -40.334 -26 -53.001l-264 -198c-11.333 -8.66699 -24.666 -13 -39.999 -13z" />
    <glyph glyph-name="ucircumflex" unicode="&#xfb;" 
d="M792 858v-792c0 -44 -22 -66 -66 -66h-330c-74 0 -136.5 25.5 -187.5 76.5s-76.5 113.5 -76.5 187.5v594c0 44 22 66 66 66s66 -22 66 -66v-594c0 -36 13 -67 39 -93s57 -39 93 -39h264v726c0 44 22 66 66 66s66 -22 66 -66zM462 1291l-150 -150
c-12.667 -12.667 -28.667 -19 -48 -19c-44 0 -66 22 -66 66c0 18 6.66699 33.667 20 47l186 186c20.667 20.667 40 31 58 31s37.333 -10.333 58 -31l186 -186c13.333 -13.333 20 -29 20 -47c0 -44 -22 -66 -66 -66c-19.333 0 -35.333 6.33301 -48 19z" />
    <glyph glyph-name="udieresis" unicode="&#xfc;" 
d="M792 858v-792c0 -44 -22 -66 -66 -66h-330c-74 0 -136.5 25.5 -187.5 76.5s-76.5 113.5 -76.5 187.5v594c0 44 22 66 66 66s66 -22 66 -66v-594c0 -36 13 -67 39 -93s57 -39 93 -39h264v726c0 44 22 66 66 66s66 -22 66 -66zM198 1188v66c0 44 22 66 66 66s66 -22 66 -66
v-66c0 -44 -22 -66 -66 -66s-66 22 -66 66zM594 1188v66c0 44 22 66 66 66s66 -22 66 -66v-66c0 -44 -22 -66 -66 -66s-66 22 -66 66z" />
    <glyph glyph-name="yacute" unicode="&#xfd;" 
d="M282 -264l110 330.001l-256 771c-2.66699 8 -4 15 -4 21c0 44 22 66 66 66c32 0 53 -15 63 -45l201 -603l201 603c10 30 31 45 63 45c44 0 66 -22 66 -66c0 -6 -1.33301 -13 -4 -21l-395 -1188c-10 -30 -31 -45 -63 -45h-133c-44 0 -66 22 -66 66
c0 35.333 18.333 56.666 55 63.999c6 1.33301 38 2 96 2zM330 1122c-44 0 -66 22 -66 66c0 22.667 8.66699 40.334 26 53.001l264 198c11.333 8.66699 24.666 13 39.999 13c44 0 66 -22 66 -66c0 -22.667 -8.66699 -40.334 -26 -53.001l-264 -198
c-11.333 -8.66699 -24.666 -13 -39.999 -13z" />
    <glyph glyph-name="thorn" unicode="&#xfe;" 
d="M132 1188c0 44 22 65.998 66 65.998s66 -22 66 -66v-264h264c74 0 136.5 -25.667 187.5 -77s76.5 -113.666 76.5 -186.999v-396c0 -73.333 -25.5 -135.666 -76.5 -186.999s-113.5 -77 -187.5 -77h-264v-330c0 -44 -22 -66 -66 -66s-66 22 -66 66v1518zM264 791.998
l-0.00195312 -660h264c36.667 0 67.834 12.833 93.501 38.5s38.5 56.834 38.5 93.501v396c0 37.333 -12.667 68.666 -38 93.999s-56.666 38 -93.999 38h-264z" />
    <glyph glyph-name="ydieresis" unicode="&#xff;" 
d="M282 -264l110 330.001l-256 771c-2.66699 8 -4 15 -4 21c0 44 22 66 66 66c32 0 53 -15 63 -45l201 -603l201 603c10 30 31 45 63 45c44 0 66 -22 66 -66c0 -6 -1.33301 -13 -4 -21l-395 -1188c-10 -30 -31 -45 -63 -45h-133c-44 0 -66 22 -66 66
c0 35.333 18.333 56.666 55 63.999c6 1.33301 38 2 96 2zM198 1188v66c0 44 22 66 66 66s66 -22 66 -66v-66c0 -44 -22 -66 -66 -66s-66 22 -66 66zM594 1188v66c0 44 22 66 66 66s66 -22 66 -66v-66c0 -44 -22 -66 -66 -66s-66 22 -66 66z" />
    <glyph glyph-name="Amacron" unicode="&#x100;" horiz-adv-x="1188" 
d="M594 1044l-194 -582h388zM1056 66c0 -44 -22 -66 -66 -66c-32 0 -53 15 -63 45l-95 285h-476l-95 -285c-10 -30 -31 -45 -63 -45c-44 0 -66 22 -66 66c0 8 1 15 3 21l393 1180c12 35.333 34 53 66 53s53.667 -17 65 -51l394 -1182c2 -6 3 -13 3 -21zM924 1584h-660
c-44 0 -66 22 -66 66s22 66 66 66h660c44 0 66 -22 66 -66s-22 -66 -66 -66z" />
    <glyph glyph-name="amacron" unicode="&#x101;" horiz-adv-x="1056" 
d="M462 0c-74 0 -136.501 25.501 -187.501 76.501s-76.5 113.5 -76.5 187.5c0 48 11.667 92.333 35 133c50 87.333 126.333 131 229 131h264v132c0 37.333 -12.667 68.666 -38 93.999s-56.666 38 -93.999 38h-264c-44 0 -66 22 -66 66s22 66 66 66h264
c74 0 136.5 -25.5 187.5 -76.5s76.5 -113.5 76.5 -187.5v-594c0 -44 -22 -66 -66 -66h-330zM725.999 396.001l-263.999 0.000976562c-36.667 0 -67.834 -12.833 -93.501 -38.5s-38.5 -56.834 -38.5 -93.501c0 -36 13 -67 39 -93s57 -39 93 -39h264v264zM858 1188h-660
c-44 0 -66 22 -66 66s22 66 66 66h660c44 0 66 -22 66 -66s-22 -66 -66 -66z" />
    <glyph glyph-name="Abreve" unicode="&#x102;" horiz-adv-x="1188" 
d="M594 1044l-194 -582h388zM1056 66c0 -44 -22 -66 -66 -66c-32 0 -53 15 -63 45l-95 285h-476l-95 -285c-10 -30 -31 -45 -63 -45c-44 0 -66 22 -66 66c0 8 1 15 3 21l393 1180c12 35.333 34 53 66 53s53.667 -17 65 -51l394 -1182c2 -6 3 -13 3 -21zM858 1782
c0 -73.333 -25.6689 -135.667 -77.002 -187s-113.666 -77 -186.999 -77s-135.333 25.667 -186 77s-76 113.666 -76 186.999c0 44 21.333 66 64 66c44 0 66 -22 66 -66c0 -36 13 -67 39 -93s57 -39 93 -39c36.667 0 67.834 12.833 93.501 38.5s38.5 56.834 38.5 93.501
c0 18 6.5 33.5 19.5 46.5s28.5 19.5 46.5 19.5c44 0 66 -22 66 -66z" />
    <glyph glyph-name="abreve" unicode="&#x103;" 
d="M396 0c-74 0 -136.501 25.501 -187.501 76.501s-76.5 113.5 -76.5 187.5c0 48 11.667 92.333 35 133c50 87.333 126.333 131 229 131h264v132c0 37.333 -12.667 68.666 -38 93.999s-56.666 38 -93.999 38h-264c-44 0 -66 22 -66 66s22 66 66 66h264
c74 0 136.5 -25.5 187.5 -76.5s76.5 -113.5 76.5 -187.5v-594c0 -44 -22 -66 -66 -66h-330zM659.999 396.001l-263.999 0.000976562c-36.667 0 -67.834 -12.833 -93.501 -38.5s-38.5 -56.834 -38.5 -93.501c0 -36 13 -67 39 -93s57 -39 93 -39h264v264zM725 1452
c0 -73.333 -25.501 -135.667 -76.501 -187s-113.167 -77 -186.5 -77s-135.5 25.667 -186.5 77s-76.5 113.666 -76.5 186.999c0 44 21.667 66 65 66c44 0 66 -22 66 -66c0 -36 13 -67 39 -93s57 -39 93 -39c36.667 0 67.834 12.833 93.501 38.5s38.5 56.834 38.5 93.501
c0 18 6.5 33.5 19.5 46.5s28.5 19.5 46.5 19.5c43.333 0 65 -22 65 -66z" />
    <glyph glyph-name="Aogonek" unicode="&#x104;" horiz-adv-x="1188" 
d="M594 1044l-194 -582h388zM924 -264c-44 0 -66 22 -66 66c0 5.33301 0.666992 10.666 2 15.999l61 247l-89 265h-476l-95 -285c-10 -30 -31 -45 -63 -45c-44 0 -66 22 -66 66c0 8 1 15 3 21l393 1180c12 35.333 34 53 66 53s53.667 -17 65 -51l394 -1182c2 -6 3 -13 3 -21
c0 -5.33301 -0.666992 -10.666 -2 -15.999l-66 -264c-8 -33.333 -29.333 -50 -64 -50z" />
    <glyph glyph-name="aogonek" unicode="&#x105;" 
d="M660 396l-263.999 0.000976562c-36.667 0 -67.834 -12.833 -93.501 -38.5s-38.5 -56.834 -38.5 -93.501c0 -36 13 -67 39 -93s57 -39 93 -39h264v264zM792.001 66.001c0 -5.33301 -1.33398 -13.3301 -4.00098 -23.9971l-64 -256c-8 -33.333 -29.333 -50 -64 -50
c-44 0 -66 22 -66 66c0 5.33301 16 71.333 48 198h-246c-74 0 -136.5 25.667 -187.5 77s-76.5 113.666 -76.5 186.999s25.5 135.666 76.5 186.999s113.5 77 187.5 77h264v132c0 37.333 -12.667 68.666 -38 93.999s-56.666 38 -93.999 38h-264c-44 0 -66 22 -66 66
s22 66 66 66h264c74 0 136.5 -25.5 187.5 -76.5s76.5 -113.5 76.5 -187.5v-594z" />
    <glyph glyph-name="Cacute" unicode="&#x106;" 
d="M726 1320c44 0 65.998 -21.9961 65.998 -65.9961s-22 -66 -66 -66h-264c-55.333 0 -102.166 -19.333 -140.499 -58s-57.5 -85.334 -57.5 -140.001v-660c0 -54.667 19.333 -101.334 58 -140.001s85.334 -58 140.001 -58h264c44 0 66 -22 66 -66s-22 -66 -66 -66h-264
c-91.333 0 -169.166 32.167 -233.499 96.5s-96.5 142.166 -96.5 233.499v660c0 91.333 32.167 169.166 96.5 233.499s142.166 96.5 233.499 96.5h264zM329.998 1518c-44 0 -66 21.999 -66 65.999c0 22.667 8.66699 40.334 26 53.001l264 198
c11.333 8.66699 24.666 13 39.999 13c44 0 66 -22 66 -66c0 -22 -8.66699 -39.667 -26 -53l-264 -198c-11.333 -8.66699 -24.666 -13 -39.999 -13z" />
    <glyph glyph-name="cacute" unicode="&#x107;" horiz-adv-x="792" 
d="M264 660l0.000976562 -395.999c0 -36 13 -67 39 -93s57 -39 93 -39h198c44 0 66 -22 66 -66s-22 -66 -66 -66h-198c-74 0 -136.5 25.5 -187.5 76.5s-76.5 113.5 -76.5 187.5v396c0 74 25.5 136.5 76.5 187.5s113.5 76.5 187.5 76.5h198c44 0 66 -22 66 -66
s-22 -66 -66 -66h-198c-36.667 0 -67.834 -12.833 -93.501 -38.5s-38.5 -56.834 -38.5 -93.501zM264.001 1122c-44 0 -66 21.999 -66 65.999c0 22.667 8.66699 40.334 26 53.001l264 198c11.333 8.66699 24.666 13 39.999 13c44 0 66 -22 66 -66
c0 -22 -8.66699 -39.667 -26 -53l-264 -198c-11.333 -8.66699 -24.666 -13 -39.999 -13z" />
    <glyph glyph-name="Ccircumflex" unicode="&#x108;" 
d="M726 1320c44 0 65.998 -21.9961 65.998 -65.9961s-22 -66 -66 -66h-264c-55.333 0 -102.166 -19.333 -140.499 -58s-57.5 -85.334 -57.5 -140.001v-660c0 -54.667 19.333 -101.334 58 -140.001s85.334 -58 140.001 -58h264c44 0 66 -22 66 -66s-22 -66 -66 -66h-264
c-91.333 0 -169.166 32.167 -233.499 96.5s-96.5 142.166 -96.5 233.499v660c0 91.333 32.167 169.166 96.5 233.499s142.166 96.5 233.499 96.5h264zM461.998 1688l-150 -150c-13.333 -13.333 -29.333 -20 -48 -20c-44 0 -66 22 -66 66c0 18 6.66699 33.667 20 47l186 186
c20.667 20.667 40 31 58 31s37.333 -10.333 58 -31l186 -186c13.333 -13.333 20 -29 20 -47c0 -44 -22 -66 -66 -66c-18.667 0 -34.667 6.66699 -48 20z" />
    <glyph glyph-name="ccircumflex" unicode="&#x109;" horiz-adv-x="792" 
d="M264 660l0.000976562 -395.999c0 -36 13 -67 39 -93s57 -39 93 -39h198c44 0 66 -22 66 -66s-22 -66 -66 -66h-198c-74 0 -136.5 25.5 -187.5 76.5s-76.5 113.5 -76.5 187.5v396c0 74 25.5 136.5 76.5 187.5s113.5 76.5 187.5 76.5h198c44 0 66 -22 66 -66
s-22 -66 -66 -66h-198c-36.667 0 -67.834 -12.833 -93.501 -38.5s-38.5 -56.834 -38.5 -93.501zM396.001 1291l-150 -150c-12.667 -12.667 -28.667 -19 -48 -19c-44 0 -66 22 -66 66c0 18 6.66699 33.667 20 47l186 186c20.667 20.667 40 31 58 31s37.333 -10.333 58 -31
l186 -186c13.333 -13.333 20 -29 20 -47c0 -44 -22 -66 -66 -66c-19.333 0 -35.333 6.33301 -48 19z" />
    <glyph glyph-name="Cdot" unicode="&#x10a;" 
d="M726 1320c44 0 65.998 -21.9961 65.998 -65.9961s-22 -66 -66 -66h-264c-55.333 0 -102.166 -19.333 -140.499 -58s-57.5 -85.334 -57.5 -140.001v-660c0 -54.667 19.333 -101.334 58 -140.001s85.334 -58 140.001 -58h264c44 0 66 -22 66 -66s-22 -66 -66 -66h-264
c-91.333 0 -169.166 32.167 -233.499 96.5s-96.5 142.166 -96.5 233.499v660c0 91.333 32.167 169.166 96.5 233.499s142.166 96.5 233.499 96.5h264zM395.998 1584v66c0 44 22 66 66 66s66 -22 66 -66v-66c0 -44 -22 -66 -66 -66s-66 22 -66 66z" />
    <glyph glyph-name="cdot" unicode="&#x10b;" horiz-adv-x="792" 
d="M264 660l0.000976562 -395.999c0 -36 13 -67 39 -93s57 -39 93 -39h198c44 0 66 -22 66 -66s-22 -66 -66 -66h-198c-74 0 -136.5 25.5 -187.5 76.5s-76.5 113.5 -76.5 187.5v396c0 74 25.5 136.5 76.5 187.5s113.5 76.5 187.5 76.5h198c44 0 66 -22 66 -66
s-22 -66 -66 -66h-198c-36.667 0 -67.834 -12.833 -93.501 -38.5s-38.5 -56.834 -38.5 -93.501zM330.001 1188v66c0 44 22 66 66 66s66 -22 66 -66v-66c0 -44 -22 -66 -66 -66s-66 22 -66 66z" />
    <glyph glyph-name="Ccaron" unicode="&#x10c;" 
d="M726 1320c44 0 65.998 -21.9961 65.998 -65.9961s-22 -66 -66 -66h-264c-55.333 0 -102.166 -19.333 -140.499 -58s-57.5 -85.334 -57.5 -140.001v-660c0 -54.667 19.333 -101.334 58 -140.001s85.334 -58 140.001 -58h264c44 0 66 -22 66 -66s-22 -66 -66 -66h-264
c-91.333 0 -169.166 32.167 -233.499 96.5s-96.5 142.166 -96.5 233.499v660c0 91.333 32.167 169.166 96.5 233.499s142.166 96.5 233.499 96.5h264zM461.998 1679l150 150c12.667 12.667 28.667 19 48 19c44 0 66 -22 66 -66c0 -18 -6.66699 -33.667 -20 -47l-186 -186
c-20.667 -20.667 -40 -31 -58 -31s-37.333 10.333 -58 31l-186 186c-13.333 13.333 -20 29 -20 47c0 44 22 66 66 66c19.333 0 35.333 -6.33301 48 -19z" />
    <glyph glyph-name="ccaron" unicode="&#x10d;" horiz-adv-x="792" 
d="M264 660l0.000976562 -395.999c0 -36 13 -67 39 -93s57 -39 93 -39h198c44 0 66 -22 66 -66s-22 -66 -66 -66h-198c-74 0 -136.5 25.5 -187.5 76.5s-76.5 113.5 -76.5 187.5v396c0 74 25.5 136.5 76.5 187.5s113.5 76.5 187.5 76.5h198c44 0 66 -22 66 -66
s-22 -66 -66 -66h-198c-36.667 0 -67.834 -12.833 -93.501 -38.5s-38.5 -56.834 -38.5 -93.501zM396.001 1282l150 150c13.333 13.333 29.333 20 48 20c44 0 66 -22 66 -66c0 -18 -6.66699 -33.667 -20 -47l-186 -186c-20.667 -20.667 -40 -31 -58 -31
s-37.333 10.333 -58 31l-186 186c-13.333 13.333 -20 29 -20 47c0 44 22 66 66 66c18.667 0 34.667 -6.66699 48 -20z" />
    <glyph glyph-name="Dcaron" unicode="&#x10e;" horiz-adv-x="1056" 
d="M132 1254c0 44 21.998 66 65.998 66h396c92.667 0 170.834 -31.833 234.501 -95.5s95.5 -141.834 95.5 -234.501v-660c0 -91.333 -32.167 -169.166 -96.5 -233.499s-142.166 -96.5 -233.499 -96.5h-396c-44 0 -66 22 -66 66v1188zM263.998 1188v-1056h330
c54.667 0 101.334 19.333 140.001 58s58 85.334 58 140.001v660c0 54.667 -19.333 101.334 -58 140.001s-85.334 58 -140.001 58h-330zM527.998 1679l150 150c12.667 12.667 28.667 19 48 19c44 0 66 -22 66 -66c0 -18 -6.66699 -33.667 -20 -47l-186 -186
c-20.667 -20.667 -40 -31 -58 -31s-37.333 10.333 -58 31l-186 186c-13.333 13.333 -20 29 -20 47c0 44 22 66 66 66c19.333 0 35.333 -6.33301 48 -19z" />
    <glyph glyph-name="dcaron" unicode="&#x10f;" horiz-adv-x="1254" 
d="M132 660c0 73.333 25.5 135.667 76.5 187s113.5 77 187.5 77h264v330c0 44 22 66 66 66s66 -22 66 -66v-1188c0 -44 -22 -66 -66 -66h-330c-74 0 -136.5 25.5 -187.5 76.5s-76.5 113.5 -76.5 187.5v396zM396 792.001c-36.667 0 -67.833 -12.832 -93.5 -38.499
s-38.5 -56.834 -38.5 -93.501v-396c0 -36 13 -67 39 -93s57 -39 93 -39h264v660h-264zM990.001 990.002v264c0 44 22 66 66 66s66 -22 66 -66v-264c0 -44 -22 -66 -66 -66s-66 22 -66 66z" />
    <glyph glyph-name="Dslash" unicode="&#x110;" horiz-adv-x="1254" 
d="M330 594h-132.002c-44 0 -66 22 -66 66s22 66 66 66h132v528c0 44 22 66 66 66h396c92.667 0 170.834 -31.833 234.501 -95.5s95.5 -141.834 95.5 -234.501v-660c0 -91.333 -32.167 -169.166 -96.5 -233.499s-142.166 -96.5 -233.499 -96.5h-396c-44 0 -66 22 -66 66v528
zM461.998 594v-462.002h330c54.667 0 101.334 19.333 140.001 58s58 85.334 58 140.001v660c0 54.667 -19.333 101.334 -58 140.001s-85.334 58 -140.001 58h-330v-462h132c44 0 66 -22 66 -66s-22 -66 -66 -66h-132z" />
    <glyph glyph-name="dcroat" unicode="&#x111;" horiz-adv-x="1188" 
d="M660 1188l-198 0.000976562c-44 0 -66 22 -66 66s22 66 66 66h198v264c0 44 22 66 66 66s66 -22 66 -66v-264h198c44 0 66 -22 66 -66s-22 -66 -66 -66h-198v-1122c0 -44 -22 -66 -66 -66h-330c-74 0 -136.5 25.5 -187.5 76.5s-76.5 113.5 -76.5 187.5v396
c0 73.333 25.5 135.666 76.5 186.999s113.5 77 187.5 77h264v264zM396 792.001c-36.667 0 -67.833 -12.832 -93.5 -38.499s-38.5 -56.834 -38.5 -93.501v-396c0 -36 13 -67 39 -93s57 -39 93 -39h264v660h-264z" />
    <glyph glyph-name="Emacron" unicode="&#x112;" horiz-adv-x="1056" 
d="M198 66v1188c0 44 22 66 66 66h528c44 0 66 -22 66 -66s-22 -66 -66 -66h-462v-396h330c44 0 66 -22 66 -66s-22 -66 -66 -66h-330v-528h462c44 0 66 -22 66 -66s-22 -66 -66 -66h-528c-44 0 -66 22 -66 66zM858 1584h-660c-44 0 -66 22 -66 66s22 66 66 66h660
c44 0 66 -22 66 -66s-22 -66 -66 -66z" />
    <glyph glyph-name="emacron" unicode="&#x113;" horiz-adv-x="1056" 
d="M528 792c-54.667 0 -101.332 -19.333 -139.999 -58s-58 -85.334 -58 -140.001v-66h396v66c0 54.667 -19.333 101.334 -58 140.001s-85.334 58 -140.001 58zM330.002 396v-131.998c0 -36 13 -67 39 -93s57 -39 93 -39h330c44 0 66 -22 66 -66s-22 -66 -66 -66h-330
c-74 0 -136.5 25.5 -187.5 76.5s-76.5 113.5 -76.5 187.5v330c0 91.333 32.167 169.166 96.5 233.499s142.166 96.5 233.499 96.5c92.667 0 170.834 -31.833 234.501 -95.5s95.5 -141.834 95.5 -234.501v-198h-528zM858.002 1188h-660c-44 0 -66 22 -66 66s22 66 66 66h660
c44 0 66 -22 66 -66s-22 -66 -66 -66z" />
    <glyph glyph-name="Ebreve" unicode="&#x114;" 
d="M132 66v1188c0 44 22 66 66 66h528c44 0 66 -22 66 -66s-22 -66 -66 -66h-462v-396h330c44 0 66 -22 66 -66s-22 -66 -66 -66h-330v-528h462c44 0 66 -22 66 -66s-22 -66 -66 -66h-528c-44 0 -66 22 -66 66zM725 1782c0 -73.333 -25.501 -135.667 -76.501 -187
s-113.167 -77 -186.5 -77s-135.5 25.667 -186.5 77s-76.5 113.666 -76.5 186.999c0 44 21.667 66 65 66c44 0 66 -22 66 -66c0 -36 13 -67 39 -93s57 -39 93 -39c36.667 0 67.834 12.833 93.501 38.5s38.5 56.834 38.5 93.501c0 18 6.5 33.5 19.5 46.5s28.5 19.5 46.5 19.5
c43.333 0 65 -22 65 -66z" />
    <glyph glyph-name="ebreve" unicode="&#x115;" 
d="M462 792c-54.667 0 -101.332 -19.333 -139.999 -58s-58 -85.334 -58 -140.001v-66h396v66c0 54.667 -19.333 101.334 -58 140.001s-85.334 58 -140.001 58zM264.002 396v-131.998c0 -36 13 -67 39 -93s57 -39 93 -39h330c44 0 66 -22 66 -66s-22 -66 -66 -66h-330
c-74 0 -136.5 25.5 -187.5 76.5s-76.5 113.5 -76.5 187.5v330c0 91.333 32.167 169.166 96.5 233.499s142.166 96.5 233.499 96.5c92.667 0 170.834 -31.833 234.501 -95.5s95.5 -141.834 95.5 -234.501v-198h-528zM725.002 1452c0 -73.333 -25.501 -135.667 -76.501 -187
s-113.167 -77 -186.5 -77s-135.5 25.667 -186.5 77s-76.5 113.666 -76.5 186.999c0 44 21.667 66 65 66c44 0 66 -22 66 -66c0 -36 13 -67 39 -93s57 -39 93 -39c36.667 0 67.834 12.833 93.501 38.5s38.5 56.834 38.5 93.501c0 18 6.5 33.5 19.5 46.5s28.5 19.5 46.5 19.5
c43.333 0 65 -22 65 -66z" />
    <glyph glyph-name="Edot" unicode="&#x116;" 
d="M132 66v1188c0 44 22 66 66 66h528c44 0 66 -22 66 -66s-22 -66 -66 -66h-462v-396h330c44 0 66 -22 66 -66s-22 -66 -66 -66h-330v-528h462c44 0 66 -22 66 -66s-22 -66 -66 -66h-528c-44 0 -66 22 -66 66zM396 1584v66c0 44 22 66 66 66s66 -22 66 -66v-66
c0 -44 -22 -66 -66 -66s-66 22 -66 66z" />
    <glyph glyph-name="edot" unicode="&#x117;" 
d="M462 792c-54.667 0 -101.332 -19.333 -139.999 -58s-58 -85.334 -58 -140.001v-66h396v66c0 54.667 -19.333 101.334 -58 140.001s-85.334 58 -140.001 58zM264.002 396v-131.998c0 -36 13 -67 39 -93s57 -39 93 -39h330c44 0 66 -22 66 -66s-22 -66 -66 -66h-330
c-74 0 -136.5 25.5 -187.5 76.5s-76.5 113.5 -76.5 187.5v330c0 91.333 32.167 169.166 96.5 233.499s142.166 96.5 233.499 96.5c92.667 0 170.834 -31.833 234.501 -95.5s95.5 -141.834 95.5 -234.501v-198h-528zM396.002 1188v66c0 44 22 66 66 66s66 -22 66 -66v-66
c0 -44 -22 -66 -66 -66s-66 22 -66 66z" />
    <glyph glyph-name="Eogonek" unicode="&#x118;" 
d="M660 -264c-44 0 -66 22 -66 66c0 5.33301 16 71.333 48 198h-444c-44 0 -66 22 -66 66v1188c0 44 22 66 66 66h528c44 0 66 -22 66 -66s-22 -66 -66 -66h-462v-396h330c44 0 66 -22 66 -66s-22 -66 -66 -66h-330v-528h462c44 0 66 -22 66 -66
c0 -5.33301 -1.33301 -13.333 -4 -24l-64 -256c-8 -33.333 -29.333 -50 -64 -50z" />
    <glyph glyph-name="eogonek" unicode="&#x119;" 
d="M462 792c-54.667 0 -101.332 -19.333 -139.999 -58s-58 -85.334 -58 -140.001v-66h396v66c0 54.667 -19.333 101.334 -58 140.001s-85.334 58 -140.001 58zM660.002 -264c-44 0 -66 22.0029 -66 66.0029c0 5.33301 16 71.333 48 198h-246c-74 0 -136.5 25.667 -187.5 77
s-76.5 113.666 -76.5 186.999v330c0 91.333 32.167 169.166 96.5 233.499s142.166 96.5 233.499 96.5c92.667 0 170.834 -31.833 234.501 -95.5s95.5 -141.834 95.5 -234.501v-198h-528v-132c0 -36 13 -67 39 -93s57 -39 93 -39h330c44 0 66 -22 66 -66
c0 -5.33301 -1.33301 -13.333 -4 -24l-64 -256c-8 -33.333 -29.333 -50 -64 -50z" />
    <glyph glyph-name="Ecaron" unicode="&#x11a;" 
d="M132 66v1188c0 44 22 66 66 66h528c44 0 66 -22 66 -66s-22 -66 -66 -66h-462v-396h330c44 0 66 -22 66 -66s-22 -66 -66 -66h-330v-528h462c44 0 66 -22 66 -66s-22 -66 -66 -66h-528c-44 0 -66 22 -66 66zM462 1679l150 150c12.667 12.667 28.667 19 48 19
c44 0 66 -22 66 -66c0 -18 -6.66699 -33.667 -20 -47l-186 -186c-20.667 -20.667 -40 -31 -58 -31s-37.333 10.333 -58 31l-186 186c-13.333 13.333 -20 29 -20 47c0 44 22 66 66 66c19.333 0 35.333 -6.33301 48 -19z" />
    <glyph glyph-name="ecaron" unicode="&#x11b;" 
d="M462 792c-54.667 0 -101.332 -19.333 -139.999 -58s-58 -85.334 -58 -140.001v-66h396v66c0 54.667 -19.333 101.334 -58 140.001s-85.334 58 -140.001 58zM264.002 396v-131.998c0 -36 13 -67 39 -93s57 -39 93 -39h330c44 0 66 -22 66 -66s-22 -66 -66 -66h-330
c-74 0 -136.5 25.5 -187.5 76.5s-76.5 113.5 -76.5 187.5v330c0 91.333 32.167 169.166 96.5 233.499s142.166 96.5 233.499 96.5c92.667 0 170.834 -31.833 234.501 -95.5s95.5 -141.834 95.5 -234.501v-198h-528zM462.002 1282l150 150c13.333 13.333 29.333 20 48 20
c44 0 66 -22 66 -66c0 -18 -6.66699 -33.667 -20 -47l-186 -186c-20.667 -20.667 -40 -31 -58 -31s-37.333 10.333 -58 31l-186 186c-13.333 13.333 -20 29 -20 47c0 44 22 66 66 66c18.667 0 34.667 -6.66699 48 -20z" />
    <glyph glyph-name="Gcircumflex" unicode="&#x11c;" horiz-adv-x="1056" 
d="M462 132l330 0.00195312v528h-132c-44 0 -66 22 -66 66s22 66 66 66h198c44 0 66 -22 66 -66v-660c0 -44 -22 -66 -66 -66h-396c-91.333 0 -169.166 32.167 -233.499 96.5s-96.5 142.166 -96.5 233.499v660c0 91.333 32.167 169.166 96.5 233.499
s142.166 96.5 233.499 96.5h396c44 0 66 -22 66 -66s-22 -66 -66 -66h-396c-55.333 0 -102.166 -19.333 -140.499 -58s-57.5 -85.334 -57.5 -140.001v-660c0 -55.333 19.167 -102.166 57.5 -140.499s85.166 -57.5 140.499 -57.5zM528 1688l-150 -150
c-13.333 -13.333 -29.333 -20 -48 -20c-44 0 -66 22 -66 66c0 18 6.66699 33.667 20 47l186 186c20.667 20.667 40 31 58 31s37.333 -10.333 58 -31l186 -186c13.333 -13.333 20 -29 20 -47c0 -44 -22 -66 -66 -66c-18.667 0 -34.667 6.66699 -48 20z" />
    <glyph glyph-name="gcircumflex" unicode="&#x11d;" 
d="M726 924c44 0 65.999 -22 65.999 -66v-990c0 -74 -25.5 -136.5 -76.5 -187.5s-113.5 -76.5 -187.5 -76.5h-264c-44 0 -66 22 -66 66s22 66 66 66h264c36.667 0 67.834 12.833 93.501 38.5s38.5 56.834 38.5 93.501v132h-264c-74 0 -136.5 25.667 -187.5 77
s-76.5 113.666 -76.5 186.999v396c0 74 25.5 136.5 76.5 187.5s113.5 76.5 187.5 76.5h330zM659.999 792l-263.999 0.000976562c-36.667 0 -67.834 -12.833 -93.501 -38.5s-38.5 -56.834 -38.5 -93.501v-396c0 -36 13 -67 39 -93s57 -39 93 -39h264v660zM462 1292l-150 -150
c-13.333 -13.333 -29.333 -20 -48 -20c-44 0 -66 22 -66 66c0 18 6.66699 33.667 20 47l186 186c20.667 20.667 40 31 58 31s37.333 -10.333 58 -31l186 -186c13.333 -13.333 20 -29 20 -47c0 -44 -22 -66 -66 -66c-18.667 0 -34.667 6.66699 -48 20z" />
    <glyph glyph-name="Gbreve" unicode="&#x11e;" horiz-adv-x="1056" 
d="M462 132l330 0.00195312v528h-132c-44 0 -66 22 -66 66s22 66 66 66h198c44 0 66 -22 66 -66v-660c0 -44 -22 -66 -66 -66h-396c-91.333 0 -169.166 32.167 -233.499 96.5s-96.5 142.166 -96.5 233.499v660c0 91.333 32.167 169.166 96.5 233.499
s142.166 96.5 233.499 96.5h396c44 0 66 -22 66 -66s-22 -66 -66 -66h-396c-55.333 0 -102.166 -19.333 -140.499 -58s-57.5 -85.334 -57.5 -140.001v-660c0 -55.333 19.167 -102.166 57.5 -140.499s85.166 -57.5 140.499 -57.5zM792 1782
c0 -73.333 -25.6699 -135.667 -77.0029 -187s-113.666 -77 -186.999 -77s-135.666 25.667 -186.999 77s-77 113.666 -77 186.999c0 44 21.667 66 65 66c44.667 0 67 -22 67 -66c0 -36 13 -67 39 -93s57 -39 93 -39c36.667 0 67.834 12.833 93.501 38.5
s38.5 56.834 38.5 93.501c0 18 6.66699 33.5 20 46.5s29 19.5 47 19.5c43.333 0 65 -22 65 -66z" />
    <glyph glyph-name="gbreve" unicode="&#x11f;" 
d="M726 924c44 0 65.999 -22 65.999 -66v-990c0 -74 -25.5 -136.5 -76.5 -187.5s-113.5 -76.5 -187.5 -76.5h-264c-44 0 -66 22 -66 66s22 66 66 66h264c36.667 0 67.834 12.833 93.501 38.5s38.5 56.834 38.5 93.501v132h-264c-74 0 -136.5 25.667 -187.5 77
s-76.5 113.666 -76.5 186.999v396c0 74 25.5 136.5 76.5 187.5s113.5 76.5 187.5 76.5h330zM659.999 792l-263.999 0.000976562c-36.667 0 -67.834 -12.833 -93.501 -38.5s-38.5 -56.834 -38.5 -93.501v-396c0 -36 13 -67 39 -93s57 -39 93 -39h264v660zM725 1452
c0 -73.333 -25.501 -135.667 -76.501 -187s-113.167 -77 -186.5 -77s-135.5 25.667 -186.5 77s-76.5 113.666 -76.5 186.999c0 44 21.667 66 65 66c44 0 66 -22 66 -66c0 -36 13 -67 39 -93s57 -39 93 -39c36.667 0 67.834 12.833 93.501 38.5s38.5 56.834 38.5 93.501
c0 18 6.5 33.5 19.5 46.5s28.5 19.5 46.5 19.5c43.333 0 65 -22 65 -66z" />
    <glyph glyph-name="Gdot" unicode="&#x120;" horiz-adv-x="1056" 
d="M462 132l330 0.00195312v528h-132c-44 0 -66 22 -66 66s22 66 66 66h198c44 0 66 -22 66 -66v-660c0 -44 -22 -66 -66 -66h-396c-91.333 0 -169.166 32.167 -233.499 96.5s-96.5 142.166 -96.5 233.499v660c0 91.333 32.167 169.166 96.5 233.499
s142.166 96.5 233.499 96.5h396c44 0 66 -22 66 -66s-22 -66 -66 -66h-396c-55.333 0 -102.166 -19.333 -140.499 -58s-57.5 -85.334 -57.5 -140.001v-660c0 -55.333 19.167 -102.166 57.5 -140.499s85.166 -57.5 140.499 -57.5zM462 1584v66c0 44 22 66 66 66
s66 -22 66 -66v-66c0 -44 -22 -66 -66 -66s-66 22 -66 66z" />
    <glyph glyph-name="gdot" unicode="&#x121;" 
d="M726 924c44 0 65.999 -22 65.999 -66v-990c0 -74 -25.5 -136.5 -76.5 -187.5s-113.5 -76.5 -187.5 -76.5h-264c-44 0 -66 22 -66 66s22 66 66 66h264c36.667 0 67.834 12.833 93.501 38.5s38.5 56.834 38.5 93.501v132h-264c-74 0 -136.5 25.667 -187.5 77
s-76.5 113.666 -76.5 186.999v396c0 74 25.5 136.5 76.5 187.5s113.5 76.5 187.5 76.5h330zM659.999 792l-263.999 0.000976562c-36.667 0 -67.834 -12.833 -93.501 -38.5s-38.5 -56.834 -38.5 -93.501v-396c0 -36 13 -67 39 -93s57 -39 93 -39h264v660zM396 1188v66
c0 44 22 66 66 66s66 -22 66 -66v-66c0 -44 -22 -66 -66 -66s-66 22 -66 66z" />
    <glyph glyph-name="Gcedilla" unicode="&#x122;" horiz-adv-x="1056" 
d="M646 0l-54 -213.998c-8.66699 -33.333 -30 -50 -64 -50c-44 0 -66 22 -66 66c0 5.33301 16 71.333 48 198h-48c-91.333 0 -169.166 32.167 -233.499 96.5s-96.5 142.166 -96.5 233.499v660c0 91.333 32.167 169.166 96.5 233.499s142.166 96.5 233.499 96.5h396
c44 0 66 -22 66 -66s-22 -66 -66 -66h-396c-55.333 0 -102.166 -19.333 -140.499 -58s-57.5 -85.334 -57.5 -140.001v-660c0 -55.333 19.167 -102.166 57.5 -140.499s85.166 -57.5 140.499 -57.5h330v528h-132c-44 0 -66 22 -66 66s22 66 66 66h198c44 0 66 -22 66 -66v-660
c0 -44 -22 -66 -66 -66h-212z" />
    <glyph glyph-name="gcedilla" unicode="&#x123;" 
d="M726 924c44 0 65.999 -22 65.999 -66v-990c0 -74 -25.5 -136.5 -76.5 -187.5s-113.5 -76.5 -187.5 -76.5h-264c-44 0 -66 22 -66 66s22 66 66 66h264c36.667 0 67.834 12.833 93.501 38.5s38.5 56.834 38.5 93.501v132h-264c-74 0 -136.5 25.667 -187.5 77
s-76.5 113.666 -76.5 186.999v396c0 74 25.5 136.5 76.5 187.5s113.5 76.5 187.5 76.5h330zM659.999 792l-263.999 0.000976562c-36.667 0 -67.834 -12.833 -93.501 -38.5s-38.5 -56.834 -38.5 -93.501v-396c0 -36 13 -67 39 -93s57 -39 93 -39h264v660zM528 1518
c44 0 66 -21.666 66 -64.999c0 -6 -0.666992 -11.667 -2 -17l-66 -264c-8 -33.333 -29.333 -50 -64 -50c-44 0 -66 22 -66 66c0 5.33301 22.667 98.666 68 279.999c8 33.333 29.333 50 64 50z" />
    <glyph glyph-name="Hcircumflex" unicode="&#x124;" horiz-adv-x="1056" 
d="M132 66v1188c0 44 22 66 66 66s66 -22 66 -66v-462h528v462c0 44 22 66 66 66s66 -22 66 -66v-1188c0 -44 -22 -66 -66 -66s-66 22 -66 66v594h-528v-594c0 -44 -22 -66 -66 -66s-66 22 -66 66zM528 1688l-150 -150c-13.333 -13.333 -29.333 -20 -48 -20
c-44 0 -66 22 -66 66c0 18 6.66699 33.667 20 47l186 186c20.667 20.667 40 31 58 31s37.333 -10.333 58 -31l186 -186c13.333 -13.333 20 -29 20 -47c0 -44 -22 -66 -66 -66c-18.667 0 -34.667 6.66699 -48 20z" />
    <glyph glyph-name="hcircumflex" unicode="&#x125;" 
d="M132 1254c0 44 21.998 66.001 65.998 66.001s66 -22 66 -66v-330h264c72.667 0 134.834 -25.333 186.501 -76s77.5 -111.667 77.5 -183v-599c0 -44 -22 -66 -66 -66s-66 22 -66 66v594c0 37.333 -12.667 68.666 -38 93.999s-56.666 38 -93.999 38h-264v-726
c0 -44 -22 -66 -66 -66s-66 22 -66 66v1188zM461.998 1688l-150 -150c-13.333 -13.333 -29.333 -20 -48 -20c-44 0 -66 22 -66 66c0 18 6.66699 33.667 20 47l186 186c20.667 20.667 40 31 58 31s37.333 -10.333 58 -31l186 -186c13.333 -13.333 20 -29 20 -47
c0 -44 -22 -66 -66 -66c-18.667 0 -34.667 6.66699 -48 20z" />
    <glyph glyph-name="Hbar" unicode="&#x126;" horiz-adv-x="1452" 
d="M1122 1188v-1122c0 -44 -22 -66 -66 -66s-66 22 -66 66v594h-528v-594c0 -44 -22 -66 -66 -66s-66 22 -66 66v1122h-132c-44 0 -66 22 -66 66s22 66 66 66h132v264c0 44 22 66 66 66s66 -22 66 -66v-264h528v264c0 44 22 66 66 66s66 -22 66 -66v-264h132
c44 0 66 -22 66 -66s-22 -66 -66 -66h-132zM990 1188h-528v-396h528v396z" />
    <glyph glyph-name="hbar" unicode="&#x127;" horiz-adv-x="1122" 
d="M462 1188l-0.00195312 -263.999h264c72.667 0 134.834 -25.333 186.501 -76s77.5 -111.667 77.5 -183v-599c0 -44 -22 -66 -66 -66s-66 22 -66 66v594c0 37.333 -12.667 68.666 -38 93.999s-56.666 38 -93.999 38h-264v-726c0 -44 -22 -66 -66 -66s-66 22 -66 66v1122
h-132c-44 0 -66 22 -66 66s22 66 66 66h132v264c0 44 22 66 66 66s66 -22 66 -66v-264h132c44 0 66 -22 66 -66s-22 -66 -66 -66h-132z" />
    <glyph glyph-name="Itilde" unicode="&#x128;" 
d="M462 0c-44 0 -66 22 -66 66v1188c0 44 22 66 66 66s66 -22 66 -66v-1188c0 -44 -22 -66 -66 -66zM594 1584c-47.333 0 -98.6689 22.001 -154.002 66.001s-92 66 -110 66c-17.333 0 -39.166 -11 -65.499 -33s-48.5 -33 -66.5 -33c-17.333 0 -32.666 6.66699 -45.999 20
s-20 28.666 -20 45.999c0 22 9 39.667 27 53c42 31.333 68.333 50 79 56c28 15.333 58.667 23 92 23c46 0 97.167 -22 153.5 -66s93.166 -66 110.499 -66c18 0 40.333 11 67 33s48.334 33 65.001 33c44 0 66 -22 66 -66c0 -20 -9 -38 -27 -54l-52 -38
c-36 -26.667 -75.667 -40 -119 -40z" />
    <glyph glyph-name="itilde" unicode="&#x129;" 
d="M396 858c0 44 22 66 66 66s66 -22 66 -66v-792c0 -44 -22 -66 -66 -66s-66 22 -66 66v792zM594 1122c-47.333 0 -98.6689 22.001 -154.002 66.001s-92 66 -110 66c-17.333 0 -39.166 -11 -65.499 -33s-48.5 -33 -66.5 -33c-17.333 0 -32.666 6.66699 -45.999 20
s-20 28.666 -20 45.999c0 22 9 39.667 27 53c42 31.333 68.333 50 79 56c28 15.333 58.667 23 92 23c46 0 97.167 -22 153.5 -66s93.166 -66 110.499 -66c18 0 40.333 11 67 33s48.334 33 65.001 33c44 0 66 -22 66 -66c0 -20 -9 -38 -27 -54l-52 -38
c-36 -26.667 -75.667 -40 -119 -40z" />
    <glyph glyph-name="Imacron" unicode="&#x12a;" horiz-adv-x="1056" 
d="M528 0c-44 0 -66 22 -66 66v1188c0 44 22 66 66 66s66 -22 66 -66v-1188c0 -44 -22 -66 -66 -66zM858 1584h-660c-44 0 -66 22 -66 66s22 66 66 66h660c44 0 66 -22 66 -66s-22 -66 -66 -66z" />
    <glyph glyph-name="imacron" unicode="&#x12b;" horiz-adv-x="1056" 
d="M462 858c0 44 22 66 66 66s66 -22 66 -66v-792c0 -44 -22 -66 -66 -66s-66 22 -66 66v792zM858 1188h-660c-44 0 -66 22 -66 66s22 66 66 66h660c44 0 66 -22 66 -66s-22 -66 -66 -66z" />
    <glyph glyph-name="Ibreve" unicode="&#x12c;" horiz-adv-x="792" 
d="M396 0c-44 0 -66 22 -66 66v1188c0 44 22 66 66 66s66 -22 66 -66v-1188c0 -44 -22 -66 -66 -66zM660 1782c0 -73.333 -25.6699 -135.667 -77.0029 -187s-113.666 -77 -186.999 -77s-135.666 25.667 -186.999 77s-77 113.666 -77 186.999c0 44 22 66 66 66s66 -22 66 -66
c0 -36 13 -67 39 -93s57 -39 93 -39c36.667 0 67.834 12.833 93.501 38.5s38.5 56.834 38.5 93.501c0 18 6.5 33.5 19.5 46.5s28.5 19.5 46.5 19.5c44 0 66 -22 66 -66z" />
    <glyph glyph-name="ibreve" unicode="&#x12d;" horiz-adv-x="792" 
d="M330 858c0 44 22 66 66 66s66 -22 66 -66v-792c0 -44 -22 -66 -66 -66s-66 22 -66 66v792zM660 1452c0 -73.333 -25.6699 -135.667 -77.0029 -187s-113.666 -77 -186.999 -77s-135.666 25.667 -186.999 77s-77 113.666 -77 186.999c0 44 22 66 66 66s66 -22 66 -66
c0 -36 13 -67 39 -93s57 -39 93 -39c36.667 0 67.834 12.833 93.501 38.5s38.5 56.834 38.5 93.501c0 18 6.5 33.5 19.5 46.5s28.5 19.5 46.5 19.5c44 0 66 -22 66 -66z" />
    <glyph glyph-name="Iogonek" unicode="&#x12e;" horiz-adv-x="462" 
d="M330 71c0 -8.66699 -1.33301 -18.332 -4 -28.999l-64 -256c-8 -33.333 -29.333 -50 -64 -50c-44 0 -66 22 -66 66c0 5.33301 0.666992 10.666 2 15.999l64 256v1180c0 44 22 66 66 66s66 -22 66 -66v-1183z" />
    <glyph glyph-name="iogonek" unicode="&#x12f;" horiz-adv-x="462" 
d="M198 1188v66c0 44 22 66 66 66s66 -22 66 -66v-66c0 -44 -22 -66 -66 -66s-66 22 -66 66zM330 71c0 -8.66699 -1.33301 -18.332 -4 -28.999l-64 -256c-8 -33.333 -29.333 -50 -64 -50c-44 0 -66 22 -66 66c0 5.33301 0.666992 10.666 2 15.999l43 171
c6 16.667 13 45 21 85v261v523c0 44 22 66 66 66s66 -22 66 -66v-787z" />
    <glyph glyph-name="Idotaccent" unicode="&#x130;" horiz-adv-x="396" 
d="M198 0c-44 0 -66 22 -66 66v1188c0 44 22 66 66 66s66 -22 66 -66v-1188c0 -44 -22 -66 -66 -66zM132 1584v66c0 44 22 66 66 66s66 -22 66 -66v-66c0 -44 -22 -66 -66 -66s-66 22 -66 66z" />
    <glyph glyph-name="dotlessi" unicode="&#x131;" horiz-adv-x="396" 
d="M132 858c0 44 22 66 66 66s66 -22 66 -66v-792c0 -44 -22 -66 -66 -66s-66 22 -66 66v792z" />
    <glyph glyph-name="IJ" unicode="&#x132;" horiz-adv-x="1056" 
d="M198 0c-44 0 -66 22 -66 66v1188c0 44 22 66 66 66s66 -22 66 -66v-1188c0 -44 -22 -66 -66 -66zM924 1254v-924.001c0 -92 -32.167 -170 -96.5 -234s-142.166 -96 -233.499 -96h-132c-44 0 -66 22 -66 66s22 66 66 66h132c55.333 0 102.166 19.333 140.499 58
s57.5 85.334 57.5 140.001v924c0 44 22 66 66 66s66 -22 66 -66z" />
    <glyph glyph-name="ij" unicode="&#x133;" horiz-adv-x="726" 
d="M132 858c0 44 22 66 66 66s66 -22 66 -66v-792c0 -44 -22 -66 -66 -66s-66 22 -66 66v792zM132 1188v66c0 44 22 66 66 66s66 -22 66 -66v-66c0 -44 -22 -66 -66 -66s-66 22 -66 66zM528 1320c44 0 66 -22 66 -66v-66c0 -44 -22 -66 -66 -66s-66 22 -66 66v66
c0 44 22 66 66 66zM594 -132c0 -74 -25.499 -136.5 -76.499 -187.5s-113.5 -76.5 -187.5 -76.5h-66c-44 0 -66 22 -66 66s22 66 66 66h66c37.333 0 68.666 13 93.999 39s38 57 38 93v990c0 44 22 66 66 66s66 -22 66 -66v-990z" />
    <glyph glyph-name="Jcircumflex" unicode="&#x134;" horiz-adv-x="990" 
d="M594 1688l-150 -150c-13.333 -13.333 -29.333 -20 -48 -20c-44 0 -66 22 -66 66c0 18 6.66699 33.667 20 47l186 186c20.667 20.667 40 31 58 31s37.333 -10.333 58 -31l186 -186c13.333 -13.333 20 -29 20 -47c0 -44 -22 -66 -66 -66c-18.667 0 -34.667 6.66699 -48 20z
M660 1254v-924.001c0 -92 -32.167 -170 -96.5 -234s-142.166 -96 -233.499 -96h-132c-44 0 -66 22 -66 66s22 66 66 66h132c55.333 0 102.166 19.333 140.499 58s57.5 85.334 57.5 140.001v924c0 44 22 66 66 66s66 -22 66 -66z" />
    <glyph glyph-name="jcircumflex" unicode="&#x135;" horiz-adv-x="792" 
d="M396 1291l-150 -150c-12.667 -12.667 -28.667 -19 -48 -19c-44 0 -66 22 -66 66c0 18 6.66699 33.667 20 47l186 186c20.667 20.667 40 31 58 31s37.333 -10.333 58 -31l186 -186c13.333 -13.333 20 -29 20 -47c0 -44 -22 -66 -66 -66c-19.333 0 -35.333 6.33301 -48 19z
M462 -132c0 -74 -25.499 -136.5 -76.499 -187.5s-113.5 -76.5 -187.5 -76.5h-66c-44 0 -66 22 -66 66s22 66 66 66h66c37.333 0 68.666 13 93.999 39s38 57 38 93v990c0 44 22 66 66 66s66 -22 66 -66v-990z" />
    <glyph glyph-name="Kcedilla" unicode="&#x136;" horiz-adv-x="1056" 
d="M435 690l-170.998 -187.999v-436c0 -44 -22 -66 -66 -66s-66 22 -66 66v1188c0 44 22 66 66 66s66 -22 66 -66v-555l544 599c13.333 14.667 30 22 50 22c44 0 66 -22 66 -66c0 -16.667 -6 -31.667 -18 -45l-377 -415l386 -695c6 -10.667 9 -21.667 9 -33
c0 -16.667 -6.83301 -31.834 -20.5 -45.501s-28.834 -20.5 -45.501 -20.5c-26.667 0 -46.334 11.667 -59.001 35zM528.002 132.001c44 0 66 -21.666 66 -64.999c0 -6 -0.666992 -11.667 -2 -17l-66 -264c-8 -33.333 -29.333 -50 -64 -50c-44 0 -66 22 -66 66
c0 5.33301 22.667 98.666 68 279.999c8 33.333 29.333 50 64 50z" />
    <glyph glyph-name="kcedilla" unicode="&#x137;" 
d="M132 -264c-44 0 -65.999 22.0029 -65.999 66.0029c0 5.33301 0.666992 10.666 2 15.999l64 256v1180c0 44 22 66 66 66s66 -22 66 -66v-659l422 316c11.333 8.66699 24.666 13 39.999 13c44 0 66 -22 66 -66c0 -22.667 -8.66699 -40.334 -26 -53.001l-256 -192l275 -516
c4.66699 -8.66699 7 -19 7 -31c0 -18 -6.5 -33.5 -19.5 -46.5s-28.5 -19.5 -46.5 -19.5c-26 0 -45.333 11.667 -58 35l-265 497l-139 -103v-355c0 -10.667 -1.33301 -21.334 -4 -32.001l-64 -256c-8 -33.333 -29.333 -50 -64 -50z" />
    <glyph glyph-name="kgreenlandic" unicode="&#x138;" 
d="M264 490l414.998 414.999c12.667 12.667 28.334 19 47.001 19c44 0 66 -22 66 -66c0 -17.333 -6.66699 -32.666 -20 -45.999l-290 -290l297 -418c8.66699 -12 13 -25 13 -39c0 -43.333 -22 -65 -66 -65c-23.333 -0 -41.666 9.33301 -54.999 28l-284 399l-123 -123v-238
c0 -44 -22 -66 -66 -66s-66 22 -66 66v792c0 44 22 66 66 66s66 -22 66 -66v-368z" />
    <glyph glyph-name="Lacute" unicode="&#x139;" 
d="M132 1254c0 44 22 66 66 66s66 -22 66 -66v-1122h462c44 0 66 -22 66 -66s-22 -66 -66 -66h-528c-44 0 -66 22 -66 66v1188zM198 1518c-44 0 -66 21.999 -66 65.999c0 22.667 8.66699 40.334 26 53.001l264 198c11.333 8.66699 24.666 13 39.999 13c44 0 66 -22 66 -66
c0 -22 -8.66699 -39.667 -26 -53l-264 -198c-11.333 -8.66699 -24.666 -13 -39.999 -13z" />
    <glyph glyph-name="lacute" unicode="&#x13a;" horiz-adv-x="528" 
d="M198 1518c-44 0 -66 21.999 -66 65.999c0 22.667 8.66699 40.334 26 53.001l264 198c11.333 8.66699 24.666 13 39.999 13c44 0 66 -22 66 -66c0 -22 -8.66699 -39.667 -26 -53l-264 -198c-11.333 -8.66699 -24.666 -13 -39.999 -13zM132 1254c0 44 21.999 66 65.999 66
s66 -22 66 -66v-1056c0 -34 22 -56 66 -66s66 -32 66 -66c0 -44 -22 -66 -66 -66c-59.333 0 -107.166 17.5 -143.499 52.5s-54.5 83.5 -54.5 145.5v1056z" />
    <glyph glyph-name="Lcedilla" unicode="&#x13b;" 
d="M528 0l-66.999 -214c-10.667 -33.333 -32.334 -50 -65.001 -50c-44 0 -66 22 -66 66c0 4 20 70 60 198h-192c-44 0 -66 22 -66 66v1188c0 44 22 66 66 66s66 -22 66 -66v-1122h462c44 0 66 -22 66 -66s-22 -66 -66 -66h-198z" />
    <glyph glyph-name="lcedilla" unicode="&#x13c;" horiz-adv-x="858" 
d="M264 66c44 0 65.999 -21.667 65.999 -65c0 -6.66699 -1.66699 -15 -5 -25l-63 -190c-11.333 -33.333 -32.666 -50 -63.999 -50c-44 0 -66 22 -66 66c0 6.66699 1.66699 15 5 25l63 190c10.667 32.667 32 49 64 49zM461.999 1254c0 44 21.999 66 65.999 66s66 -22 66 -66
v-1056c0 -34 22 -56 66 -66s66 -32 66 -66c0 -44 -22 -66 -66 -66c-59.333 0 -107.166 17.5 -143.499 52.5s-54.5 83.5 -54.5 145.5v1056z" />
    <glyph glyph-name="Lcaron" unicode="&#x13d;" 
d="M132 1254c0 44 22 66 66 66s66 -22 66 -66v-1122h462c44 0 66 -22 66 -66s-22 -66 -66 -66h-528c-44 0 -66 22 -66 66v1188zM462 990v264c0 44 22 66 66 66s66 -22 66 -66v-264c0 -44 -22 -66 -66 -66s-66 22 -66 66z" />
    <glyph glyph-name="lcaron" unicode="&#x13e;" horiz-adv-x="726" 
d="M132 1254c0 44 21.999 66 65.999 66s66 -22 66 -66v-1056c0 -34 22 -56 66 -66s66 -32 66 -66c0 -44 -22 -66 -66 -66c-59.333 0 -107.166 17.5 -143.499 52.5s-54.5 83.5 -54.5 145.5v1056zM461.999 990v264c0 44 22 66 66 66s66 -22 66 -66v-264c0 -44 -22 -66 -66 -66
s-66 22 -66 66z" />
    <glyph glyph-name="Ldot" unicode="&#x13f;" 
d="M132 1254c0 44 22 66 66 66s66 -22 66 -66v-1122h462c44 0 66 -22 66 -66s-22 -66 -66 -66h-528c-44 0 -66 22 -66 66v1188zM462 660v66c0 44 22 66 66 66s66 -22 66 -66v-66c0 -44 -22 -66 -66 -66s-66 22 -66 66z" />
    <glyph glyph-name="ldot" unicode="&#x140;" horiz-adv-x="726" 
d="M462 660v66c0 44 22 66 66 66s66 -22 66 -66v-66c0 -44 -22 -66 -66 -66s-66 22 -66 66zM132 1254c0 44 21.999 66 65.999 66s66 -22 66 -66v-1056c0 -34 22 -56 66 -66s66 -32 66 -66c0 -44 -22 -66 -66 -66c-59.333 0 -107.166 17.5 -143.499 52.5
s-54.5 83.5 -54.5 145.5v1056z" />
    <glyph glyph-name="Lslash" unicode="&#x141;" horiz-adv-x="1122" 
d="M330 668l-95 -62.999c-11.333 -7.33301 -22.666 -11 -33.999 -11c-46 0 -69 21 -69 63c0 26 9.66699 45.333 29 58l169 113v426c0 44 22 66 66 66s66 -22 66 -66v-338l95 63c11.333 7.33301 23.666 11 36.999 11c44 0 66 -21.667 66 -65
c0 -24.667 -9.66699 -43.334 -29 -56.001l-169 -113v-624h462c44 0 66 -22 66 -66s-22 -66 -66 -66h-528c-44 0 -66 22 -66 66v602z" />
    <glyph glyph-name="lslash" unicode="&#x142;" horiz-adv-x="792" 
d="M330 668l-95 -62.999c-10.667 -7.33301 -22 -11 -34 -11c-46 0 -69 21 -69 63c0 26 9.66699 45.333 29 58l169 113v426c0 44 22 66 66 66s66 -22 66 -66v-338l95 63c11.333 7.33301 23.666 11 36.999 11c44 0 66 -21.667 66 -65c0 -24.667 -9.66699 -43.334 -29 -56.001
l-169 -113v-558c0 -44 21.333 -66 64 -66c18 0 33.833 -6.33301 47.5 -19s20.5 -28.334 20.5 -47.001c0 -44 -22 -66 -66 -66c-63.333 0 -112.666 18.333 -147.999 55c-33.333 34.667 -50 82.334 -50 143.001v470z" />
    <glyph glyph-name="Nacute" unicode="&#x143;" horiz-adv-x="1056" 
d="M792 321v933c0 44 22 66 66 66s66 -22 66 -66v-1188c0 -44 -22 -66 -66 -66c-26.667 0 -46 11 -58 33l-536 967v-934c0 -44 -22 -66 -66 -66s-66 22 -66 66v1188c0 44 22 66 66 66c26 0 46.333 -13 61 -39zM396 1518c-44 0 -66 22 -66 66
c0 22.667 8.66699 40.334 26 53.001l264 198c11.333 8.66699 24.666 13 39.999 13c44 0 66 -22 66 -66c0 -22.667 -8.66699 -40.334 -26 -53.001l-264 -198c-11.333 -8.66699 -24.666 -13 -39.999 -13z" />
    <glyph glyph-name="nacute" unicode="&#x144;" 
d="M132 66l-0.000976562 792.001c0 44 22 66 66 66h330c74 0 136.5 -25.5 187.5 -76.5s76.5 -113.5 76.5 -187.5v-594c0 -44 -22 -66 -66 -66s-66 22 -66 66v594c0 37.333 -12.667 68.666 -38 93.999s-56.666 38 -93.999 38h-264v-726c0 -44 -22 -66 -66 -66s-66 22 -66 66z
M329.999 1122c-44 0 -66 22 -66 66c0 22.667 8.66699 40.334 26 53.001l264 198c11.333 8.66699 24.666 13 39.999 13c44 0 66 -22 66 -66c0 -22.667 -8.66699 -40.334 -26 -53.001l-264 -198c-11.333 -8.66699 -24.666 -13 -39.999 -13z" />
    <glyph glyph-name="Ncedilla" unicode="&#x145;" horiz-adv-x="1056" 
d="M792 321v933c0 44 22 66 66 66s66 -22 66 -66v-1188c0 -44 -22 -66 -66 -66c-26.667 0 -46 11 -58 33l-536 967v-934c0 -44 -22 -66 -66 -66s-66 22 -66 66v1188c0 44 22 66 66 66c26 0 46.333 -13 61 -39zM528 132c44 0 66 -21.666 66 -64.999
c0 -6 -0.666992 -11.667 -2 -17l-66 -264c-8 -33.333 -29.333 -50 -64 -50c-44 0 -66 22 -66 66c0 5.33301 22.667 98.666 68 279.999c8 33.333 29.333 50 64 50z" />
    <glyph glyph-name="ncedilla" unicode="&#x146;" horiz-adv-x="990" 
d="M198 858c0 44 21.999 66.002 65.999 66.002h335c70.667 0 131.5 -25.5 182.5 -76.5s76.5 -111.833 76.5 -182.5v-599c0 -44 -22 -66 -66 -66s-66 22 -66 66v594c0 37.333 -12.667 68.666 -38 93.999s-56.666 38 -93.999 38h-264v-716c0 -12 -1.33301 -23.333 -4 -34
l-64 -256c-8 -33.333 -29.333 -50 -64 -50c-44 0 -66 22 -66 66c0 5.33301 0.666992 10.666 2 15.999l43 171c6 16.667 13 45 21 85v58v726z" />
    <glyph glyph-name="Ncaron" unicode="&#x147;" horiz-adv-x="1056" 
d="M792 321v933c0 44 22 66 66 66s66 -22 66 -66v-1188c0 -44 -22 -66 -66 -66c-26.667 0 -46 11 -58 33l-536 967v-934c0 -44 -22 -66 -66 -66s-66 22 -66 66v1188c0 44 22 66 66 66c26 0 46.333 -13 61 -39zM528 1679l150 150c12.667 12.667 28.667 19 48 19
c44 0 66 -22 66 -66c0 -18 -6.66699 -33.667 -20 -47l-186 -186c-20.667 -20.667 -40 -31 -58 -31s-37.333 10.333 -58 31l-186 186c-13.333 13.333 -20 29 -20 47c0 44 22 66 66 66c19.333 0 35.333 -6.33301 48 -19z" />
    <glyph glyph-name="ncaron" unicode="&#x148;" 
d="M132 66l-0.000976562 792.001c0 44 22 66 66 66h330c74 0 136.5 -25.5 187.5 -76.5s76.5 -113.5 76.5 -187.5v-594c0 -44 -22 -66 -66 -66s-66 22 -66 66v594c0 37.333 -12.667 68.666 -38 93.999s-56.666 38 -93.999 38h-264v-726c0 -44 -22 -66 -66 -66s-66 22 -66 66z
M461.999 1283l150 150c12.667 12.667 28.667 19 48 19c44 0 66 -22 66 -66c0 -18 -6.66699 -33.667 -20 -47l-186 -186c-20.667 -20.667 -40 -31 -58 -31s-37.333 10.333 -58 31l-186 186c-13.333 13.333 -20 29 -20 47c0 44 22 66 66 66c19.333 0 35.333 -6.33301 48 -19z
" />
    <glyph glyph-name="napostrophe" unicode="&#x149;" horiz-adv-x="1056" 
d="M264 66l-0.000976562 792.001c0 44 22 66 66 66h330c74 0 136.5 -25.5 187.5 -76.5s76.5 -113.5 76.5 -187.5v-594c0 -44 -22 -66 -66 -66s-66 22 -66 66v594c0 37.333 -12.667 68.666 -38 93.999s-56.666 38 -93.999 38h-264v-726c0 -44 -22 -66 -66 -66s-66 22 -66 66z
M263.999 1518c44 0 66 -21.666 66 -64.999c0 -6 -0.666992 -11.667 -2 -17l-66 -264c-8 -33.333 -29.333 -50 -64 -50c-44 0 -66 22 -66 66c0 5.33301 22.667 98.666 68 279.999c8 33.333 29.333 50 64 50z" />
    <glyph glyph-name="Eng" unicode="&#x14a;" horiz-adv-x="1056" 
d="M924 -330c0 -33.333 -15.333 -53.999 -46 -61.999c-10.667 -2.66699 -39.334 -4 -86.001 -4c-73.333 0 -135.666 25.667 -186.999 77s-77 113.666 -77 186.999c0 18 6.5 33.5 19.5 46.5s28.5 19.5 46.5 19.5c44 0 66 -22 66 -66c0 -36 13 -67 39 -93s57 -39 93 -39v311
l-528 953v-934c0 -44 -22 -66 -66 -66s-66 22 -66 66v1188c0 44 22 66 66 66c26 0 46.333 -13 61 -39l533 -960v933c0 44 22 66 66 66s66 -22 66 -66v-1584z" />
    <glyph glyph-name="eng" unicode="&#x14b;" 
d="M660 -264l-0.000976562 924.002c0 37.333 -12.667 68.666 -38 93.999s-56.666 38 -93.999 38h-264v-726c0 -44 -22 -66 -66 -66s-66 22 -66 66v792c0 44 22 66 66 66h330c74 0 136.5 -25.5 187.5 -76.5s76.5 -113.5 76.5 -187.5v-990c0 -33.333 -15.333 -54 -46 -62
c-10.667 -2.66699 -39.334 -4 -86.001 -4c-73.333 0 -135.666 25.667 -186.999 77s-77 113.666 -77 186.999c0 18 6.5 33.5 19.5 46.5s28.5 19.5 46.5 19.5c44 0 66 -22 66 -66c0 -36 13 -67 39 -93s57 -39 93 -39z" />
    <glyph glyph-name="Omacron" unicode="&#x14c;" horiz-adv-x="1056" 
d="M792 396v528c0 74 -25.5 136.5 -76.5 187.5s-113.5 76.5 -187.5 76.5s-136.5 -25.5 -187.5 -76.5s-76.5 -113.5 -76.5 -187.5v-528c0 -74 25.5 -136.5 76.5 -187.5s113.5 -76.5 187.5 -76.5s136.5 25.5 187.5 76.5s76.5 113.5 76.5 187.5zM924 396
c0 -109.333 -38.668 -202.665 -116.001 -279.998s-170.666 -116 -279.999 -116s-202.666 38.667 -279.999 116s-116 170.666 -116 279.999v528c0 109.333 38.667 202.666 116 279.999s170.666 116 279.999 116c110 0 203.5 -38.5 280.5 -115.5s115.5 -170.5 115.5 -280.5
v-528zM857.999 1584h-660c-44 0 -66 22 -66 66s22 66 66 66h660c44 0 66 -22 66 -66s-22 -66 -66 -66z" />
    <glyph glyph-name="omacron" unicode="&#x14d;" horiz-adv-x="1056" 
d="M198 330l-0.00195312 264.002c0 91.333 32.167 169.166 96.5 233.499s142.166 96.5 233.499 96.5c92.667 0 170.834 -31.833 234.501 -95.5s95.5 -141.834 95.5 -234.501v-264c0 -91.333 -32.167 -169.166 -96.5 -233.499s-142.166 -96.5 -233.499 -96.5
s-169.166 32.167 -233.499 96.5s-96.5 142.166 -96.5 233.499zM725.998 330.002l0.00195312 263.998c0 54.667 -19.333 101.334 -58 140.001s-85.334 58 -140.001 58s-101.334 -19.333 -140.001 -58s-58 -85.334 -58 -140.001v-264c0 -55.333 19.167 -102.166 57.5 -140.499
s85.166 -57.5 140.499 -57.5c54.667 0 101.334 19.333 140.001 58s58 85.334 58 140.001zM858 1188h-660c-44 0 -66 22 -66 66s22 66 66 66h660c44 0 66 -22 66 -66s-22 -66 -66 -66z" />
    <glyph glyph-name="Obreve" unicode="&#x14e;" horiz-adv-x="1056" 
d="M792 396v528c0 74 -25.5 136.5 -76.5 187.5s-113.5 76.5 -187.5 76.5s-136.5 -25.5 -187.5 -76.5s-76.5 -113.5 -76.5 -187.5v-528c0 -74 25.5 -136.5 76.5 -187.5s113.5 -76.5 187.5 -76.5s136.5 25.5 187.5 76.5s76.5 113.5 76.5 187.5zM924 396
c0 -109.333 -38.668 -202.665 -116.001 -279.998s-170.666 -116 -279.999 -116s-202.666 38.667 -279.999 116s-116 170.666 -116 279.999v528c0 109.333 38.667 202.666 116 279.999s170.666 116 279.999 116c110 0 203.5 -38.5 280.5 -115.5s115.5 -170.5 115.5 -280.5
v-528zM790.999 1782c0 -73.333 -25.6689 -135.667 -77.002 -187s-113.333 -77 -186 -77c-73.333 0 -135.666 25.667 -186.999 77s-77 113.666 -77 186.999c0 44 22 66 66 66s66 -22 66 -66c0 -36 13 -67 39 -93s57 -39 93 -39c36.667 0 67.834 12.833 93.501 38.5
s38.5 56.834 38.5 93.501c0 18 6.5 33.5 19.5 46.5s28.5 19.5 46.5 19.5c43.333 0 65 -22 65 -66z" />
    <glyph glyph-name="obreve" unicode="&#x14f;" 
d="M132 330l-0.00195312 264.002c0 91.333 32.167 169.166 96.5 233.499s142.166 96.5 233.499 96.5c92.667 0 170.834 -31.833 234.501 -95.5s95.5 -141.834 95.5 -234.501v-264c0 -91.333 -32.167 -169.166 -96.5 -233.499s-142.166 -96.5 -233.499 -96.5
s-169.166 32.167 -233.499 96.5s-96.5 142.166 -96.5 233.499zM659.998 330.002l0.00195312 263.998c0 54.667 -19.333 101.334 -58 140.001s-85.334 58 -140.001 58s-101.334 -19.333 -140.001 -58s-58 -85.334 -58 -140.001v-264c0 -55.333 19.167 -102.166 57.5 -140.499
s85.166 -57.5 140.499 -57.5c54.667 0 101.334 19.333 140.001 58s58 85.334 58 140.001zM725 1452c0 -73.333 -25.501 -135.667 -76.501 -187s-113.167 -77 -186.5 -77s-135.5 25.667 -186.5 77s-76.5 113.666 -76.5 186.999c0 44 21.667 66 65 66c44 0 66 -22 66 -66
c0 -36 13 -67 39 -93s57 -39 93 -39c36.667 0 67.834 12.833 93.501 38.5s38.5 56.834 38.5 93.501c0 18 6.5 33.5 19.5 46.5s28.5 19.5 46.5 19.5c43.333 0 65 -22 65 -66z" />
    <glyph glyph-name="Odblacute" unicode="&#x150;" horiz-adv-x="1056" 
d="M792 396v528c0 74 -25.5 136.5 -76.5 187.5s-113.5 76.5 -187.5 76.5s-136.5 -25.5 -187.5 -76.5s-76.5 -113.5 -76.5 -187.5v-528c0 -74 25.5 -136.5 76.5 -187.5s113.5 -76.5 187.5 -76.5s136.5 25.5 187.5 76.5s76.5 113.5 76.5 187.5zM924 396
c0 -109.333 -38.668 -202.665 -116.001 -279.998s-170.666 -116 -279.999 -116s-202.666 38.667 -279.999 116s-116 170.666 -116 279.999v528c0 109.333 38.667 202.666 116 279.999s170.666 116 279.999 116c110 0 203.5 -38.5 280.5 -115.5s115.5 -170.5 115.5 -280.5
v-528zM395.999 1848c44 0 66 -22 66 -66c0 -12 -4 -24 -12 -36l-130 -199c-12.667 -19.333 -31.334 -29 -56.001 -29c-44 0 -66 22 -66 66c0 12 4 24 12 36l130 199c12.667 19.333 31.334 29 56.001 29zM791.999 1848c44 0 66 -22 66 -66c0 -12 -4 -24 -12 -36l-130 -199
c-12.667 -19.333 -31.334 -29 -56.001 -29c-44 0 -66 22 -66 66c0 12 4 24 12 36l130 199c12.667 19.333 31.334 29 56.001 29z" />
    <glyph glyph-name="odblacute" unicode="&#x151;" horiz-adv-x="1188" 
d="M264 330l-0.00195312 264.002c0 91.333 32.167 169.166 96.5 233.499s142.166 96.5 233.499 96.5c92.667 0 170.834 -31.833 234.501 -95.5s95.5 -141.834 95.5 -234.501v-264c0 -91.333 -32.167 -169.166 -96.5 -233.499s-142.166 -96.5 -233.499 -96.5
s-169.166 32.167 -233.499 96.5s-96.5 142.166 -96.5 233.499zM791.998 330.002l0.00195312 263.998c0 54.667 -19.333 101.334 -58 140.001s-85.334 58 -140.001 58s-101.334 -19.333 -140.001 -58s-58 -85.334 -58 -140.001v-264c0 -55.333 19.167 -102.166 57.5 -140.499
s85.166 -57.5 140.499 -57.5c54.667 0 101.334 19.333 140.001 58s58 85.334 58 140.001zM198 1122c-44 0 -66 22 -66 66c0 22.667 8.66699 40.334 26 53.001l264 198c11.333 8.66699 24.666 13 39.999 13c44 0 66 -22 66 -66c0 -22.667 -8.66699 -40.334 -26 -53.001
l-264 -198c-11.333 -8.66699 -24.666 -13 -39.999 -13zM726 1122c-44 0 -66 22 -66 66c0 22.667 8.66699 40.334 26 53.001l264 198c11.333 8.66699 24.666 13 39.999 13c44 0 66 -22 66 -66c0 -22.667 -8.66699 -40.334 -26 -53.001l-264 -198
c-11.333 -8.66699 -24.666 -13 -39.999 -13z" />
    <glyph glyph-name="OE" unicode="&#x152;" horiz-adv-x="1452" 
d="M726 84c-66.667 -56 -143.666 -83.999 -230.999 -83.999c-100 0 -185.5 35.667 -256.5 107s-106.5 156.666 -106.5 255.999v594c0 100 35.667 185.5 107 256.5s156.666 106.5 255.999 106.5c88 0 165 -28 231 -84v18c0 44 22 66 66 66h462c44 0 66 -22 66 -66
s-22 -66 -66 -66h-396v-396h330c44 0 66 -22 66 -66s-22 -66 -66 -66h-330v-528h396c44 0 66 -22 66 -66s-22 -66 -66 -66h-462c-44 0 -66 22 -66 66v18zM726.001 363.001v594c0 63.333 -22.833 117.666 -68.5 162.999s-99.834 68 -162.501 68
c-64 0 -118.5 -22.5 -163.5 -67.5s-67.5 -99.5 -67.5 -163.5v-594c0 -64 22.5 -118.5 67.5 -163.5s99.5 -67.5 163.5 -67.5c62.667 0 116.834 22.833 162.501 68.5s68.5 99.834 68.5 162.501z" />
    <glyph glyph-name="oe" unicode="&#x153;" horiz-adv-x="1188" 
d="M528 264l-0.00195312 396.002c0 37.333 -12.667 68.666 -38 93.999s-56.666 38 -93.999 38c-36.667 0 -67.834 -12.833 -93.501 -38.5s-38.5 -56.834 -38.5 -93.501v-396c0 -34.667 13.333 -65.334 40 -92.001s57.334 -40 92.001 -40c36.667 0 67.834 12.833 93.501 38.5
s38.5 56.834 38.5 93.501zM593.998 835.002c52 59.333 118 89 198 89c74 0 136.5 -25.5 187.5 -76.5s76.5 -113.5 76.5 -187.5v-264h-396v-132c0 -36 13 -67 39 -93s57 -39 93 -39h198c44 0 66 -22 66 -66s-22 -66 -66 -66h-198c-80 0 -146 29.333 -198 88
c-52 -58.667 -118 -88 -198 -88c-74 0 -136.5 25.5 -187.5 76.5s-76.5 113.5 -76.5 187.5v396c0 74 25.5 136.5 76.5 187.5s113.5 76.5 187.5 76.5c81.333 0 147.333 -29.667 198 -89zM923.998 660.002c0 37.333 -12.667 68.668 -38 94.001s-56.666 38 -93.999 38
c-36.667 0 -67.834 -12.833 -93.501 -38.5s-38.5 -56.834 -38.5 -93.501v-132h264v132z" />
    <glyph glyph-name="Racute" unicode="&#x154;" horiz-adv-x="1056" 
d="M686 556l229.999 -460.001c5.33301 -10.667 8 -20.667 8 -30c0 -17.333 -6.66699 -32.666 -20 -45.999s-28.666 -20 -45.999 -20c-28 -0 -48 12.333 -60 37l-246 492c-6 -0.666992 -14 -1 -24 -1h-264v-462c0 -44 -22 -66 -66 -66s-66 22 -66 66v1188c0 44 22 66 66 66
h330c110 0 203.5 -38.5 280.5 -115.5s115.5 -170.5 115.5 -280.5c0 -182 -79.333 -304.667 -238 -368zM263.999 1188v-528h264c74 0 136.5 25.5 187.5 76.5s76.5 113.5 76.5 187.5s-25.5 136.5 -76.5 187.5s-113.5 76.5 -187.5 76.5h-264zM395.999 1518c-44 0 -66 22 -66 66
c0 22.667 8.66699 40.334 26 53.001l264 198c11.333 8.66699 24.666 13 39.999 13c44 0 66 -22 66 -66c0 -22.667 -8.66699 -40.334 -26 -53.001l-264 -198c-11.333 -8.66699 -24.666 -13 -39.999 -13z" />
    <glyph glyph-name="racute" unicode="&#x155;" horiz-adv-x="792" 
d="M198 1122c-44 0 -66 21.999 -66 65.999c0 22.667 8.66699 40.334 26 53.001l264 198c11.333 8.66699 24.666 13 39.999 13c44 0 66 -22 66 -66c0 -22 -8.66699 -39.667 -26 -53l-264 -198c-11.333 -8.66699 -24.666 -13 -39.999 -13zM132 857.999c0 44 22 66 66 66h396
c44 0 66 -22 66 -66v-132c0 -44 -22 -66 -66 -66s-66 22 -66 66v66h-264v-726c0 -44 -22 -66 -66 -66s-66 22 -66 66v792z" />
    <glyph glyph-name="Rcedilla" unicode="&#x156;" horiz-adv-x="1056" 
d="M686 556l229.999 -460.001c5.33301 -10.667 8 -20.667 8 -30c0 -17.333 -6.66699 -32.666 -20 -45.999s-28.666 -20 -45.999 -20c-28 -0 -48 12.333 -60 37l-246 492c-6 -0.666992 -14 -1 -24 -1h-264v-462c0 -44 -22 -66 -66 -66s-66 22 -66 66v1188c0 44 22 66 66 66
h330c110 0 203.5 -38.5 280.5 -115.5s115.5 -170.5 115.5 -280.5c0 -182 -79.333 -304.667 -238 -368zM263.999 1188v-528h264c74 0 136.5 25.5 187.5 76.5s76.5 113.5 76.5 187.5s-25.5 136.5 -76.5 187.5s-113.5 76.5 -187.5 76.5h-264zM527.999 131.999
c44 0 66 -21.666 66 -64.999c0 -6 -0.666992 -11.667 -2 -17l-66 -264c-8 -33.333 -29.333 -50 -64 -50c-44 0 -66 22 -66 66c0 5.33301 22.667 98.666 68 279.999c8 33.333 29.333 50 64 50z" />
    <glyph glyph-name="rcedilla" unicode="&#x157;" horiz-adv-x="792" 
d="M594 66c44 0 65.999 -21.667 65.999 -65c0 -6.66699 -1.66699 -15 -5 -25l-63 -190c-11.333 -33.333 -32.666 -50 -63.999 -50c-44 0 -66 22 -66 66c0 6.66699 1.66699 15 5 25l63 190c10.667 32.667 32 49 64 49zM131.999 858c0 44 22 66 66 66h396c44 0 66 -22 66 -66
v-132c0 -44 -22 -66 -66 -66s-66 22 -66 66v66h-264v-726c0 -44 -22 -66 -66 -66s-66 22 -66 66v792z" />
    <glyph glyph-name="Rcaron" unicode="&#x158;" horiz-adv-x="1056" 
d="M686 556l229.999 -460.001c5.33301 -10.667 8 -20.667 8 -30c0 -17.333 -6.66699 -32.666 -20 -45.999s-28.666 -20 -45.999 -20c-28 -0 -48 12.333 -60 37l-246 492c-6 -0.666992 -14 -1 -24 -1h-264v-462c0 -44 -22 -66 -66 -66s-66 22 -66 66v1188c0 44 22 66 66 66
h330c110 0 203.5 -38.5 280.5 -115.5s115.5 -170.5 115.5 -280.5c0 -182 -79.333 -304.667 -238 -368zM263.999 1188v-528h264c74 0 136.5 25.5 187.5 76.5s76.5 113.5 76.5 187.5s-25.5 136.5 -76.5 187.5s-113.5 76.5 -187.5 76.5h-264zM527.999 1679l150 150
c12.667 12.667 28.667 19 48 19c44 0 66 -22 66 -66c0 -18 -6.66699 -33.667 -20 -47l-186 -186c-20.667 -20.667 -40 -31 -58 -31s-37.333 10.333 -58 31l-186 186c-13.333 13.333 -20 29 -20 47c0 44 22 66 66 66c19.333 0 35.333 -6.33301 48 -19z" />
    <glyph glyph-name="rcaron" unicode="&#x159;" horiz-adv-x="792" 
d="M396 1283l150 150c12.667 12.667 28.667 19 48 19c44 0 66 -22 66 -66c0 -18 -6.66699 -33.667 -20 -47l-186 -186c-20.667 -20.667 -40 -31 -58 -31s-37.333 10.333 -58 31l-186 186c-13.333 13.333 -20 29 -20 47c0 44 22 66 66 66c19.333 0 35.333 -6.33301 48 -19z
M132 858c0 44 22 66 66 66h396c44 0 66 -22 66 -66v-132c0 -44 -22 -66 -66 -66s-66 22 -66 66v66h-264v-726c0 -44 -22 -66 -66 -66s-66 22 -66 66v792z" />
    <glyph glyph-name="Sacute" unicode="&#x15a;" horiz-adv-x="1056" 
d="M396 1518c-44 0 -66 22 -66 66c0 22.667 8.66699 40.334 26 53.001l264 198c11.333 8.66699 24.666 13 39.999 13c44 0 66 -22 66 -66c0 -22.667 -8.66699 -40.334 -26 -53.001l-264 -198c-11.333 -8.66699 -24.666 -13 -39.999 -13zM924 330
c0 -91.333 -32.1689 -169.165 -96.502 -233.498s-142.166 -96.5 -233.499 -96.5c-150 0 -294.333 48 -433 144c-19.333 13.333 -29 31.333 -29 54c0 18 6.5 33.5 19.5 46.5s28.5 19.5 46.5 19.5c12 0 24.667 -4 38 -12c38.667 -23.333 99.334 -54 182.001 -92
c54 -18.667 112.667 -28 176 -28c55.333 0 102.166 19.167 140.499 57.5s57.5 85.166 57.5 140.499c0 80.667 -36.667 139.667 -110 177l-371 190c-119.333 61.333 -179 159 -179 293c0 91.333 32.167 169.166 96.5 233.499s142.166 96.5 233.499 96.5
c146.667 0 265.667 -24 357 -72c26 -13.333 39 -33.333 39 -60c0 -18 -6.5 -33.5 -19.5 -46.5s-28.5 -19.5 -46.5 -19.5c-7.33301 0 -16.666 2.33301 -27.999 7c-97.333 39.333 -198 59 -302 59c-55.333 0 -102.166 -19.167 -140.499 -57.5s-57.5 -85.166 -57.5 -140.499
c0 -80.667 36 -139.334 108 -176.001l371 -190c120.667 -62 181 -160 181 -294z" />
    <glyph glyph-name="sacute" unicode="&#x15b;" 
d="M330 1122c-44 0 -66 21.999 -66 65.999c0 22.667 8.66699 40.334 26 53.001l264 198c11.333 8.66699 24.666 13 39.999 13c44 0 66 -22 66 -66c0 -22 -8.66699 -39.667 -26 -53l-264 -198c-11.333 -8.66699 -24.666 -13 -39.999 -13zM660 230.999
c0 42 -18.666 71.998 -55.999 89.998l-339 163c-88.667 42.667 -133 112.334 -133 209.001c0 76 31.333 134.667 94 176c54 36 121.333 54 202 54c98 0 185.667 -24.333 263 -73c23.333 -14.667 35 -34 35 -58c0 -18 -6.5 -33.5 -19.5 -46.5s-28.5 -19.5 -46.5 -19.5
c-12 0 -22.333 2.66699 -31 8c-63.333 38 -130.333 57 -201 57c-109.333 0 -164 -32.667 -164 -98c0 -41.333 18 -70.666 54 -87.999l342 -165c88 -42.667 132 -112.334 132 -209.001c0 -80 -31.667 -140 -95 -180c-54 -34 -123.667 -51 -209 -51
c-126.667 0 -233 24.333 -319 73c-24.667 14 -37 33.667 -37 59c0 18 6.5 33.5 19.5 46.5s28.5 19.5 46.5 19.5c8.66699 0 17 -1.66699 25 -5c21.333 -9.33301 52.666 -21.666 93.999 -36.999c60 -16 118.333 -24 175 -24c112 0 168 33 168 99z" />
    <glyph glyph-name="Scircumflex" unicode="&#x15c;" horiz-adv-x="1056" 
d="M528 1688l-150 -150c-13.333 -13.333 -29.333 -20 -48 -20c-44 0 -66 22 -66 66c0 18 6.66699 33.667 20 47l186 186c20.667 20.667 40 31 58 31s37.333 -10.333 58 -31l186 -186c13.333 -13.333 20 -29 20 -47c0 -44 -22 -66 -66 -66c-18.667 0 -34.667 6.66699 -48 20z
M924 330c0 -91.333 -32.1689 -169.165 -96.502 -233.498s-142.166 -96.5 -233.499 -96.5c-150 0 -294.333 48 -433 144c-19.333 13.333 -29 31.333 -29 54c0 18 6.5 33.5 19.5 46.5s28.5 19.5 46.5 19.5c12 0 24.667 -4 38 -12c38.667 -23.333 99.334 -54 182.001 -92
c54 -18.667 112.667 -28 176 -28c55.333 0 102.166 19.167 140.499 57.5s57.5 85.166 57.5 140.499c0 80.667 -36.667 139.667 -110 177l-371 190c-119.333 61.333 -179 159 -179 293c0 91.333 32.167 169.166 96.5 233.499s142.166 96.5 233.499 96.5
c146.667 0 265.667 -24 357 -72c26 -13.333 39 -33.333 39 -60c0 -18 -6.5 -33.5 -19.5 -46.5s-28.5 -19.5 -46.5 -19.5c-7.33301 0 -16.666 2.33301 -27.999 7c-97.333 39.333 -198 59 -302 59c-55.333 0 -102.166 -19.167 -140.499 -57.5s-57.5 -85.166 -57.5 -140.499
c0 -80.667 36 -139.334 108 -176.001l371 -190c120.667 -62 181 -160 181 -294z" />
    <glyph glyph-name="scircumflex" unicode="&#x15d;" 
d="M462 1291l-150 -150c-12.667 -12.667 -28.667 -19 -48 -19c-44 0 -66 22 -66 66c0 18 6.66699 33.667 20 47l186 186c20.667 20.667 40 31 58 31s37.333 -10.333 58 -31l186 -186c13.333 -13.333 20 -29 20 -47c0 -44 -22 -66 -66 -66c-19.333 0 -35.333 6.33301 -48 19z
M660 231c0 42 -18.666 71.998 -55.999 89.998l-339 163c-88.667 42.667 -133 112.334 -133 209.001c0 76 31.333 134.667 94 176c54 36 121.333 54 202 54c98 0 185.667 -24.333 263 -73c23.333 -14.667 35 -34 35 -58c0 -18 -6.5 -33.5 -19.5 -46.5
s-28.5 -19.5 -46.5 -19.5c-12 0 -22.333 2.66699 -31 8c-63.333 38 -130.333 57 -201 57c-109.333 0 -164 -32.667 -164 -98c0 -41.333 18 -70.666 54 -87.999l342 -165c88 -42.667 132 -112.334 132 -209.001c0 -80 -31.667 -140 -95 -180c-54 -34 -123.667 -51 -209 -51
c-126.667 0 -233 24.333 -319 73c-24.667 14 -37 33.667 -37 59c0 18 6.5 33.5 19.5 46.5s28.5 19.5 46.5 19.5c8.66699 0 17 -1.66699 25 -5c21.333 -9.33301 52.666 -21.666 93.999 -36.999c60 -16 118.333 -24 175 -24c112 0 168 33 168 99z" />
    <glyph glyph-name="Scedilla" unicode="&#x15e;" horiz-adv-x="1056" 
d="M647 4l-55 -217.998c-8.66699 -33.333 -30 -50 -64 -50c-44 0 -66 22 -66 66c0 5.33301 16.333 73 49 203c-114.667 12 -231.334 58.333 -350.001 139c-19.333 13.333 -29 31.333 -29 54c0 18 6.5 33.5 19.5 46.5s28.5 19.5 46.5 19.5c12 0 24.667 -4 38 -12
c38.667 -23.333 99.334 -54 182.001 -92c53.333 -18.667 112 -28 176 -28c55.333 0 102.166 19.167 140.499 57.5s57.5 85.166 57.5 140.499c0 80.667 -36.667 139.667 -110 177l-371 190c-119.333 61.333 -179 159 -179 293c0 91.333 32.167 169.166 96.5 233.499
s142.166 96.5 233.499 96.5c146 0 265 -24 357 -72c26 -13.333 39 -33.333 39 -60c0 -18 -6.5 -33.5 -19.5 -46.5s-28.5 -19.5 -46.5 -19.5c-7.33301 0 -16.666 2.33301 -27.999 7c-97.333 39.333 -198 59 -302 59c-55.333 0 -102.166 -19.167 -140.499 -57.5
s-57.5 -85.166 -57.5 -140.499c0 -80.667 36 -139.334 108 -176.001l371 -190c120.667 -62 181 -160 181 -294c0 -81.333 -26 -152.5 -78 -213.5s-118.333 -98.5 -199 -112.5z" />
    <glyph glyph-name="scedilla" unicode="&#x15f;" 
d="M660 231c0 42 -18.666 71.998 -55.999 89.998l-339 163c-88.667 42.667 -133 112.334 -133 209.001c0 76 31.333 134.667 94 176c54 36 121.333 54 202 54c98 0 185.667 -24.333 263 -73c23.333 -14.667 35 -34 35 -58c0 -18 -6.5 -33.5 -19.5 -46.5
s-28.5 -19.5 -46.5 -19.5c-12 0 -22.333 2.66699 -31 8c-63.333 38 -130.333 57 -201 57c-109.333 0 -164 -32.667 -164 -98c0 -41.333 18 -70.666 54 -87.999l342 -165c88 -42.667 132 -112.334 132 -209.001c0 -78 -31 -137.667 -93 -179
c-50.667 -33.333 -112 -50 -184 -50l-55 -216c-8.66699 -33.333 -30 -50 -64 -50c-44 0 -66 22 -66 66c0 4.66699 2.66699 17.667 8 39l44 166c-83.333 10.667 -154.333 32.667 -213 66c-24.667 14 -37 33.667 -37 59c0 18 6.5 33.5 19.5 46.5s28.5 19.5 46.5 19.5
c8.66699 0 17 -1.66699 25 -5c21.333 -9.33301 52.666 -21.666 93.999 -36.999c60 -16 117.333 -24 172 -24c114 0 171 33 171 99z" />
    <glyph glyph-name="Scaron" unicode="&#x160;" horiz-adv-x="1056" 
d="M528 1679l150 150c12.667 12.667 28.667 19 48 19c44 0 66 -22 66 -66c0 -18 -6.66699 -33.667 -20 -47l-186 -186c-20.667 -20.667 -40 -31 -58 -31s-37.333 10.333 -58 31l-186 186c-13.333 13.333 -20 29 -20 47c0 44 22 66 66 66c19.333 0 35.333 -6.33301 48 -19z
M924 330c0 -91.333 -32.1689 -169.165 -96.502 -233.498s-142.166 -96.5 -233.499 -96.5c-150 0 -294.333 48 -433 144c-19.333 13.333 -29 31.333 -29 54c0 18 6.5 33.5 19.5 46.5s28.5 19.5 46.5 19.5c12 0 24.667 -4 38 -12c38.667 -23.333 99.334 -54 182.001 -92
c54 -18.667 112.667 -28 176 -28c55.333 0 102.166 19.167 140.499 57.5s57.5 85.166 57.5 140.499c0 80.667 -36.667 139.667 -110 177l-371 190c-119.333 61.333 -179 159 -179 293c0 91.333 32.167 169.166 96.5 233.499s142.166 96.5 233.499 96.5
c146.667 0 265.667 -24 357 -72c26 -13.333 39 -33.333 39 -60c0 -18 -6.5 -33.5 -19.5 -46.5s-28.5 -19.5 -46.5 -19.5c-7.33301 0 -16.666 2.33301 -27.999 7c-97.333 39.333 -198 59 -302 59c-55.333 0 -102.166 -19.167 -140.499 -57.5s-57.5 -85.166 -57.5 -140.499
c0 -80.667 36 -139.334 108 -176.001l371 -190c120.667 -62 181 -160 181 -294z" />
    <glyph glyph-name="scaron" unicode="&#x161;" 
d="M462 1283l150 150c12.667 12.667 28.667 19 48 19c44 0 66 -22 66 -66c0 -18 -6.66699 -33.667 -20 -47l-186 -186c-20.667 -20.667 -40 -31 -58 -31s-37.333 10.333 -58 31l-186 186c-13.333 13.333 -20 29 -20 47c0 44 22 66 66 66c19.333 0 35.333 -6.33301 48 -19z
M660 231c0 42 -18.666 71.998 -55.999 89.998l-339 163c-88.667 42.667 -133 112.334 -133 209.001c0 76 31.333 134.667 94 176c54 36 121.333 54 202 54c98 0 185.667 -24.333 263 -73c23.333 -14.667 35 -34 35 -58c0 -18 -6.5 -33.5 -19.5 -46.5
s-28.5 -19.5 -46.5 -19.5c-12 0 -22.333 2.66699 -31 8c-63.333 38 -130.333 57 -201 57c-109.333 0 -164 -32.667 -164 -98c0 -41.333 18 -70.666 54 -87.999l342 -165c88 -42.667 132 -112.334 132 -209.001c0 -80 -31.667 -140 -95 -180c-54 -34 -123.667 -51 -209 -51
c-126.667 0 -233 24.333 -319 73c-24.667 14 -37 33.667 -37 59c0 18 6.5 33.5 19.5 46.5s28.5 19.5 46.5 19.5c8.66699 0 17 -1.66699 25 -5c21.333 -9.33301 52.666 -21.666 93.999 -36.999c60 -16 118.333 -24 175 -24c112 0 168 33 168 99z" />
    <glyph glyph-name="Tcedilla" unicode="&#x162;" horiz-adv-x="1056" 
d="M462 -264c-44 0 -66 22.001 -66 66.001c0 5.33301 0.666992 10.666 2 15.999l64 256v1114h-264c-44 0 -66 22 -66 66s22 66 66 66h660c44 0 66 -22 66 -66s-22 -66 -66 -66h-264v-1112c0 -12 -1.33301 -23.333 -4 -34l-64 -256c-8 -33.333 -29.333 -50 -64 -50z" />
    <glyph glyph-name="tcedilla" unicode="&#x163;" horiz-adv-x="792" 
d="M264 -264c-44 0 -66 22.001 -66 66.001c0 5.33301 0.666992 10.666 2 15.999l64 256v718h-66c-44 0 -66 22 -66 66s22 66 66 66h66v330c0 44 22 66 66 66s66 -22 66 -66v-330h198c44 0 66 -22 66 -66s-22 -66 -66 -66h-198v-716c0 -12 -1.33301 -23.333 -4 -34l-64 -256
c-8 -33.333 -29.333 -50 -64 -50z" />
    <glyph glyph-name="Tcaron" unicode="&#x164;" horiz-adv-x="1056" 
d="M132 1254c0 44 22 66 66 66h660c44 0 66 -22 66 -66s-22 -66 -66 -66h-264v-1122c0 -44 -22 -66 -66 -66s-66 22 -66 66v1122h-264c-44 0 -66 22 -66 66zM528 1679l150 150c12.667 12.667 28.667 19 48 19c44 0 66 -22 66 -66c0 -18 -6.66699 -33.667 -20 -47l-186 -186
c-20.667 -20.667 -40 -31 -58 -31s-37.333 10.333 -58 31l-186 186c-13.333 13.333 -20 29 -20 47c0 44 22 66 66 66c19.333 0 35.333 -6.33301 48 -19z" />
    <glyph glyph-name="tcaron" unicode="&#x165;" horiz-adv-x="990" 
d="M264 792h-66c-44 0 -66 22 -66 66s22 66 66 66h66v330c0 44 22 66 66 66s66 -22 66 -66v-330h198c44 0 66 -22 66 -66s-22 -66 -66 -66h-198v-726c0 -44 -22 -66 -66 -66s-66 22 -66 66v726zM726 1122v264c0 44 22 66 66 66s66 -22 66 -66v-264c0 -44 -22 -66 -66 -66
s-66 22 -66 66z" />
    <glyph glyph-name="Tbar" unicode="&#x166;" horiz-adv-x="1056" 
d="M594 793l158 118.001c11.333 8.66699 24.666 13 39.999 13c44 0 66 -22 66 -66c0 -22.667 -8.66699 -40.334 -26 -53.001l-238 -178v-561c0 -44 -22 -66 -66 -66s-66 22 -66 66v462l-158 -119c-11.333 -8.66699 -24.666 -13 -39.999 -13c-44 0 -66 22 -66 66
c0 22 8.66699 39.667 26 53l238 179v494h-264c-44 0 -66 22 -66 66s22 66 66 66h660c44 0 66 -22 66 -66s-22 -66 -66 -66h-264v-395z" />
    <glyph glyph-name="tbar" unicode="&#x167;" horiz-adv-x="792" 
d="M264 1254c0 44 22 65.999 66 65.999s66 -22 66 -66v-330h198c44 0 66 -22 66 -66s-22 -66 -66 -66h-198v-289c34 16.667 56 25 66 25c44 0 66 -22 66 -66c0 -27.333 -12 -47 -36 -59l-96 -48v-289c0 -44 -22 -66 -66 -66s-66 22 -66 66v223
c-33.333 -16.667 -55.333 -25 -66 -25c-44 0 -66 22 -66 66c0 26.667 12.333 46.334 37 59.001l95 48v355h-66c-44 0 -66 22 -66 66s22 66 66 66h66v330z" />
    <glyph glyph-name="Utilde" unicode="&#x168;" horiz-adv-x="1056" 
d="M924 1254l-0.00195312 -858c0 -109.333 -38.667 -202.666 -116 -279.999s-170.666 -116 -279.999 -116s-202.666 38.667 -279.999 116s-116 170.666 -116 279.999v858c0 44 22 66 66 66s66 -22 66 -66v-858c0 -74 25.5 -136.5 76.5 -187.5s113.5 -76.5 187.5 -76.5
s136.5 25.5 187.5 76.5s76.5 113.5 76.5 187.5v858c0 44 22 66 66 66s66 -22 66 -66zM659.998 1584c-47.333 0 -98.6689 22.001 -154.002 66.001s-92 66 -110 66c-17.333 0 -39.166 -11 -65.499 -33s-48.5 -33 -66.5 -33c-17.333 0 -32.666 6.66699 -45.999 20
s-20 28.666 -20 45.999c0 22 9 39.667 27 53c42 31.333 68.333 50 79 56c28 15.333 58.667 23 92 23c46 0 97.167 -22 153.5 -66s93.166 -66 110.499 -66c18 0 40.333 11 67 33s48.334 33 65.001 33c44 0 66 -22 66 -66c0 -20 -9 -38 -27 -54l-52 -38
c-36 -26.667 -75.667 -40 -119 -40z" />
    <glyph glyph-name="utilde" unicode="&#x169;" 
d="M792 858v-792c0 -44 -22 -66 -66 -66h-330c-74 0 -136.5 25.5 -187.5 76.5s-76.5 113.5 -76.5 187.5v594c0 44 22 66 66 66s66 -22 66 -66v-594c0 -36 13 -67 39 -93s57 -39 93 -39h264v726c0 44 22 66 66 66s66 -22 66 -66zM594 1122
c-47.333 0 -98.6689 22.001 -154.002 66.001s-92 66 -110 66c-17.333 0 -39.166 -11 -65.499 -33s-48.5 -33 -66.5 -33c-17.333 0 -32.666 6.66699 -45.999 20s-20 28.666 -20 45.999c0 22 9 39.667 27 53c42 31.333 68.333 50 79 56c28 15.333 58.667 23 92 23
c46 0 97.167 -22 153.5 -66s93.166 -66 110.499 -66c18 0 40.333 11 67 33s48.334 33 65.001 33c44 0 66 -22 66 -66c0 -20 -9 -38 -27 -54l-52 -38c-36 -26.667 -75.667 -40 -119 -40z" />
    <glyph glyph-name="Umacron" unicode="&#x16a;" horiz-adv-x="1056" 
d="M924 1254l-0.00195312 -858c0 -109.333 -38.667 -202.666 -116 -279.999s-170.666 -116 -279.999 -116s-202.666 38.667 -279.999 116s-116 170.666 -116 279.999v858c0 44 22 66 66 66s66 -22 66 -66v-858c0 -74 25.5 -136.5 76.5 -187.5s113.5 -76.5 187.5 -76.5
s136.5 25.5 187.5 76.5s76.5 113.5 76.5 187.5v858c0 44 22 66 66 66s66 -22 66 -66zM857.998 1584h-660c-44 0 -66 22 -66 66s22 66 66 66h660c44 0 66 -22 66 -66s-22 -66 -66 -66z" />
    <glyph glyph-name="umacron" unicode="&#x16b;" horiz-adv-x="1056" 
d="M858 858v-792c0 -44 -22 -66 -66 -66h-330c-74 0 -136.5 25.5 -187.5 76.5s-76.5 113.5 -76.5 187.5v594c0 44 22 66 66 66s66 -22 66 -66v-594c0 -36 13 -67 39 -93s57 -39 93 -39h264v726c0 44 22 66 66 66s66 -22 66 -66zM858 1188h-660c-44 0 -66 22 -66 66
s22 66 66 66h660c44 0 66 -22 66 -66s-22 -66 -66 -66z" />
    <glyph glyph-name="Ubreve" unicode="&#x16c;" horiz-adv-x="1056" 
d="M924 1254l-0.00195312 -858c0 -109.333 -38.667 -202.666 -116 -279.999s-170.666 -116 -279.999 -116s-202.666 38.667 -279.999 116s-116 170.666 -116 279.999v858c0 44 22 66 66 66s66 -22 66 -66v-858c0 -74 25.5 -136.5 76.5 -187.5s113.5 -76.5 187.5 -76.5
s136.5 25.5 187.5 76.5s76.5 113.5 76.5 187.5v858c0 44 22 66 66 66s66 -22 66 -66zM790.998 1782c0 -73.333 -25.501 -135.667 -76.501 -187s-113.167 -77 -186.5 -77s-135.5 25.667 -186.5 77s-76.5 113.666 -76.5 186.999c0 44 21.667 66 65 66c44 0 66 -22 66 -66
c0 -36 13 -67 39 -93s57 -39 93 -39c36.667 0 67.834 12.833 93.501 38.5s38.5 56.834 38.5 93.501c0 18 6.5 33.5 19.5 46.5s28.5 19.5 46.5 19.5c43.333 0 65 -22 65 -66z" />
    <glyph glyph-name="ubreve" unicode="&#x16d;" 
d="M792 858v-792c0 -44 -22 -66 -66 -66h-330c-74 0 -136.5 25.5 -187.5 76.5s-76.5 113.5 -76.5 187.5v594c0 44 22 66 66 66s66 -22 66 -66v-594c0 -36 13 -67 39 -93s57 -39 93 -39h264v726c0 44 22 66 66 66s66 -22 66 -66zM725 1452
c0 -73.333 -25.501 -135.667 -76.501 -187s-113.167 -77 -186.5 -77s-135.5 25.667 -186.5 77s-76.5 113.666 -76.5 186.999c0 44 21.667 66 65 66c44 0 66 -22 66 -66c0 -36 13 -67 39 -93s57 -39 93 -39c36.667 0 67.834 12.833 93.501 38.5s38.5 56.834 38.5 93.501
c0 18 6.5 33.5 19.5 46.5s28.5 19.5 46.5 19.5c43.333 0 65 -22 65 -66z" />
    <glyph glyph-name="Uring" unicode="&#x16e;" horiz-adv-x="1056" 
d="M924 1254l-0.00195312 -858c0 -109.333 -38.667 -202.666 -116 -279.999s-170.666 -116 -279.999 -116s-202.666 38.667 -279.999 116s-116 170.666 -116 279.999v858c0 44 22 66 66 66s66 -22 66 -66v-858c0 -74 25.5 -136.5 76.5 -187.5s113.5 -76.5 187.5 -76.5
s136.5 25.5 187.5 76.5s76.5 113.5 76.5 187.5v858c0 44 22 66 66 66s66 -22 66 -66zM527.998 1848c64 0 118.5 -22.5 163.5 -67.5s67.5 -99.5 67.5 -163.5s-22.5 -118.5 -67.5 -163.5s-99.5 -67.5 -163.5 -67.5s-118.5 22.5 -163.5 67.5s-67.5 99.5 -67.5 163.5
s22.5 118.5 67.5 163.5s99.5 67.5 163.5 67.5zM527.998 1716c-27.333 0 -50.666 -9.66699 -69.999 -29s-29 -42.666 -29 -69.999s9.66699 -50.666 29 -69.999s42.666 -29 69.999 -29s50.666 9.66699 69.999 29s29 42.666 29 69.999s-9.66699 50.666 -29 69.999
s-42.666 29 -69.999 29z" />
    <glyph glyph-name="uring" unicode="&#x16f;" 
d="M792 858v-792c0 -44 -22 -66 -66 -66h-330c-74 0 -136.5 25.5 -187.5 76.5s-76.5 113.5 -76.5 187.5v594c0 44 22 66 66 66s66 -22 66 -66v-594c0 -36 13 -67 39 -93s57 -39 93 -39h264v726c0 44 22 66 66 66s66 -22 66 -66zM462 1584c64 0 118.5 -22.5 163.5 -67.5
s67.5 -99.5 67.5 -163.5s-22.5 -118.5 -67.5 -163.5s-99.5 -67.5 -163.5 -67.5s-118.5 22.5 -163.5 67.5s-67.5 99.5 -67.5 163.5s22.5 118.5 67.5 163.5s99.5 67.5 163.5 67.5zM462 1452c-27.333 0 -50.666 -9.66699 -69.999 -29s-29 -42.666 -29 -69.999
s9.66699 -50.666 29 -69.999s42.666 -29 69.999 -29s50.666 9.66699 69.999 29s29 42.666 29 69.999s-9.66699 50.666 -29 69.999s-42.666 29 -69.999 29z" />
    <glyph glyph-name="Udblacute" unicode="&#x170;" horiz-adv-x="1056" 
d="M924 1254l-0.00195312 -858c0 -109.333 -38.667 -202.666 -116 -279.999s-170.666 -116 -279.999 -116s-202.666 38.667 -279.999 116s-116 170.666 -116 279.999v858c0 44 22 66 66 66s66 -22 66 -66v-858c0 -74 25.5 -136.5 76.5 -187.5s113.5 -76.5 187.5 -76.5
s136.5 25.5 187.5 76.5s76.5 113.5 76.5 187.5v858c0 44 22 66 66 66s66 -22 66 -66zM428.998 1848c44 0 66 -22 66 -66c0 -12 -4 -24 -12 -36l-130 -199c-12.667 -19.333 -31.334 -29 -56.001 -29c-44 0 -66 22 -66 66c0 12 4 24 12 36l130 199
c12.667 19.333 31.334 29 56.001 29zM824.998 1848c44 0 66 -22 66 -66c0 -12 -4 -24 -12 -36l-130 -199c-12.667 -19.333 -31.334 -29 -56.001 -29c-44 0 -66 22 -66 66c0 12 4 24 12 36l130 199c12.667 19.333 31.334 29 56.001 29z" />
    <glyph glyph-name="udblacute" unicode="&#x171;" horiz-adv-x="1188" 
d="M924 858v-792c0 -44 -22 -66 -66 -66h-330c-74 0 -136.5 25.5 -187.5 76.5s-76.5 113.5 -76.5 187.5v594c0 44 22 66 66 66s66 -22 66 -66v-594c0 -36 13 -67 39 -93s57 -39 93 -39h264v726c0 44 22 66 66 66s66 -22 66 -66zM198 1122c-44 0 -66 22 -66 66
c0 22.667 8.66699 40.334 26 53.001l264 198c11.333 8.66699 24.666 13 39.999 13c44 0 66 -22 66 -66c0 -22.667 -8.66699 -40.334 -26 -53.001l-264 -198c-11.333 -8.66699 -24.666 -13 -39.999 -13zM726 1122c-44 0 -66 22 -66 66c0 22.667 8.66699 40.334 26 53.001
l264 198c11.333 8.66699 24.666 13 39.999 13c44 0 66 -22 66 -66c0 -22.667 -8.66699 -40.334 -26 -53.001l-264 -198c-11.333 -8.66699 -24.666 -13 -39.999 -13z" />
    <glyph glyph-name="Uogonek" unicode="&#x172;" horiz-adv-x="1056" 
d="M580 3l-54 -217c-8 -33.333 -29.333 -50 -64 -50c-44 0 -66 22 -66 66c0 5.33301 16.667 74 50 206c-92 20 -167.333 66.167 -226 138.5s-88 155.5 -88 249.5v858c0 44 22 66 66 66s66 -22 66 -66v-858c0 -74 25.5 -136.5 76.5 -187.5s113.5 -76.5 187.5 -76.5
s136.5 25.5 187.5 76.5s76.5 113.5 76.5 187.5v858c0 44 22 66 66 66s66 -22 66 -66v-858c0 -100 -32.5 -187 -97.5 -261s-147.167 -118 -246.5 -132z" />
    <glyph glyph-name="uogonek" unicode="&#x173;" 
d="M315 13c-55.333 17.333 -99.667 49.001 -133 95.001s-50 98 -50 156v594c0 44 22 66 66 66s66 -22 66 -66v-594c0 -36 13 -67 39 -93s57 -39 93 -39h264v726c0 44 22 66 66 66s66 -22 66 -66v-792c0 -44 -22 -66 -66 -66h-278l-54 -214c-8.66699 -33.333 -30 -50 -64 -50
c-44 0 -66 22 -66 66c0 5.33301 17 75.666 51 210.999z" />
    <glyph glyph-name="Wcircumflex" unicode="&#x174;" horiz-adv-x="1452" 
d="M977 314l212.001 954c8 34.667 29.667 52 65 52c44 0 66 -22 66 -66c0 -4 -0.666992 -9 -2 -15l-263 -1184c-8 -36.667 -29.667 -55 -65 -55c-31.333 0 -53.333 19 -66 57l-198 593l-197 -593c-12.667 -38 -35 -57 -67 -57c-34.667 0 -56.334 19 -65.001 57l-263 1182
c-1.33301 6 -2 11 -2 15c0 44 22 66 66 66c35.333 0 57 -17.333 65 -52l212 -956l186 557c12 36.667 33.667 55 65 55c32 0 54 -18.333 66 -55zM726.001 1688l-150 -150c-13.333 -13.333 -29.333 -20 -48 -20c-44 0 -66 22 -66 66c0 18 6.66699 33.667 20 47l186 186
c20.667 20.667 40 31 58 31s37.333 -10.333 58 -31l186 -186c13.333 -13.333 20 -29 20 -47c0 -44 -22 -66 -66 -66c-18.667 0 -34.667 6.66699 -48 20z" />
    <glyph glyph-name="wcircumflex" unicode="&#x175;" horiz-adv-x="1188" 
d="M792 0c-30.667 0 -52 15.999 -64 47.999l-134 359l-134 -357c-12.667 -33.333 -34 -50 -64 -50c-34.667 0 -57 20.667 -67 62l-195 780c-1.33301 5.33301 -2 11.666 -2 18.999c0 42 22 63 66 63c34.667 0 56 -16.667 64 -50l146 -585l123 328
c10.667 28.667 31.667 43 63 43c30.667 0 51.334 -14.333 62.001 -43l123 -329l147 586c8.66699 33.333 30 50 64 50c17.333 0 32.666 -6.16699 45.999 -18.5s20 -27.166 20 -44.499c0 -7.33301 -0.666992 -13.666 -2 -18.999l-196 -784
c-9.33301 -38.667 -31.333 -58 -66 -58zM594 1291l-150 -150c-12.667 -12.667 -28.667 -19 -48 -19c-44 0 -66 22 -66 66c0 18 6.66699 33.667 20 47l186 186c20.667 20.667 40 31 58 31s37.333 -10.333 58 -31l186 -186c13.333 -13.333 20 -29 20 -47
c0 -44 -22 -66 -66 -66c-19.333 0 -35.333 6.33301 -48 19z" />
    <glyph glyph-name="Ycircumflex" unicode="&#x176;" horiz-adv-x="1188" 
d="M660 660v-594c0 -44 -22 -66 -66 -66s-66 22 -66 66v594l-384 556c-8 11.333 -12 24 -12 38c0 44 22 66 66 66c24 0 42.333 -9.33301 55 -28l341 -496l341 496c12.667 18.667 31 28 55 28c44 0 66 -22 66 -66c0 -14 -4 -26.667 -12 -38zM594 1688l-150 -150
c-13.333 -13.333 -29.333 -20 -48 -20c-44 0 -66 22 -66 66c0 18 6.66699 33.667 20 47l186 186c20.667 20.667 40 31 58 31s37.333 -10.333 58 -31l186 -186c13.333 -13.333 20 -29 20 -47c0 -44 -22 -66 -66 -66c-18.667 0 -34.667 6.66699 -48 20z" />
    <glyph glyph-name="ycircumflex" unicode="&#x177;" 
d="M282 -264l110 330.001l-256 771c-2.66699 8 -4 15 -4 21c0 44 22 66 66 66c32 0 53 -15 63 -45l201 -603l201 603c10 30 31 45 63 45c44 0 66 -22 66 -66c0 -6 -1.33301 -13 -4 -21l-395 -1188c-10 -30 -31 -45 -63 -45h-133c-44 0 -66 22 -66 66
c0 35.333 18.333 56.666 55 63.999c6 1.33301 38 2 96 2zM462 1291l-150 -150c-12.667 -12.667 -28.667 -19 -48 -19c-44 0 -66 22 -66 66c0 18 6.66699 33.667 20 47l186 186c20.667 20.667 40 31 58 31s37.333 -10.333 58 -31l186 -186c13.333 -13.333 20 -29 20 -47
c0 -44 -22 -66 -66 -66c-19.333 0 -35.333 6.33301 -48 19z" />
    <glyph glyph-name="Ydieresis" unicode="&#x178;" horiz-adv-x="1188" 
d="M330 1584v66c0 44 22 66 66 66s66 -22 66 -66v-66c0 -44 -22 -66 -66 -66s-66 22 -66 66zM726 1584v66c0 44 22 66 66 66s66 -22 66 -66v-66c0 -44 -22 -66 -66 -66s-66 22 -66 66zM660 660v-594c0 -44 -22 -66 -66 -66s-66 22 -66 66v594l-384 556
c-8 11.333 -12 24 -12 38c0 44 22 66 66 66c24 0 42.333 -9.33301 55 -28l341 -496l341 496c12.667 18.667 31 28 55 28c44 0 66 -22 66 -66c0 -14 -4 -26.667 -12 -38z" />
    <glyph glyph-name="Zacute" unicode="&#x179;" horiz-adv-x="1056" 
d="M311 132l547 0.000976562c44 0 66 -22 66 -66s-22 -66 -66 -66h-660c-44 0 -66 22 -66 66c0 11.333 4.33301 24.666 13 39.999l601 1082h-548c-44 0 -66 22 -66 66s22 66 66 66h660c44 0 66 -21.667 66 -65c0 -12 -4.33301 -25.667 -13 -41zM396 1518
c-44 0 -66 22 -66 66c0 22.667 8.66699 40.334 26 53.001l264 198c11.333 8.66699 24.666 13 39.999 13c44 0 66 -22 66 -66c0 -22.667 -8.66699 -40.334 -26 -53.001l-264 -198c-11.333 -8.66699 -24.666 -13 -39.999 -13z" />
    <glyph glyph-name="zacute" unicode="&#x17a;" 
d="M602 792h-404c-44 0 -66 22 -66 66s22 66 66 66h528c44 0 66 -22.333 66 -67c0 -12.667 -4.33301 -25.667 -13 -39l-457 -686h404c44 0 66 -22 66 -66s-22 -66 -66 -66h-528c-44 0 -66 21.667 -66 65c0 14 4.33301 27.667 13 41zM330 1122c-44 0 -66 22 -66 66
c0 22.667 8.66699 40.334 26 53.001l264 198c11.333 8.66699 24.666 13 39.999 13c44 0 66 -22 66 -66c0 -22.667 -8.66699 -40.334 -26 -53.001l-264 -198c-11.333 -8.66699 -24.666 -13 -39.999 -13z" />
    <glyph glyph-name="Zdot" unicode="&#x17b;" horiz-adv-x="1056" 
d="M311 132l547 0.000976562c44 0 66 -22 66 -66s-22 -66 -66 -66h-660c-44 0 -66 22 -66 66c0 11.333 4.33301 24.666 13 39.999l601 1082h-548c-44 0 -66 22 -66 66s22 66 66 66h660c44 0 66 -21.667 66 -65c0 -12 -4.33301 -25.667 -13 -41zM462 1584v66
c0 44 22 66 66 66s66 -22 66 -66v-66c0 -44 -22 -66 -66 -66s-66 22 -66 66z" />
    <glyph glyph-name="zdot" unicode="&#x17c;" 
d="M602 792h-404c-44 0 -66 22 -66 66s22 66 66 66h528c44 0 66 -22.333 66 -67c0 -12.667 -4.33301 -25.667 -13 -39l-457 -686h404c44 0 66 -22 66 -66s-22 -66 -66 -66h-528c-44 0 -66 21.667 -66 65c0 14 4.33301 27.667 13 41zM396 1188v66c0 44 22 66 66 66
s66 -22 66 -66v-66c0 -44 -22 -66 -66 -66s-66 22 -66 66z" />
    <glyph glyph-name="Zcaron" unicode="&#x17d;" horiz-adv-x="1056" 
d="M311 132l547 0.000976562c44 0 66 -22 66 -66s-22 -66 -66 -66h-660c-44 0 -66 22 -66 66c0 11.333 4.33301 24.666 13 39.999l601 1082h-548c-44 0 -66 22 -66 66s22 66 66 66h660c44 0 66 -21.667 66 -65c0 -12 -4.33301 -25.667 -13 -41zM528 1679l150 150
c12.667 12.667 28.667 19 48 19c44 0 66 -22 66 -66c0 -18 -6.66699 -33.667 -20 -47l-186 -186c-20.667 -20.667 -40 -31 -58 -31s-37.333 10.333 -58 31l-186 186c-13.333 13.333 -20 29 -20 47c0 44 22 66 66 66c19.333 0 35.333 -6.33301 48 -19z" />
    <glyph glyph-name="zcaron" unicode="&#x17e;" 
d="M602 792h-404c-44 0 -66 22 -66 66s22 66 66 66h528c44 0 66 -22.333 66 -67c0 -12.667 -4.33301 -25.667 -13 -39l-457 -686h404c44 0 66 -22 66 -66s-22 -66 -66 -66h-528c-44 0 -66 21.667 -66 65c0 14 4.33301 27.667 13 41zM462 1283l150 150
c12.667 12.667 28.667 19 48 19c44 0 66 -22 66 -66c0 -18 -6.66699 -33.667 -20 -47l-186 -186c-20.667 -20.667 -40 -31 -58 -31s-37.333 10.333 -58 31l-186 186c-13.333 13.333 -20 29 -20 47c0 44 22 66 66 66c19.333 0 35.333 -6.33301 48 -19z" />
    <glyph glyph-name="longs" unicode="&#x17f;" horiz-adv-x="726" 
d="M198 0c-44 0 -66 22 -66 66v990c0 74 25.5 136.5 76.5 187.5s113.5 76.5 187.5 76.5h132c44 0 66 -22 66 -66c0 -18.667 -6.66699 -34.667 -20 -48s-36 -20 -68 -20c-8.66699 0 -22.667 0.666992 -42 2s-34.333 2 -45 2c-50 0 -88.333 -13 -115 -39s-40 -57.667 -40 -95
v-990c0 -44 -22 -66 -66 -66z" />
    <glyph glyph-name="florin" unicode="&#x192;" 
d="M333 792l-101.999 -0.00195312c-44 0 -66 22 -66 66s22 66 66 66h131l40 188c12.667 60.667 43.167 110.5 91.5 149.5s103.833 58.5 166.5 58.5h66c44 0 66 -22 66 -66c0 -18.667 -6.33301 -34.334 -19 -47.001s-32.667 -19.334 -60 -20.001h-66
c-26.667 -2.66699 -49.667 -12 -69 -28c-24.667 -19.333 -40.334 -44 -47.001 -74l-35 -161h131c44 0 66 -22 66 -66s-22 -66 -66 -66h-159l-211 -984c-12.667 -60 -43.334 -109 -92.001 -147s-103.667 -57 -165 -57h-66c-44 0 -66 22 -66 66
c0 18.667 6.33301 34.334 19 47.001s32.334 19.334 59.001 20.001h67c27.333 2.66699 51 12.334 71 29.001c24 20.667 39 45.334 45 74.001z" />
    <glyph glyph-name="Aringacute" unicode="&#x1fa;" horiz-adv-x="1188" 
d="M594 1044l-194 -582h388zM1056 66c0 -44 -22 -66 -66 -66c-32 0 -53 15 -63 45l-95 285h-476l-95 -285c-10 -30 -31 -45 -63 -45c-44 0 -66 22 -66 66c0 8 1 15 3 21l393 1180c12 35.333 34 53 66 53s53.667 -17 65 -51l394 -1182c2 -6 3 -13 3 -21zM825 1848
c64 0 118.5 -22.5 163.5 -67.5s67.5 -99.5 67.5 -163.5s-22.5 -118.5 -67.5 -163.5s-99.5 -67.5 -163.5 -67.5s-118.5 22.5 -163.5 67.5s-67.5 99.5 -67.5 163.5s22.5 118.5 67.5 163.5s99.5 67.5 163.5 67.5zM825 1716c-27.333 0 -50.666 -9.66699 -69.999 -29
s-29 -42.666 -29 -69.999s9.66699 -50.666 29 -69.999s42.666 -29 69.999 -29s50.666 9.66699 69.999 29s29 42.666 29 69.999s-9.66699 50.666 -29 69.999s-42.666 29 -69.999 29zM198 1518c-44 0 -66 22 -66 66c0 22.667 8.66699 40.334 26 53.001l264 198
c11.333 8.66699 24.666 13 39.999 13c44 0 66 -22 66 -66c0 -22.667 -8.66699 -40.334 -26 -53.001l-264 -198c-11.333 -8.66699 -24.666 -13 -39.999 -13z" />
    <glyph glyph-name="aringacute" unicode="&#x1fb;" 
d="M396 0c-74 0 -136.501 25.501 -187.501 76.501s-76.5 113.5 -76.5 187.5c0 48 11.667 92.333 35 133c50 87.333 126.333 131 229 131h264v132c0 37.333 -12.667 68.666 -38 93.999s-56.666 38 -93.999 38h-264c-44 0 -66 22 -66 66s22 66 66 66h264
c74 0 136.5 -25.5 187.5 -76.5s76.5 -113.5 76.5 -187.5v-594c0 -44 -22 -66 -66 -66h-330zM659.999 396.001l-263.999 0.000976562c-36.667 0 -67.834 -12.833 -93.501 -38.5s-38.5 -56.834 -38.5 -93.501c0 -36 13 -67 39 -93s57 -39 93 -39h264v264zM561 1551
c64 0 118.5 -22.5 163.5 -67.5s67.5 -99.5 67.5 -163.5s-22.5 -118.5 -67.5 -163.5s-99.5 -67.5 -163.5 -67.5s-118.5 22.5 -163.5 67.5s-67.5 99.5 -67.5 163.5s22.5 118.5 67.5 163.5s99.5 67.5 163.5 67.5zM561 1419c-27.333 0 -50.666 -9.66699 -69.999 -29
s-29 -42.666 -29 -69.999s9.66699 -50.666 29 -69.999s42.666 -29 69.999 -29s50.666 9.66699 69.999 29s29 42.666 29 69.999s-9.66699 50.666 -29 69.999s-42.666 29 -69.999 29zM198 1518c-44 0 -66 22 -66 66c0 22.667 8.66699 40.334 26 53.001l264 198
c11.333 8.66699 24.666 13 39.999 13c44 0 66 -22 66 -66c0 -22.667 -8.66699 -40.334 -26 -53.001l-264 -198c-11.333 -8.66699 -24.666 -13 -39.999 -13z" />
    <glyph glyph-name="AEacute" unicode="&#x1fc;" horiz-adv-x="1452" 
d="M792 462v726h-150l-242 -726h392zM792 330h-436l-95 -285c-10 -30 -31 -45 -63 -45c-44 0 -66 22 -66 66c0 8 1 15 3 21l393 1180c12 35.333 34 53 66 53h660c44 0 66 -22 66 -66s-22 -66 -66 -66h-330v-396h264c44 0 66 -22 66 -66s-22 -66 -66 -66h-264v-528h330
c44 0 66 -22 66 -66s-22 -66 -66 -66h-396c-44 0 -66 22 -66 66v264zM660 1518c-44 0 -66 22 -66 66c0 22.667 8.66699 40.334 26 53.001l264 198c11.333 8.66699 24.666 13 39.999 13c44 0 66 -22 66 -66c0 -22.667 -8.66699 -40.334 -26 -53.001l-264 -198
c-11.333 -8.66699 -24.666 -13 -39.999 -13z" />
    <glyph glyph-name="aeacute" unicode="&#x1fd;" horiz-adv-x="1188" 
d="M594 836c52 58.667 118.001 88 198.001 88c74 0 136.5 -25.5 187.5 -76.5s76.5 -113.5 76.5 -187.5v-264h-396v-132c0 -36 13 -67 39 -93s57 -39 93 -39h198c44 0 66 -22 66 -66s-22 -66 -66 -66h-198c-49.333 -0 -94.666 12.333 -135.999 37
c-10.667 -24.667 -31.334 -37 -62.001 -37h-198c-74 0 -136.5 25.5 -187.5 76.5s-76.5 113.5 -76.5 187.5s25.5 136.5 76.5 187.5s113.5 76.5 187.5 76.5h132v132c0 37.333 -12.833 68.833 -38.5 94.5s-68.834 38.5 -129.501 38.5c-8 0 -19.667 -0.333008 -35 -1h-32
c-63.333 0 -95 22 -95 66s22 66 66 66h132c78.667 0 144.667 -29.333 198 -88zM528.001 396l-131.999 0.000976562c-36.667 0 -67.834 -12.833 -93.501 -38.5s-38.5 -56.834 -38.5 -93.501c0 -36 13 -67 39 -93s57 -39 93 -39h132v264zM924.002 660.001
c0 37.333 -12.667 68.668 -38 94.001s-56.666 38 -93.999 38c-36.667 0 -67.834 -12.833 -93.501 -38.5s-38.5 -56.834 -38.5 -93.501v-132h264v132zM462.002 1122c-44 0 -66 22 -66 66c0 22.667 8.66699 40.334 26 53.001l264 198c11.333 8.66699 24.666 13 39.999 13
c44 0 66 -22 66 -66c0 -22.667 -8.66699 -40.334 -26 -53.001l-264 -198c-11.333 -8.66699 -24.666 -13 -39.999 -13z" />
    <glyph glyph-name="Oslashacute" unicode="&#x1fe;" horiz-adv-x="1320" 
d="M992 1139l81.001 92.999c12.667 14.667 29 22 49 22c44 0 66 -22 66 -66c0 -16.667 -5.33301 -31 -16 -43l-125 -143c6 -30 9 -56 9 -78v-528c0 -109.333 -38.667 -202.666 -116 -279.999s-170.666 -116 -279.999 -116c-140.667 0 -251.334 60 -332.001 180l-80 -91
c-13.333 -15.333 -30 -23 -50 -23c-44 0 -66 22 -66 66c0 16.667 5.66699 31.334 17 44.001l123 141c-5.33301 28 -8 54.333 -8 79v528c0 109.333 38.667 202.666 116 279.999s170.666 116 279.999 116c142 0 252.667 -60.333 332 -181zM924.001 861.999l-504 -576
c48.667 -102.667 128.667 -154 240 -154c74 0 136.5 25.5 187.5 76.5s76.5 113.5 76.5 187.5v466zM899.001 1034c-44.667 102.667 -124.333 154 -239 154c-74 0 -136.5 -25.5 -187.5 -76.5s-76.5 -113.5 -76.5 -187.5v-466zM528.002 1518c-44 0 -66 22 -66 66
c0 22.667 8.66699 40.334 26 53.001l264 198c11.333 8.66699 24.666 13 39.999 13c44 0 66 -22 66 -66c0 -22.667 -8.66699 -40.334 -26 -53.001l-264 -198c-11.333 -8.66699 -24.666 -13 -39.999 -13z" />
    <glyph glyph-name="oslashacute" unicode="&#x1ff;" horiz-adv-x="1188" 
d="M911 685c8.66699 -26.667 13 -57 13 -91v-264c0 -91.333 -32.167 -169.166 -96.5 -233.499s-142.166 -96.5 -233.499 -96.5c-101.333 0 -185.333 38.667 -252 116l-97 -97c-12.667 -12.667 -28.334 -19 -47.001 -19c-44 0 -66 22 -66 66
c0 18.667 6.33301 34.334 19 47.001l126 126c-8.66699 26.667 -13 57 -13 91v264c0 91.333 32.167 169.166 96.5 233.499s142.166 96.5 233.499 96.5c102 0 186 -38.667 252 -116l97 97c12.667 12.667 28.334 19 47.001 19c44 0 66 -22 66 -66
c0 -18.667 -6.33301 -34.334 -19 -47.001zM792 566l-356.001 -356.001c39.333 -52 92 -78 158 -78c54.667 0 101.334 19.333 140.001 58s58 85.334 58 140.001v236zM751.999 713.999c-38 52 -90.666 78.001 -157.999 78.001c-54.667 0 -101.334 -19.333 -140.001 -58
s-58 -85.334 -58 -140.001v-236zM462 1122c-44 0 -66 22 -66 66c0 22.667 8.66699 40.334 26 53.001l264 198c11.333 8.66699 24.666 13 39.999 13c44 0 66 -22 66 -66c0 -22.667 -8.66699 -40.334 -26 -53.001l-264 -198c-11.333 -8.66699 -24.666 -13 -39.999 -13z" />
    <glyph glyph-name="circumflex" unicode="&#x2c6;" horiz-adv-x="792" 
d="M396 1687l-150 -150c-12.667 -12.667 -28.667 -19 -48 -19c-44 0 -66 22 -66 66c0 18 6.66699 33.667 20 47l186 186c20.667 20.667 40 31 58 31s37.333 -10.333 58 -31l186 -186c13.333 -13.333 20 -29 20 -47c0 -44 -22 -66 -66 -66c-19.333 0 -35.333 6.33301 -48 19z
" />
    <glyph glyph-name="caron" unicode="&#x2c7;" horiz-adv-x="792" 
d="M396 1679l150 150c12.667 12.667 28.667 19 48 19c44 0 66 -22 66 -66c0 -18 -6.66699 -33.667 -20 -47l-186 -186c-20.667 -20.667 -40 -31 -58 -31s-37.333 10.333 -58 31l-186 186c-13.333 13.333 -20 29 -20 47c0 44 22 66 66 66c19.333 0 35.333 -6.33301 48 -19z
" />
    <glyph glyph-name="macron" unicode="&#x2c9;" horiz-adv-x="1056" 
d="M858 1584h-660c-44 0 -66 22 -66 66s22 66 66 66h660c44 0 66 -22 66 -66s-22 -66 -66 -66z" />
    <glyph glyph-name="breve" unicode="&#x2d8;" horiz-adv-x="792" 
d="M660 1782c0 -73.333 -25.833 -135.667 -77.5 -187s-114.167 -77 -187.5 -77s-135.5 25.667 -186.5 77s-76.5 113.666 -76.5 186.999c0 44 21.667 66 65 66c44 0 66 -22 66 -66c0 -36 13 -67 39 -93s57 -39 93 -39c36.667 0 68 12.833 94 38.5s39 56.834 39 93.501
c0 18 6.5 33.5 19.5 46.5s28.5 19.5 46.5 19.5c44 0 66 -22 66 -66z" />
    <glyph glyph-name="dotaccent" unicode="&#x2d9;" horiz-adv-x="396" 
d="M132 1584v66c0 44 22 66 66 66s66 -22 66 -66v-66c0 -44 -22 -66 -66 -66s-66 22 -66 66z" />
    <glyph glyph-name="ring" unicode="&#x2da;" horiz-adv-x="726" 
d="M363 1848c64 0 118.5 -22.5 163.5 -67.5s67.5 -99.5 67.5 -163.5s-22.5 -118.5 -67.5 -163.5s-99.5 -67.5 -163.5 -67.5s-118.5 22.5 -163.5 67.5s-67.5 99.5 -67.5 163.5s22.5 118.5 67.5 163.5s99.5 67.5 163.5 67.5zM363 1716c-27.333 0 -50.666 -9.66699 -69.999 -29
s-29 -42.666 -29 -69.999s9.66699 -50.666 29 -69.999s42.666 -29 69.999 -29s50.666 9.66699 69.999 29s29 42.666 29 69.999s-9.66699 50.666 -29 69.999s-42.666 29 -69.999 29z" />
    <glyph glyph-name="ogonek" unicode="&#x2db;" horiz-adv-x="462" 
d="M258 132c48 0 72 -18.666 72 -55.999c0 -6 -0.666992 -11.667 -2 -17l-66 -273c-8 -33.333 -29.333 -50 -64 -50c-44 0 -66 22 -66 66c0 5.33301 0.666992 10.666 2 15.999l66 273c6.66699 27.333 26 41 58 41z" />
    <glyph glyph-name="tilde" unicode="&#x2dc;" 
d="M594 1584c-48 0 -99.5029 22.001 -154.503 66.001s-91.5 66 -109.5 66c-17.333 0 -39.166 -11 -65.499 -33s-48.5 -33 -66.5 -33c-17.333 0 -32.666 6.66699 -45.999 20s-20 28.666 -20 45.999c0 22 9 39.667 27 53c42 31.333 68.333 50 79 56c28 15.333 58.667 23 92 23
c46.667 0 98 -22 154 -66s92.667 -66 110 -66c18 0 40.333 11 67 33s48.334 33 65.001 33c44 0 66 -22 66 -66c0 -20 -9 -38 -27 -54l-52 -38c-36 -26.667 -75.667 -40 -119 -40z" />
    <glyph glyph-name="hungarumlaut" unicode="&#x2dd;" 
d="M330 1848c44 0 66 -22 66 -66c0 -12 -4 -24 -12 -36l-130 -199c-12.667 -19.333 -31.334 -29 -56.001 -29c-44 0 -66 22 -66 66c0 12 4 24 12 36l130 199c12.667 19.333 31.334 29 56.001 29zM726 1848c44 0 66 -22 66 -66c0 -12 -4 -24 -12 -36l-130 -199
c-12.667 -19.333 -31.334 -29 -56.001 -29c-44 0 -66 22 -66 66c0 12 4 24 12 36l130 199c12.667 19.333 31.334 29 56.001 29z" />
    <glyph glyph-name="u037E" unicode="&#x37e;" horiz-adv-x="462" 
d="M198 594c0 44 22 66 66 66s66 -22 66 -66v-66c0 -44 -22 -66 -66 -66s-66 22 -66 66v66zM264 132c44 0 66 -21.666 66 -64.999c0 -6 -0.666992 -11.667 -2 -17l-66 -264c-8 -33.333 -29.333 -50 -64 -50c-44 0 -66 22 -66 66c0 5.33301 22.667 98.666 68 279.999
c8 33.333 29.333 50 64 50z" />
    <glyph glyph-name="tonos" unicode="&#x384;" horiz-adv-x="660" 
d="M198 1518c-44 0 -66 22 -66 66c0 22.667 8.66699 40.334 26 53.001l264 198c11.333 8.66699 24.666 13 39.999 13c44 0 66 -22 66 -66c0 -22.667 -8.66699 -40.334 -26 -53.001l-264 -198c-11.333 -8.66699 -24.666 -13 -39.999 -13z" />
    <glyph glyph-name="dieresistonos" unicode="&#x385;" horiz-adv-x="792" 
d="M132 1188v66c0 44 22 66 66 66s66 -22 66 -66v-66c0 -44 -22 -66 -66 -66s-66 22 -66 66zM528 1188v66c0 44 22 66 66 66s66 -22 66 -66v-66c0 -44 -22 -66 -66 -66s-66 22 -66 66zM330 1518c-44 0 -66 22 -66 66c0 22.667 8.66699 40.334 26 53.001l264 198
c11.333 8.66699 24.666 13 39.999 13c44 0 66 -22 66 -66c0 -22.667 -8.66699 -40.334 -26 -53.001l-264 -198c-11.333 -8.66699 -24.666 -13 -39.999 -13z" />
    <glyph glyph-name="Alphatonos" unicode="&#x386;" horiz-adv-x="1188" 
d="M594 1044l-194 -582h388zM1056 66c0 -44 -22 -66 -66 -66c-32 0 -53 15 -63 45l-95 285h-476l-95 -285c-10 -30 -31 -45 -63 -45c-44 0 -66 22 -66 66c0 8 1 15 3 21l393 1180c12 35.333 34 53 66 53s53.667 -17 65 -51l394 -1182c2 -6 3 -13 3 -21zM198 1188v198
c0 44 22 66 66 66s66 -22 66 -66v-198c0 -44 -22 -66 -66 -66s-66 22 -66 66z" />
    <glyph glyph-name="anoteleia" unicode="&#x387;" horiz-adv-x="462" 
d="M198 660h66c44 0 66 -22 66 -66s-22 -66 -66 -66h-66c-44 0 -66 22 -66 66s22 66 66 66z" />
    <glyph glyph-name="Epsilontonos" unicode="&#x388;" horiz-adv-x="1188" 
d="M396 66v1188c0 44 22 66 66 66h528c44 0 66 -22 66 -66s-22 -66 -66 -66h-462v-396h330c44 0 66 -22 66 -66s-22 -66 -66 -66h-330v-528h462c44 0 66 -22 66 -66s-22 -66 -66 -66h-528c-44 0 -66 22 -66 66zM132 1188v198c0 44 22 66 66 66s66 -22 66 -66v-198
c0 -44 -22 -66 -66 -66s-66 22 -66 66z" />
    <glyph glyph-name="Etatonos" unicode="&#x389;" horiz-adv-x="1320" 
d="M396 66v1188c0 44 22 66 66 66s66 -22 66 -66v-462h528v462c0 44 22 66 66 66s66 -22 66 -66v-1188c0 -44 -22 -66 -66 -66s-66 22 -66 66v594h-528v-594c0 -44 -22 -66 -66 -66s-66 22 -66 66zM132 1188v198c0 44 22 66 66 66s66 -22 66 -66v-198c0 -44 -22 -66 -66 -66
s-66 22 -66 66z" />
    <glyph glyph-name="Iotatonos" unicode="&#x38a;" horiz-adv-x="660" 
d="M462 0c-44 0 -66 22 -66 66v1188c0 44 22 66 66 66s66 -22 66 -66v-1188c0 -44 -22 -66 -66 -66zM132 1188v198c0 44 22 66 66 66s66 -22 66 -66v-198c0 -44 -22 -66 -66 -66s-66 22 -66 66z" />
    <glyph glyph-name="Omicrontonos" unicode="&#x38c;" horiz-adv-x="1254" 
d="M990 396v528c0 74 -25.5 136.5 -76.5 187.5s-113.5 76.5 -187.5 76.5s-136.5 -25.5 -187.5 -76.5s-76.5 -113.5 -76.5 -187.5v-528c0 -74 25.5 -136.5 76.5 -187.5s113.5 -76.5 187.5 -76.5s136.5 25.5 187.5 76.5s76.5 113.5 76.5 187.5zM1122 396
c0 -109.333 -38.668 -202.665 -116.001 -279.998s-170.666 -116 -279.999 -116s-202.666 38.667 -279.999 116s-116 170.666 -116 279.999v528c0 109.333 38.667 202.666 116 279.999s170.666 116 279.999 116c110 0 203.5 -38.5 280.5 -115.5s115.5 -170.5 115.5 -280.5
v-528zM131.999 1188v198c0 44 22 66 66 66s66 -22 66 -66v-198c0 -44 -22 -66 -66 -66s-66 22 -66 66z" />
    <glyph glyph-name="Upsilontonos" unicode="&#x38e;" horiz-adv-x="1452" 
d="M924 660v-594c0 -44 -22 -66 -66 -66s-66 22 -66 66v594l-384 556c-8 11.333 -12 24 -12 38c0 44 22 66 66 66c24 0 42.333 -9.33301 55 -28l341 -496l341 496c12.667 18.667 31 28 55 28c44 0 66 -22 66 -66c0 -14 -4 -26.667 -12 -38zM132 1188v198c0 44 22 66 66 66
s66 -22 66 -66v-198c0 -44 -22 -66 -66 -66s-66 22 -66 66z" />
    <glyph glyph-name="Omegatonos" unicode="&#x38f;" horiz-adv-x="1320" 
d="M726 1188c-91.333 0 -169.165 -32.167 -233.498 -96.5s-96.5 -142.166 -96.5 -233.499v-132c0 -115.333 51 -208.333 153 -279c17.333 -12 29.166 -23.333 35.499 -34s9.5 -29.334 9.5 -56.001v-291c0 -44 -22 -66 -66 -66h-198c-44 0 -66 22 -66 66s22 66 66 66h132v215
c-132 91.333 -198 217.666 -198 378.999v132c0 128 45 237 135 327s199 135 327 135s237 -45 327 -135s135 -199 135 -327v-132c0 -161.333 -66 -287.666 -198 -378.999v-215h132c44 0 66 -22 66 -66s-22 -66 -66 -66h-198c-44 0 -66 22 -66 66v291
c0 25.333 3 43.666 9 54.999s18 23 36 35c50.667 35.333 88.667 76.333 114 123c21.333 40 34 86.667 38 140c0.666992 6 1 55.333 1 148s-31.833 170.834 -95.5 234.501s-141.834 95.5 -234.501 95.5zM132.001 1188v198c0 44 22 66 66 66s66 -22 66 -66v-198
c0 -44 -22 -66 -66 -66s-66 22 -66 66z" />
    <glyph glyph-name="iotadieresistonos" unicode="&#x390;" horiz-adv-x="1056" 
d="M660 0c-91.333 0 -169.166 32.167 -233.499 96.5s-96.5 142.166 -96.5 233.499v528c0 44 22 66 66 66s66 -22 66 -66v-528c0 -55.333 19.167 -102.166 57.5 -140.499s85.166 -57.5 140.499 -57.5c45.333 0 86.5 14.833 123.5 44.5s61.833 44.5 74.5 44.5
c44 0 66 -22 66 -66c0 -16 -5.66699 -30.667 -17 -44c-64 -74 -146.333 -111 -247 -111zM132 1188v66c0 44 22 66 66 66s66 -22 66 -66v-66c0 -44 -22 -66 -66 -66s-66 22 -66 66zM528 1188v66c0 44 22 66 66 66s66 -22 66 -66v-66c0 -44 -22 -66 -66 -66s-66 22 -66 66z
M330 1518c-44 0 -66 21.999 -66 65.999c0 22.667 8.66699 40.334 26 53.001l264 198c11.333 8.66699 24.666 13 39.999 13c44 0 66 -22 66 -66c0 -22 -8.66699 -39.667 -26 -53l-264 -198c-11.333 -8.66699 -24.666 -13 -39.999 -13z" />
    <glyph glyph-name="Alpha" unicode="&#x391;" horiz-adv-x="1188" 
d="M594 1044l-194 -582h388zM1056 66c0 -44 -22 -66 -66 -66c-32 0 -53 15 -63 45l-95 285h-476l-95 -285c-10 -30 -31 -45 -63 -45c-44 0 -66 22 -66 66c0 8 1 15 3 21l393 1180c12 35.333 34 53 66 53s53.667 -17 65 -51l394 -1182c2 -6 3 -13 3 -21z" />
    <glyph glyph-name="Beta" unicode="&#x392;" horiz-adv-x="1056" 
d="M736 733c125.333 -74.667 187.998 -187 187.998 -337c0 -109.333 -38.667 -202.666 -116 -279.999s-170.666 -116 -279.999 -116h-330c-44 0 -66 22 -66 66v1188c0 44 22 66 66 66h330c92.667 0 170.834 -31.833 234.501 -95.5s95.5 -141.834 95.5 -234.501
c0 -105.333 -40.667 -191 -122 -257zM263.998 1188v-396.002h264c54.667 0 101.334 19.333 140.001 58s58 85.334 58 140.001s-19.333 101.334 -58 140.001s-85.334 58 -140.001 58h-264zM263.998 659.998v-528h264c74 0 136.5 25.5 187.5 76.5s76.5 113.5 76.5 187.5
s-25.5 136.5 -76.5 187.5s-113.5 76.5 -187.5 76.5h-264z" />
    <glyph glyph-name="Gamma" unicode="&#x393;" horiz-adv-x="990" 
d="M264 1188v-1122c0 -44 -22 -66 -66 -66s-66 22 -66 66v1188c0 44 22 66 66 66h594c44 0 66 -22 66 -66s-22 -66 -66 -66h-528z" />
    <glyph glyph-name="Delta" unicode="&#x394;" horiz-adv-x="1188" 
d="M290 132h608l-304 912zM990 0h-792c-44 0 -66 22 -66 66c0 8 1 15 3 21l394 1182c11.333 34 33 51 65 51s53.667 -17 65 -51l394 -1182c2 -6 3 -13 3 -21c0 -18 -6.5 -33.5 -19.5 -46.5s-28.5 -19.5 -46.5 -19.5z" />
    <glyph glyph-name="Delta" unicode="&#x2206;" horiz-adv-x="1188" 
d="M290 132h608l-304 912zM990 0h-792c-44 0 -66 22 -66 66c0 8 1 15 3 21l394 1182c11.333 34 33 51 65 51s53.667 -17 65 -51l394 -1182c2 -6 3 -13 3 -21c0 -18 -6.5 -33.5 -19.5 -46.5s-28.5 -19.5 -46.5 -19.5z" />
    <glyph glyph-name="Epsilon" unicode="&#x395;" horiz-adv-x="990" 
d="M132 66v1188c0 44 22 66 66 66h594c44 0 66 -22 66 -66s-22 -66 -66 -66h-528v-396h396c44 0 66 -22 66 -66s-22 -66 -66 -66h-396v-528h528c44 0 66 -22 66 -66s-22 -66 -66 -66h-594c-44 0 -66 22 -66 66z" />
    <glyph glyph-name="Zeta" unicode="&#x396;" horiz-adv-x="1056" 
d="M311 132l547 0.000976562c44 0 66 -22 66 -66s-22 -66 -66 -66h-660c-44 0 -66 22 -66 66c0 11.333 4.33301 24.666 13 39.999l601 1082h-548c-44 0 -66 22 -66 66s22 66 66 66h660c44 0 66 -21.667 66 -65c0 -12 -4.33301 -25.667 -13 -41z" />
    <glyph glyph-name="Eta" unicode="&#x397;" horiz-adv-x="1056" 
d="M132 66v1188c0 44 22 66 66 66s66 -22 66 -66v-462h528v462c0 44 22 66 66 66s66 -22 66 -66v-1188c0 -44 -22 -66 -66 -66s-66 22 -66 66v594h-528v-594c0 -44 -22 -66 -66 -66s-66 22 -66 66z" />
    <glyph glyph-name="Theta" unicode="&#x398;" horiz-adv-x="1056" 
d="M792 396v528c0 74 -25.5 136.5 -76.5 187.5s-113.5 76.5 -187.5 76.5s-136.5 -25.5 -187.5 -76.5s-76.5 -113.5 -76.5 -187.5v-528c0 -74 25.5 -136.5 76.5 -187.5s113.5 -76.5 187.5 -76.5s136.5 25.5 187.5 76.5s76.5 113.5 76.5 187.5zM924 396
c0 -109.333 -38.668 -202.665 -116.001 -279.998s-170.666 -116 -279.999 -116s-202.666 38.667 -279.999 116s-116 170.666 -116 279.999v528c0 109.333 38.667 202.666 116 279.999s170.666 116 279.999 116c110 0 203.5 -38.5 280.5 -115.5s115.5 -170.5 115.5 -280.5
v-528zM593.999 594.001h-132c-44 0 -66 22 -66 66s22 66 66 66h132c44 0 66 -22 66 -66s-22 -66 -66 -66z" />
    <glyph glyph-name="Theta" unicode="&#x472;" horiz-adv-x="1056" 
d="M792 396v528c0 74 -25.5 136.5 -76.5 187.5s-113.5 76.5 -187.5 76.5s-136.5 -25.5 -187.5 -76.5s-76.5 -113.5 -76.5 -187.5v-528c0 -74 25.5 -136.5 76.5 -187.5s113.5 -76.5 187.5 -76.5s136.5 25.5 187.5 76.5s76.5 113.5 76.5 187.5zM924 396
c0 -109.333 -38.668 -202.665 -116.001 -279.998s-170.666 -116 -279.999 -116s-202.666 38.667 -279.999 116s-116 170.666 -116 279.999v528c0 109.333 38.667 202.666 116 279.999s170.666 116 279.999 116c110 0 203.5 -38.5 280.5 -115.5s115.5 -170.5 115.5 -280.5
v-528zM593.999 594.001h-132c-44 0 -66 22 -66 66s22 66 66 66h132c44 0 66 -22 66 -66s-22 -66 -66 -66z" />
    <glyph glyph-name="Iota" unicode="&#x399;" horiz-adv-x="396" 
d="M198 0c-44 0 -66 22 -66 66v1188c0 44 22 66 66 66s66 -22 66 -66v-1188c0 -44 -22 -66 -66 -66z" />
    <glyph glyph-name="Kappa" unicode="&#x39a;" horiz-adv-x="1056" 
d="M435 690l-170.998 -187.999v-436c0 -44 -22 -66 -66 -66s-66 22 -66 66v1188c0 44 22 66 66 66s66 -22 66 -66v-555l544 599c13.333 14.667 30 22 50 22c44 0 66 -22 66 -66c0 -16.667 -6 -31.667 -18 -45l-377 -415l386 -695c6 -10.667 9 -21.667 9 -33
c0 -16.667 -6.83301 -31.834 -20.5 -45.501s-28.834 -20.5 -45.501 -20.5c-26.667 0 -46.334 11.667 -59.001 35z" />
    <glyph glyph-name="Lambda" unicode="&#x39b;" horiz-adv-x="1188" 
d="M1056 66c0 -44 -22 -66 -66 -66c-32 0 -53 15 -63 45l-333 999l-333 -999c-10 -30 -31 -45 -63 -45c-44 0 -66 22 -66 66c0 8 1 15 3 21l394 1182c11.333 34 33 51 65 51s53.667 -17 65 -51l394 -1182c2 -6 3 -13 3 -21z" />
    <glyph glyph-name="Mu" unicode="&#x39c;" horiz-adv-x="1188" 
d="M990 1320c44 0 65.999 -22 65.999 -66v-1188c0 -44 -22 -66 -66 -66s-66 22 -66 66v971l-269 -403c-18 -26.667 -38.333 -40 -61 -40c-23.333 0 -44 13.333 -62 40l-268 403v-971c0 -44 -22 -66 -66 -66s-66 22 -66 66v1188c0 44 22 66 66 66c24 0 43.333 -11 58 -33
l338 -507l340 511c12.667 19.333 31.334 29 56.001 29z" />
    <glyph glyph-name="Nu" unicode="&#x39d;" horiz-adv-x="1056" 
d="M792 321v933c0 44 22 66 66 66s66 -22 66 -66v-1188c0 -44 -22 -66 -66 -66c-26.667 0 -46 11 -58 33l-536 967v-934c0 -44 -22 -66 -66 -66s-66 22 -66 66v1188c0 44 22 66 66 66c26 0 46.333 -13 61 -39z" />
    <glyph glyph-name="Xi" unicode="&#x39e;" horiz-adv-x="1056" 
d="M660 594h-264c-44 0 -66 22 -66 66s22 66 66 66h264c44 0 66 -22 66 -66s-22 -66 -66 -66zM858 1188h-660c-44 0 -66 22 -66 66s22 66 66 66h660c44 0 66 -22 66 -66s-22 -66 -66 -66zM858 0h-660c-44 0 -66 22 -66 66s22 66 66 66h660c44 0 66 -22 66 -66
s-22 -66 -66 -66z" />
    <glyph glyph-name="Omicron" unicode="&#x39f;" horiz-adv-x="1056" 
d="M792 396v528c0 74 -25.5 136.5 -76.5 187.5s-113.5 76.5 -187.5 76.5s-136.5 -25.5 -187.5 -76.5s-76.5 -113.5 -76.5 -187.5v-528c0 -74 25.5 -136.5 76.5 -187.5s113.5 -76.5 187.5 -76.5s136.5 25.5 187.5 76.5s76.5 113.5 76.5 187.5zM924 396
c0 -109.333 -38.668 -202.665 -116.001 -279.998s-170.666 -116 -279.999 -116s-202.666 38.667 -279.999 116s-116 170.666 -116 279.999v528c0 109.333 38.667 202.666 116 279.999s170.666 116 279.999 116c110 0 203.5 -38.5 280.5 -115.5s115.5 -170.5 115.5 -280.5
v-528z" />
    <glyph glyph-name="Pi" unicode="&#x3a0;" horiz-adv-x="1056" 
d="M198 1320h660c44 0 66 -22 66 -66v-1188c0 -44 -22 -66 -66 -66s-66 22 -66 66v1122h-528v-1122c0 -44 -22 -66 -66 -66s-66 22 -66 66v1188c0 44 22 66 66 66z" />
    <glyph glyph-name="Rho" unicode="&#x3a1;" horiz-adv-x="1056" 
d="M198 1320l329.999 -0.000976562c110 0 203.5 -38.5 280.5 -115.5s115.5 -170.5 115.5 -280.5c0 -117.333 -36.667 -212.666 -110 -285.999s-168.666 -110 -285.999 -110h-264v-462c0 -44 -22 -66 -66 -66s-66 22 -66 66v1188c0 44 22 66 66 66zM263.999 1188v-528h264
c74 0 136.5 25.5 187.5 76.5s76.5 113.5 76.5 187.5s-25.5 136.5 -76.5 187.5s-113.5 76.5 -187.5 76.5h-264z" />
    <glyph glyph-name="Sigma" unicode="&#x3a3;" horiz-adv-x="1056" 
d="M132 1254c0 44 22 66.002 66 66.002h660c44 0 66 -22 66 -66s-22 -66 -66 -66h-559l218 -490c7.33301 -16.667 11 -29.334 11 -38.001s-3.66699 -21.334 -11 -38.001l-218 -490h559c44 0 66 -22 66 -66s-22 -66 -66 -66h-660c-44 0 -66 22 -66 66
c0 9.33301 3.33301 21.333 10 36l248 558l-249 561c-6 13.333 -9 24.333 -9 33z" />
    <glyph glyph-name="Tau" unicode="&#x3a4;" horiz-adv-x="1056" 
d="M132 1254c0 44 22 66 66 66h660c44 0 66 -22 66 -66s-22 -66 -66 -66h-264v-1122c0 -44 -22 -66 -66 -66s-66 22 -66 66v1122h-264c-44 0 -66 22 -66 66z" />
    <glyph glyph-name="Upsilon" unicode="&#x3a5;" horiz-adv-x="1188" 
d="M660 660v-594c0 -44 -22 -66 -66 -66s-66 22 -66 66v594l-384 556c-8 11.333 -12 24 -12 38c0 44 22 66 66 66c24 0 42.333 -9.33301 55 -28l341 -496l341 496c12.667 18.667 31 28 55 28c44 0 66 -22 66 -66c0 -14 -4 -26.667 -12 -38z" />
    <glyph glyph-name="Phi" unicode="&#x3a6;" horiz-adv-x="1320" 
d="M726 330h66c74 0 136.5 25.5 187.5 76.5s76.5 113.5 76.5 187.5v132c0 74 -25.5 136.5 -76.5 187.5s-113.5 76.5 -187.5 76.5h-66v-660zM594 330v660h-66c-74 0 -136.5 -25.5 -187.5 -76.5s-76.5 -113.5 -76.5 -187.5v-132c0 -74 25.5 -136.5 76.5 -187.5
s113.5 -76.5 187.5 -76.5h66zM726 198v-131.999c0 -44 -22 -66 -66 -66s-66 22 -66 66v132c-97.333 0 -170 10.333 -218 31c-74 30.667 -133.167 79.167 -177.5 145.5s-66.5 139.5 -66.5 219.5v132c0 80 22 153.167 66 219.5s103.333 115.166 178 146.499
c48 20 120.667 30 218 30v132c0 44 22 66 66 66s66 -22 66 -66v-132c98 0 171.333 -10.333 220 -31c74 -31.333 132.833 -80 176.5 -146s65.5 -139 65.5 -219v-132c0 -80 -22 -153 -66 -219s-102.667 -114.667 -176 -146c-48.667 -20.667 -122 -31 -220 -31z" />
    <glyph glyph-name="Chi" unicode="&#x3a7;" horiz-adv-x="1188" 
d="M674 660l371 -557c7.33301 -11.333 11 -23.666 11 -36.999c0 -44 -22 -66 -66 -66c-24 0 -42.333 9.66699 -55 29l-341 512l-341 -512c-12.667 -19.333 -31 -29 -55 -29c-44 0 -66 22 -66 66c0 13.333 3.66699 25.666 11 36.999l371 557l-371 557
c-7.33301 11.333 -11 23.666 -11 36.999c0 44 22 66 66 66c24 0 42.333 -9.66699 55 -29l341 -511l341 511c12.667 19.333 31 29 55 29c44 0 66 -22 66 -66c0 -13.333 -3.66699 -25.666 -11 -36.999z" />
    <glyph glyph-name="Psi" unicode="&#x3a8;" horiz-adv-x="1188" 
d="M528 330c-109.333 0 -202.667 38.667 -280 116s-116 170.666 -116 279.999v528c0 44 22 66 66 66s66 -22 66 -66v-528c0 -102.667 43.667 -179 131 -229c40.667 -23.333 85 -35 133 -35v792c0 44 22 66 66 66s66 -22 66 -66v-792c47.333 0 91.666 11.667 132.999 35
c87.333 50 131 126.333 131 229v528c0 44 22 66 66 66s66 -22 66 -66v-528c0 -109.333 -38.667 -202.666 -116 -279.999s-170.666 -116 -279.999 -116v-264c0 -44 -22 -66 -66 -66s-66 22 -66 66v264z" />
    <glyph glyph-name="Psi" unicode="&#x470;" horiz-adv-x="1188" 
d="M528 330c-109.333 0 -202.667 38.667 -280 116s-116 170.666 -116 279.999v528c0 44 22 66 66 66s66 -22 66 -66v-528c0 -102.667 43.667 -179 131 -229c40.667 -23.333 85 -35 133 -35v792c0 44 22 66 66 66s66 -22 66 -66v-792c47.333 0 91.666 11.667 132.999 35
c87.333 50 131 126.333 131 229v528c0 44 22 66 66 66s66 -22 66 -66v-528c0 -109.333 -38.667 -202.666 -116 -279.999s-170.666 -116 -279.999 -116v-264c0 -44 -22 -66 -66 -66s-66 22 -66 66v264z" />
    <glyph glyph-name="Omega" unicode="&#x3a9;" horiz-adv-x="1188" 
d="M594 1188c-91.333 0 -169.165 -32.167 -233.498 -96.5s-96.5 -142.166 -96.5 -233.499v-132c0 -115.333 51 -208.333 153 -279c17.333 -12 29.166 -23.333 35.499 -34s9.5 -29.334 9.5 -56.001v-291c0 -44 -22 -66 -66 -66h-198c-44 0 -66 22 -66 66s22 66 66 66h132v215
c-132 91.333 -198 217.666 -198 378.999v132c0 128 45 237 135 327s199 135 327 135s237 -45 327 -135s135 -199 135 -327v-132c0 -161.333 -66 -287.666 -198 -378.999v-215h132c44 0 66 -22 66 -66s-22 -66 -66 -66h-198c-44 0 -66 22 -66 66v291
c0 25.333 3 43.666 9 54.999s18 23 36 35c50.667 35.333 88.667 76.333 114 123c21.333 40 34 86.667 38 140c0.666992 6 1 55.333 1 148s-31.833 170.834 -95.5 234.501s-141.834 95.5 -234.501 95.5z" />
    <glyph glyph-name="Iotadieresis" unicode="&#x3aa;" horiz-adv-x="792" 
d="M396 0c-44 0 -66 22 -66 66v1188c0 44 22 66 66 66s66 -22 66 -66v-1188c0 -44 -22 -66 -66 -66zM132 1584v66c0 44 22 66 66 66s66 -22 66 -66v-66c0 -44 -22 -66 -66 -66s-66 22 -66 66zM528 1584v66c0 44 22 66 66 66s66 -22 66 -66v-66c0 -44 -22 -66 -66 -66
s-66 22 -66 66z" />
    <glyph glyph-name="Upsilondieresis" unicode="&#x3ab;" horiz-adv-x="1188" 
d="M330 1584v66c0 44 22 66 66 66s66 -22 66 -66v-66c0 -44 -22 -66 -66 -66s-66 22 -66 66zM726 1584v66c0 44 22 66 66 66s66 -22 66 -66v-66c0 -44 -22 -66 -66 -66s-66 22 -66 66zM660 660v-594c0 -44 -22 -66 -66 -66s-66 22 -66 66v594l-384 556
c-8 11.333 -12 24 -12 38c0 44 22 66 66 66c24 0 42.333 -9.33301 55 -28l341 -496l341 496c12.667 18.667 31 28 55 28c44 0 66 -22 66 -66c0 -14 -4 -26.667 -12 -38z" />
    </font>
</defs>
</svg>
